<svg width="1920" height="6919" viewBox="0 0 1920 6919" fill="none" xmlns="http://www.w3.org/2000/svg">
<g clip-path="url(#clip0_2199_199)">
<g opacity="0.4">
<path d="M1683.2 4017.09C1692.64 4024 1702.24 4031.28 1711.99 4038.68C1743.47 4062.58 1776.52 4087.66 1810.99 4105.2C1856.1 4128.15 1903.54 4138.12 1952.95 4115.55C2000.93 4093.64 2018.97 4049.35 2031.23 3998.79C2034.3 3986.15 2037 3973.13 2039.72 3959.97L2039.91 3959.04C2042.56 3946.2 2045.24 3933.23 2048.3 3920.38C2054.56 3894.08 2062.41 3868.26 2074.89 3845.02C2088.58 3819.54 2108.42 3796.13 2130.09 3773.73C2140.93 3762.52 2152.23 3751.57 2163.46 3740.73C2164.2 3740.01 2164.94 3739.3 2165.68 3738.59C2176.16 3728.47 2186.54 3718.45 2196.4 3708.4C2238.63 3665.37 2270.97 3622.13 2259.64 3569.99C2247.57 3514.39 2205.64 3469.67 2151.77 3440.13C2097.91 3410.59 2032.16 3396.25 1972.57 3401.36C1921.14 3405.77 1884.51 3439.53 1850.53 3481.2C1840.27 3493.78 1830.27 3507.05 1820.19 3520.44C1813.56 3529.25 1806.89 3538.1 1800.08 3546.85C1782.92 3568.88 1764.92 3590.16 1744.55 3607.96C1725.02 3625.03 1702.03 3639.37 1678.33 3652.8C1668.93 3658.12 1659.44 3663.3 1650 3668.44C1635.59 3676.29 1621.32 3684.06 1607.76 3692.18C1562.87 3719.04 1526.08 3749.44 1518.84 3797.84C1511.31 3848.2 1532.82 3888.7 1566.04 3923.79C1593.11 3952.39 1627.91 3977.34 1661 4001.06C1668.52 4006.46 1675.96 4011.79 1683.2 4017.09Z" stroke="#00F0B5"/>
<path d="M1737 3964.02C1744.44 3969.46 1752 3975.2 1759.67 3981.03C1784.46 3999.84 1810.47 4019.58 1837.6 4033.39C1873.1 4051.45 1910.42 4059.28 1949.28 4041.53C1987.01 4024.3 2001.21 3989.48 2010.86 3949.67C2013.27 3939.72 2015.39 3929.47 2017.53 3919.12L2017.69 3918.38C2019.78 3908.27 2021.89 3898.06 2024.29 3887.94C2029.22 3867.23 2035.41 3846.89 2045.24 3828.58C2056.02 3808.5 2071.65 3790.06 2088.72 3772.42C2097.25 3763.6 2106.16 3754.97 2115 3746.44C2115.58 3745.88 2116.16 3745.31 2116.74 3744.75C2124.99 3736.79 2133.17 3728.9 2140.92 3720.99C2174.18 3687.1 2199.59 3653.1 2190.69 3612.11C2181.19 3568.37 2148.21 3533.19 2105.82 3509.94C2063.42 3486.69 2011.68 3475.4 1964.78 3479.42C1924.33 3482.89 1895.52 3509.44 1868.76 3542.25C1860.69 3552.15 1852.82 3562.6 1844.88 3573.14C1839.66 3580.07 1834.41 3587.04 1829.04 3593.93C1815.54 3611.28 1801.36 3628.04 1785.31 3642.06C1769.92 3655.51 1751.82 3666.81 1733.15 3677.38C1725.75 3681.57 1718.28 3685.65 1710.84 3689.7C1699.5 3695.87 1688.27 3701.99 1677.59 3708.38C1642.25 3729.53 1613.33 3753.44 1607.64 3791.5C1601.71 3831.11 1618.63 3862.96 1644.77 3890.57C1666.08 3913.08 1693.46 3932.72 1719.52 3951.4C1725.44 3955.65 1731.3 3959.84 1737 3964.02Z" stroke="#00F0B5"/>
<path d="M1775.87 3925.68C1781.86 3930.06 1787.95 3934.68 1794.13 3939.37C1814.08 3954.51 1835 3970.39 1856.83 3981.5C1885.39 3996.03 1915.39 4002.32 1946.63 3988.05C1976.95 3974.21 1988.37 3946.22 1996.13 3914.19C1998.07 3906.18 1999.79 3897.93 2001.51 3889.6L2001.63 3889.01C2003.31 3880.87 2005.01 3872.65 2006.95 3864.5C2010.92 3847.83 2015.89 3831.45 2023.82 3816.7C2032.5 3800.53 2045.09 3785.68 2058.83 3771.48C2065.7 3764.38 2072.86 3757.44 2079.98 3750.57C2080.45 3750.11 2080.91 3749.66 2081.38 3749.21C2088.02 3742.8 2094.6 3736.45 2100.84 3730.09C2127.61 3702.81 2148.03 3675.48 2140.87 3642.55C2133.24 3607.38 2106.72 3579.08 2072.61 3560.38C2038.5 3541.67 1996.88 3532.6 1959.15 3535.83C1926.64 3538.62 1903.47 3559.96 1881.94 3586.36C1875.44 3594.33 1869.11 3602.73 1862.72 3611.21C1858.52 3616.79 1854.29 3622.41 1849.97 3627.95C1839.1 3641.92 1827.68 3655.41 1814.76 3666.71C1802.37 3677.54 1787.79 3686.63 1772.77 3695.14C1766.81 3698.52 1760.79 3701.8 1754.81 3705.06C1745.68 3710.03 1736.64 3714.95 1728.05 3720.09C1699.61 3737.11 1676.37 3756.34 1671.79 3786.92C1667.03 3818.75 1680.63 3844.36 1701.65 3866.58C1718.8 3884.68 1740.83 3900.48 1761.8 3915.52C1766.57 3918.94 1771.28 3922.32 1775.87 3925.68Z" stroke="#00F0B5"/>
</g>
<g opacity="0.3">
<path d="M1807.86 1838.26C1807.86 1845.75 1805.05 1853.25 1799.36 1858.94L1585.17 2073.13C1573.78 2084.52 1555.26 2084.52 1543.87 2073.13C1538.32 2067.58 1535.3 2060.23 1535.3 2052.45C1535.3 2044.67 1538.32 2037.32 1543.87 2031.77L1758.06 1817.58C1763.61 1812.03 1770.89 1809 1778.75 1809C1786.53 1809 1793.88 1812.03 1799.43 1817.58C1805.05 1823.34 1807.86 1830.76 1807.86 1838.26ZM1536.74 2052.45C1536.74 2059.87 1539.62 2066.86 1544.88 2072.05C1555.69 2082.86 1573.35 2082.86 1584.16 2072.05L1798.35 1857.86C1809.16 1847.05 1809.16 1829.39 1798.35 1818.58C1793.09 1813.32 1786.1 1810.44 1778.75 1810.44C1771.32 1810.44 1764.33 1813.32 1759.14 1818.58L1544.88 2032.85C1539.62 2038.04 1536.74 2045.03 1536.74 2052.45Z" fill="#00F0B5"/>
<path d="M1742.57 1846.91C1742.57 1854.4 1739.76 1861.9 1734.06 1867.59L1519.87 2081.78C1508.49 2093.17 1489.96 2093.17 1478.58 2081.78C1473.03 2076.23 1470 2068.88 1470 2061.1C1470 2053.31 1473.03 2045.96 1478.58 2040.41L1692.77 1826.22C1698.32 1820.67 1705.6 1817.65 1713.45 1817.65C1721.23 1817.65 1728.59 1820.67 1734.13 1826.22C1739.76 1831.99 1742.57 1839.41 1742.57 1846.91ZM1471.44 2061.1C1471.44 2068.52 1474.32 2075.51 1479.59 2080.7C1490.4 2091.51 1508.05 2091.51 1518.86 2080.7L1733.05 1866.51C1743.86 1855.7 1743.86 1838.04 1733.05 1827.23C1727.79 1821.97 1720.8 1819.09 1713.45 1819.09C1706.03 1819.09 1699.04 1821.97 1693.85 1827.23L1479.59 2041.5C1474.32 2046.68 1471.44 2053.67 1471.44 2061.1Z" fill="#00F0B5"/>
</g>
<g opacity="0.3">
<path d="M227.002 4723C227.002 4730.95 224.024 4738.89 217.991 4744.92L-8.96587 4971.88C-21.0316 4983.94 -40.6574 4983.94 -52.7231 4971.88C-58.6032 4966 -61.8105 4958.21 -61.8105 4949.96C-61.8105 4941.71 -58.6032 4933.92 -52.7231 4928.04L174.234 4701.09C180.114 4695.21 187.827 4692 196.151 4692C204.398 4692 212.188 4695.21 218.068 4701.09C224.024 4707.2 227.002 4715.06 227.002 4723ZM-60.2832 4949.96C-60.2832 4957.83 -57.2286 4965.23 -51.654 4970.73C-40.1992 4982.19 -21.4898 4982.19 -10.035 4970.73L216.922 4743.78C228.377 4732.32 228.377 4713.61 216.922 4702.16C211.348 4696.58 203.94 4693.53 196.151 4693.53C188.285 4693.53 180.878 4696.58 175.38 4702.16L-51.654 4929.19C-57.2286 4934.69 -60.2832 4942.1 -60.2832 4949.96Z" fill="#00F0B5"/>
<path d="M157.813 4732.17C157.813 4740.11 154.835 4748.05 148.802 4754.09L-78.1553 4981.04C-90.221 4993.11 -109.847 4993.11 -121.913 4981.04C-127.793 4975.16 -131 4967.37 -131 4959.13C-131 4950.88 -127.793 4943.09 -121.913 4937.21L105.045 4710.25C110.925 4704.37 118.638 4701.16 126.961 4701.16C135.209 4701.16 142.998 4704.37 148.878 4710.25C154.835 4716.36 157.813 4724.23 157.813 4732.17ZM-129.473 4959.13C-129.473 4966.99 -126.418 4974.4 -120.843 4979.9C-109.389 4991.35 -90.6792 4991.35 -79.2244 4979.9L147.733 4752.94C159.188 4741.49 159.188 4722.78 147.733 4711.32C142.158 4705.75 134.751 4702.69 126.961 4702.69C119.096 4702.69 111.688 4705.75 106.19 4711.32L-120.843 4938.35C-126.418 4943.85 -129.473 4951.26 -129.473 4959.13Z" fill="#00F0B5"/>
</g>
<g opacity="0.3">
<path d="M183.822 29.0886C183.822 36.5399 181.028 43.9912 175.368 49.6513L-37.5668 262.586C-48.887 273.906 -67.3003 273.906 -78.6205 262.586C-84.1373 257.069 -87.1465 249.761 -87.1465 242.023C-87.1465 234.285 -84.1373 226.977 -78.6205 221.461L134.314 8.52597C139.831 3.00915 147.067 -2.79297e-06 154.877 -2.8861e-06C162.615 -2.97837e-06 169.923 3.00915 175.44 8.52597C181.028 14.2577 183.822 21.6373 183.822 29.0886ZM-85.7135 242.023C-85.7135 249.403 -82.8477 256.353 -77.6174 261.511C-66.8704 272.258 -49.3169 272.258 -38.5699 261.511L174.365 48.5766C185.112 37.8296 185.112 20.2761 174.365 9.52902C169.135 4.29879 162.185 1.43292 154.877 1.43292C147.497 1.43292 140.548 4.29879 135.389 9.52902L-77.6174 222.535C-82.8477 227.694 -85.7135 234.644 -85.7135 242.023Z" fill="#00F0B5"/>
<path d="M168.969 99.0115C168.969 106.463 166.175 113.914 160.514 119.574L-52.4203 332.509C-63.7405 343.829 -82.1538 343.829 -93.474 332.509C-98.9908 326.992 -102 319.684 -102 311.946C-102 304.208 -98.9908 296.9 -93.474 291.384L119.461 78.4488C124.978 72.932 132.214 69.9228 140.023 69.9228C147.761 69.9228 155.069 72.932 160.586 78.4488C166.175 84.1806 168.969 91.5602 168.969 99.0115ZM-100.567 311.946C-100.567 319.326 -97.7012 326.276 -92.471 331.434C-81.7239 342.181 -64.1704 342.181 -53.4234 331.434L159.511 118.499C170.258 107.752 170.258 90.1989 159.511 79.4519C154.281 74.2216 147.331 71.3558 140.023 71.3558C132.644 71.3558 125.694 74.2216 120.535 79.4519L-92.471 292.458C-97.7012 297.617 -100.567 304.567 -100.567 311.946Z" fill="#00F0B5"/>
</g>
<g opacity="0.4">
<path d="M291.564 1340.67C285.611 1334.49 279.594 1328.03 273.485 1321.47C253.758 1300.28 233.064 1278.05 210.398 1261.09C180.736 1238.89 147.79 1225.77 109.359 1235.86C72.0533 1245.64 53.5096 1275.29 38.3328 1310.24C34.54 1318.97 30.9613 1328.03 27.3522 1337.18L27.0957 1337.83C23.5716 1346.77 20.0134 1355.79 16.1984 1364.68C8.3837 1382.88 -0.519318 1400.54 -12.4508 1415.76C-25.5305 1432.45 -42.79 1446.87 -61.2411 1460.32C-70.4681 1467.05 -79.9996 1473.54 -89.4603 1479.96L-91.3294 1481.23C-100.159 1487.21 -108.905 1493.14 -117.272 1499.16C-153.141 1524.93 -181.831 1552.04 -180.194 1591C-178.447 1632.59 -153.822 1670.08 -118.667 1698.13C-83.5154 1726.18 -37.8914 1744.75 5.72621 1748.52C43.3382 1751.78 73.9629 1732.03 103.7 1706.22C112.675 1698.43 121.547 1690.11 130.502 1681.71C136.39 1676.19 142.314 1670.63 148.327 1665.17C163.466 1651.42 179.131 1638.31 196.073 1628.01C212.318 1618.13 230.714 1610.66 249.503 1603.94C256.952 1601.27 264.454 1598.73 271.911 1596.2C283.286 1592.34 294.554 1588.52 305.356 1584.36C341.111 1570.6 371.41 1553.29 382.675 1519.33C394.402 1483.99 383.971 1452.11 364.409 1422.65C348.461 1398.63 326.487 1376.28 305.58 1355.01C300.825 1350.18 296.125 1345.4 291.564 1340.67Z" stroke="#00F0B5"/>
<path d="M246.089 1372.22C241.399 1367.36 236.66 1362.27 231.849 1357.1C216.319 1340.42 200.034 1322.93 182.197 1309.58C158.857 1292.11 132.949 1281.8 102.733 1289.73C73.4119 1297.42 58.8296 1320.72 46.8825 1348.23C43.8971 1355.11 41.0801 1362.23 38.2385 1369.44L38.0363 1369.95C35.2618 1376.99 32.4597 1384.1 29.4553 1391.09C23.3011 1405.43 16.287 1419.34 6.88432 1431.34C-3.42302 1444.49 -17.0215 1455.85 -31.5516 1466.44C-38.818 1471.74 -46.324 1476.86 -53.7727 1481.91C-54.2627 1482.24 -54.7524 1482.57 -55.2417 1482.9C-62.1945 1487.62 -69.0801 1492.29 -75.6677 1497.02C-103.912 1517.31 -126.45 1538.63 -125.164 1569.24C-123.79 1601.94 -104.425 1631.43 -76.7608 1653.51C-49.0999 1675.58 -13.1976 1690.19 21.1232 1693.16C50.6914 1695.72 74.7743 1680.2 98.1838 1659.89C105.249 1653.75 112.231 1647.2 119.28 1640.59C123.916 1636.24 128.581 1631.87 133.319 1627.57C145.24 1616.74 157.58 1606.41 170.927 1598.29C183.727 1590.51 198.22 1584.62 213.015 1579.33C218.883 1577.23 224.791 1575.23 230.662 1573.24C239.617 1570.2 248.484 1567.19 256.988 1563.92C285.136 1553.09 308.948 1539.47 317.801 1512.79C327.02 1485 318.824 1459.94 303.431 1436.76C290.881 1417.86 273.589 1400.27 257.128 1383.52C253.384 1379.71 249.682 1375.95 246.089 1372.22Z" stroke="#00F0B5"/>
<path d="M213.236 1395.02C209.458 1391.1 205.642 1387.01 201.769 1382.85C189.27 1369.42 176.172 1355.35 161.823 1344.61C143.051 1330.56 122.229 1322.29 97.949 1328.66C74.3965 1334.83 62.6763 1353.55 53.0628 1375.68C50.6608 1381.22 48.3941 1386.95 46.1069 1392.75L45.9447 1393.16C43.7116 1398.83 41.4556 1404.55 39.0367 1410.18C34.0822 1421.72 28.4329 1432.93 20.8574 1442.6C12.5531 1453.19 1.59971 1462.34 -10.0974 1470.87C-15.9472 1475.13 -21.9897 1479.25 -27.9847 1483.32C-28.379 1483.58 -28.773 1483.85 -29.1668 1484.12C-34.763 1487.91 -40.3038 1491.67 -45.6046 1495.48C-68.3393 1511.81 -86.4335 1528.94 -85.4006 1553.52C-84.296 1579.8 -68.7314 1603.51 -46.4797 1621.27C-24.231 1639.02 4.64723 1650.78 32.2508 1653.17C56.0071 1655.22 75.3635 1642.76 94.2011 1626.41C99.8871 1621.47 105.503 1616.2 111.175 1610.88C114.907 1607.38 118.662 1603.86 122.478 1600.39C132.074 1591.68 142.011 1583.36 152.762 1576.82C163.072 1570.55 174.744 1565.81 186.654 1561.55C191.38 1559.86 196.137 1558.25 200.862 1556.65C208.067 1554.2 215.2 1551.78 222.043 1549.15C244.696 1540.43 263.821 1529.49 270.93 1508.06C278.337 1485.73 271.756 1465.59 259.377 1446.95C249.281 1431.75 235.372 1417.6 222.124 1404.12C219.109 1401.06 216.129 1398.02 213.236 1395.02Z" stroke="#00F0B5"/>
</g>
<path d="M1554.85 841.327C1600.19 907.032 1613.26 1011.52 1706.65 1017.57C1799.83 1023.6 1858.79 914.571 1944.13 866.537C2037.1 814.202 2199.31 817.96 2220.19 728.5C2241.5 637.259 2076.24 627.714 2015.25 561.883C1966.69 509.462 1991.32 385.149 1906.95 390.361C1817.4 395.894 1768.64 479.756 1688.32 524.624C1598.89 574.581 1504.48 567.119 1450.02 645.599C1399.42 718.518 1510.9 777.617 1554.85 841.327Z" fill="url(#paint0_linear_2199_199)"/>
<g opacity="0.4">
<path d="M-134.699 6620.2C-140.008 6627.46 -145.601 6634.83 -151.281 6642.31C-169.623 6666.47 -188.867 6691.83 -202.321 6718.27C-219.928 6752.88 -227.563 6789.25 -210.263 6827.13C-193.469 6863.91 -159.525 6877.74 -120.721 6887.15C-111.023 6889.5 -101.032 6891.57 -90.9355 6893.66L-90.2159 6893.81C-80.3574 6895.85 -70.4037 6897.9 -60.5453 6900.25C-40.3498 6905.05 -20.5256 6911.08 -2.67146 6920.67C16.9009 6931.18 34.876 6946.42 52.0733 6963.06C60.6733 6971.38 69.0843 6980.06 77.4053 6988.67C77.9521 6989.24 78.4986 6989.81 79.0446 6990.37C86.81 6998.42 94.5021 7006.39 102.21 7013.95C135.246 7046.37 168.391 7071.14 208.337 7062.46C250.974 7053.2 285.269 7021.05 307.934 6979.73C330.598 6938.4 341.596 6887.96 337.678 6842.25C334.299 6802.82 308.417 6774.73 276.438 6748.65C266.786 6740.78 256.604 6733.11 246.327 6725.37C239.569 6720.28 232.771 6715.16 226.055 6709.93C209.146 6696.77 192.804 6682.94 179.133 6667.3C166.024 6652.3 155.01 6634.65 144.703 6616.45C140.617 6609.24 136.646 6601.95 132.699 6594.7C126.677 6583.65 120.712 6572.7 114.484 6562.29C93.8697 6527.84 70.557 6499.65 33.4684 6494.1C-5.13843 6488.33 -36.1882 6504.82 -63.1036 6530.3C-85.0455 6551.07 -104.187 6577.76 -122.397 6603.16C-126.539 6608.94 -130.632 6614.65 -134.699 6620.2Z" stroke="#00F0B5"/>
<path d="M-93.9678 6661.5C-98.1497 6667.21 -102.555 6673.02 -107.028 6678.91C-121.469 6697.93 -136.612 6717.89 -147.2 6738.7C-161.056 6765.93 -167.054 6794.53 -153.452 6824.32C-140.251 6853.23 -113.57 6864.11 -83.0237 6871.51C-75.3904 6873.36 -67.5257 6875 -59.5761 6876.64L-59.0107 6876.75C-51.2486 6878.36 -43.4095 6879.98 -35.6454 6881.83C-19.7412 6885.61 -4.12218 6890.36 9.94727 6897.92C25.3705 6906.2 39.5314 6918.2 53.0741 6931.31C59.8466 6937.86 66.4702 6944.69 73.0215 6951.48C73.452 6951.92 73.8821 6952.37 74.312 6952.81C80.4262 6959.15 86.4817 6965.42 92.5496 6971.37C118.562 6996.9 144.619 7016.36 176.009 7009.54C209.538 7002.26 236.518 6976.98 254.355 6944.45C272.19 6911.93 280.844 6872.24 277.761 6836.27C275.105 6805.27 254.757 6783.18 229.583 6762.65C221.985 6756.46 213.971 6750.42 205.881 6744.33C200.561 6740.32 195.207 6736.29 189.916 6732.17C176.601 6721.8 163.728 6710.91 152.958 6698.59C142.629 6686.77 133.953 6672.86 125.837 6658.53C122.618 6652.85 119.49 6647.11 116.383 6641.41C111.643 6632.71 106.948 6624.09 102.045 6615.89C85.8166 6588.77 67.484 6566.62 38.3352 6562.26C7.98401 6557.72 -16.4312 6570.68 -37.6101 6590.73C-54.8778 6607.07 -69.9411 6628.08 -84.2785 6648.08C-87.54 6652.63 -90.764 6657.12 -93.9678 6661.5Z" stroke="#00F0B5"/>
<path d="M-64.5398 6691.33C-67.9079 6695.93 -71.4553 6700.61 -75.0563 6705.35C-86.6777 6720.66 -98.858 6736.71 -107.376 6753.45C-118.52 6775.36 -123.337 6798.34 -112.406 6822.28C-101.801 6845.5 -80.3686 6854.25 -55.7882 6860.21C-49.6464 6861.7 -43.3181 6863.01 -36.9197 6864.34L-36.4658 6864.43C-30.2183 6865.72 -23.9072 6867.02 -17.6562 6868.51C-4.85247 6871.56 7.72816 6875.38 19.0631 6881.47C31.4884 6888.14 42.8936 6897.81 53.7956 6908.36C59.2478 6913.63 64.5799 6919.14 69.8527 6924.6C70.1995 6924.96 70.5461 6925.32 70.8925 6925.67C75.8133 6930.77 80.6856 6935.82 85.5679 6940.61C106.506 6961.16 127.443 6976.78 152.649 6971.3C179.598 6965.45 201.294 6945.13 215.641 6918.97C229.987 6892.81 236.948 6860.88 234.468 6831.95C232.334 6807.04 215.986 6789.28 195.728 6772.76C189.613 6767.78 183.167 6762.92 176.657 6758.02C172.375 6754.79 168.065 6751.55 163.804 6748.23C153.085 6739.88 142.719 6731.12 134.044 6721.19C125.724 6711.67 118.738 6700.47 112.204 6688.94C109.612 6684.36 107.094 6679.74 104.593 6675.15C100.778 6668.15 97.0025 6661.21 93.0569 6654.62C79.9966 6632.79 65.2621 6615 41.85 6611.5C17.4638 6607.85 -2.15775 6618.26 -19.1919 6634.38C-33.0824 6647.53 -45.1993 6664.43 -56.7386 6680.53C-59.3642 6684.19 -61.9599 6687.81 -64.5398 6691.33Z" stroke="#00F0B5"/>
</g>
</g>
<defs>
<linearGradient id="paint0_linear_2199_199" x1="1504.36" y1="1090.86" x2="1882.3" y2="510.965" gradientUnits="userSpaceOnUse">
<stop stop-color="#F4F5F7" stop-opacity="0"/>
<stop offset="1" stop-color="#F4F5F7"/>
</linearGradient>
<clipPath id="clip0_2199_199">
<rect width="1920" height="6919" fill="white"/>
</clipPath>
</defs>
</svg>
