<svg width="2123" height="522" viewBox="0 0 2123 522" fill="none" xmlns="http://www.w3.org/2000/svg">
<rect width="1920" height="522" transform="translate(203)" fill="#F4F5F7"/>
<g opacity="0.4">
<path d="M251.861 441.234C237.872 465.092 222.667 479.724 206.278 485.265C189.915 490.798 172.254 487.307 153.249 474.655C115.082 449.246 82.15 424.069 54.4496 399.124C26.8352 374.256 9.58713 338.485 2.7448 291.755C-4.08448 245.113 10.8795 201.511 47.7144 160.923C66.1338 140.626 85.2417 126.965 105.033 119.903C124.818 112.843 145.314 112.368 166.537 118.487C209.166 130.778 245.472 142.58 275.456 153.894C305.33 165.166 329.393 186.994 347.639 219.425C356.739 235.599 360.188 251.927 358.012 268.422C355.836 284.923 348.025 301.632 334.536 318.552C307.459 352.516 279.901 393.411 251.861 441.234Z" stroke="#00F0B5"/>
<path d="M236.604 410.348C225.244 429.716 212.909 441.58 199.633 446.075C186.383 450.561 172.077 447.746 156.669 437.49C125.697 416.876 98.9755 396.449 76.5012 376.209C54.113 356.047 40.1316 327.032 34.5966 289.108C29.0747 251.273 41.2265 215.892 71.1296 182.939C86.0832 166.461 101.588 155.372 117.64 149.638C133.685 143.905 150.304 143.512 167.513 148.467C202.114 158.43 231.58 167.998 255.915 177.172C280.139 186.304 299.65 204.001 314.441 230.31C321.814 243.424 324.602 256.659 322.833 270.03C321.062 283.408 314.724 296.962 303.775 310.696C281.777 338.287 259.387 371.505 236.604 410.348Z" stroke="#00F0B5"/>
<path d="M227.264 391.36C217.528 407.96 206.963 418.115 195.603 421.961C184.27 425.799 172.027 423.394 158.828 414.609C132.274 396.936 109.365 379.423 90.0983 362.072C70.9176 344.798 58.9353 319.937 54.1913 287.432C49.4603 255.016 59.8699 224.7 85.4977 196.459C98.3136 182.336 111.599 172.837 125.347 167.925C139.09 163.015 153.324 162.678 168.066 166.922C197.732 175.464 222.996 183.668 243.859 191.533C264.61 199.356 281.327 214.517 294.003 237.062C300.317 248.295 302.704 259.628 301.189 271.075C299.674 282.529 294.246 294.139 284.864 305.908C266 329.568 246.8 358.053 227.264 391.36Z" stroke="#00F0B5"/>
</g>
</svg>
