<svg width="1920" height="1626" viewBox="0 0 1920 1626" fill="none" xmlns="http://www.w3.org/2000/svg">
<g clip-path="url(#clip0_2198_2305)">
<rect width="1920" height="1626" fill="#F4F5F7"/>
<g opacity="0.3">
<path d="M1776.6 733.508C1776.6 724.716 1779.9 715.925 1786.58 709.247L2037.81 458.017C2051.16 444.661 2072.89 444.661 2086.25 458.017C2092.75 464.526 2096.3 473.148 2096.3 482.278C2096.3 491.407 2092.75 500.03 2086.25 506.539L1835.02 757.768C1828.51 764.277 1819.97 767.828 1810.75 767.828C1801.63 767.828 1793 764.277 1786.49 757.768C1779.9 751.006 1776.6 742.299 1776.6 733.508ZM2094.61 482.278C2094.61 473.571 2091.23 465.371 2085.06 459.285C2072.38 446.605 2051.67 446.605 2038.99 459.285L1787.76 710.515C1775.08 723.195 1775.08 743.905 1787.76 756.585C1793.93 762.756 1802.13 766.137 1810.75 766.137C1819.46 766.137 1827.66 762.756 1833.75 756.585L2085.06 505.271C2091.23 499.184 2094.61 490.985 2094.61 482.278Z" fill="#00F0B5"/>
<path d="M1761 802.508C1761 793.716 1764.3 784.925 1770.98 778.247L2022.2 527.017C2035.56 513.661 2057.29 513.661 2070.64 527.017C2077.15 533.526 2080.7 542.148 2080.7 551.278C2080.7 560.407 2077.15 569.03 2070.64 575.539L1819.41 826.768C1812.9 833.277 1804.37 836.828 1795.15 836.828C1786.02 836.828 1777.4 833.277 1770.89 826.768C1764.3 820.006 1761 811.299 1761 802.508ZM2079.01 551.278C2079.01 542.571 2075.63 534.371 2069.46 528.285C2056.78 515.605 2036.07 515.605 2023.39 528.285L1772.16 779.515C1759.48 792.195 1759.48 812.905 1772.16 825.585C1778.33 831.756 1786.53 835.137 1795.15 835.137C1803.86 835.137 1812.06 831.756 1818.14 825.585L2069.46 574.271C2075.63 568.184 2079.01 559.985 2079.01 551.278Z" fill="#00F0B5"/>
</g>
<g opacity="0.4">
<path d="M-83.838 -159.101C-89.0927 -151.922 -94.6295 -144.628 -100.252 -137.22C-118.408 -113.3 -137.456 -88.2046 -150.774 -62.0289C-168.202 -27.7732 -175.759 8.23029 -158.635 45.7268C-142.012 82.1261 -108.415 95.8208 -70.0043 105.132C-60.405 107.46 -50.5151 109.511 -40.5211 111.576L-39.8089 111.723C-30.0504 113.739 -20.1974 115.775 -10.4388 118.097C9.55207 122.854 29.1758 128.821 46.8495 138.313C66.224 148.719 84.0172 163.8 101.04 180.27C109.553 188.507 117.879 197.096 126.116 205.627C126.657 206.188 127.198 206.748 127.739 207.309C135.426 215.272 143.039 223.159 150.669 230.646C183.37 262.733 216.177 287.253 255.715 278.666C297.917 269.501 331.864 237.679 354.299 196.771C376.733 155.867 387.619 105.941 383.741 60.6888C380.397 21.6628 354.778 -6.13765 323.124 -31.9517C313.57 -39.7427 303.491 -47.3342 293.318 -54.9963C286.629 -60.0345 279.899 -65.1032 273.252 -70.2792C256.513 -83.3123 240.337 -96.9962 226.804 -112.482C213.828 -127.331 202.926 -144.805 192.723 -162.815C188.678 -169.954 184.747 -177.17 180.84 -184.342C174.879 -195.284 168.975 -206.123 162.81 -216.426C142.405 -250.528 119.33 -278.429 82.6198 -283.921C44.4065 -289.637 13.6731 -273.318 -12.9688 -248.096C-34.6879 -227.535 -53.6347 -201.111 -71.6603 -175.971C-75.7599 -170.253 -79.8119 -164.602 -83.838 -159.101Z" stroke="#00F0B5"/>
<path d="M-43.5194 -118.225C-47.6591 -112.569 -52.0201 -106.823 -56.4478 -100.99C-70.7418 -82.1577 -85.7309 -62.4099 -96.2117 -41.8099C-109.926 -14.8544 -115.864 13.4575 -102.4 42.94C-89.3336 71.5509 -62.9259 82.3229 -32.6893 89.6531C-25.1334 91.4848 -17.3485 93.0995 -9.47955 94.7254L-8.9235 94.8403C-1.23891 96.4279 6.52196 98.0313 14.2087 99.8605C29.9518 103.607 45.413 108.307 59.3403 115.787C74.6078 123.988 88.6256 135.869 102.031 148.84C108.735 155.326 115.291 162.09 121.776 168.806C122.203 169.248 122.629 169.689 123.055 170.13C129.107 176.4 135.1 182.61 141.106 188.503C166.855 213.769 192.647 233.03 223.714 226.283C256.902 219.075 283.608 194.048 301.263 161.856C318.916 129.668 327.483 90.3791 324.432 54.7717C321.802 24.0903 301.663 2.22602 276.744 -18.0952C269.222 -24.2287 261.29 -30.203 253.283 -36.2344C248.016 -40.2013 242.716 -44.1928 237.479 -48.2706C224.299 -58.5335 211.556 -69.3123 200.894 -81.5124C190.67 -93.2118 182.082 -106.978 174.048 -121.159C170.862 -126.784 167.766 -132.467 164.69 -138.114C159.998 -146.727 155.351 -155.256 150.498 -163.367C134.434 -190.215 116.288 -212.142 87.4373 -216.458C57.396 -220.952 33.2299 -208.126 12.2663 -188.28C-4.82596 -172.099 -19.7362 -151.304 -33.9283 -131.511C-37.1567 -127.008 -40.348 -122.557 -43.5194 -118.225Z" stroke="#00F0B5"/>
<path d="M-14.3894 -88.6919C-17.7235 -84.1367 -21.235 -79.5103 -24.7996 -74.814C-36.303 -59.6584 -48.3595 -43.7742 -56.7907 -27.2027C-67.8216 -5.52178 -72.5891 17.2327 -61.7693 40.925C-51.2732 63.9085 -30.0604 72.5689 -5.7295 78.4673C0.349911 79.9411 6.61396 81.2404 12.9475 82.549L13.399 82.6423C19.5824 83.9198 25.8289 85.2104 32.0159 86.6827C44.6899 89.6988 57.1435 93.4841 68.3641 99.5106C80.6641 106.117 91.954 115.687 102.746 126.129C108.143 131.35 113.421 136.796 118.64 142.201C118.984 142.557 119.327 142.913 119.67 143.268C124.541 148.314 129.363 153.31 134.196 158.052C154.922 178.389 175.644 193.851 200.592 188.433C227.266 182.64 248.741 162.522 262.942 136.628C277.142 110.737 284.032 79.134 281.578 50.4949C279.465 25.8426 263.284 8.2674 243.232 -8.08518C237.179 -13.0211 230.798 -17.8269 224.355 -22.68C220.116 -25.8729 215.849 -29.0862 211.632 -32.3704C201.022 -40.6317 190.76 -49.3116 182.173 -59.1379C173.937 -68.5617 167.021 -79.6482 160.554 -91.0638C157.988 -95.5939 155.495 -100.169 153.019 -104.714C149.244 -111.645 145.506 -118.506 141.601 -125.033C128.673 -146.639 114.089 -164.25 90.9168 -167.716C66.78 -171.327 47.3589 -161.025 30.4981 -145.063C16.7488 -132.046 4.75517 -115.319 -6.66715 -99.3892C-9.26617 -95.7645 -11.8356 -92.181 -14.3894 -88.6919Z" stroke="#00F0B5"/>
</g>
</g>
<defs>
<clipPath id="clip0_2198_2305">
<rect width="1920" height="1626" fill="white"/>
</clipPath>
</defs>
</svg>
