<svg width="2253" height="984" viewBox="0 0 2253 984" fill="none" xmlns="http://www.w3.org/2000/svg">
<rect width="1920" height="984" transform="translate(110)" fill="#F4F5F7"/>
<g opacity="0.3">
<path d="M285.822 636.09C285.822 643.541 283.028 650.992 277.368 656.652L64.4332 869.587C53.113 880.907 34.6997 880.907 23.3795 869.587C17.8627 864.07 14.8535 856.762 14.8535 849.024C14.8535 841.286 17.8627 833.978 23.3795 828.462L236.314 615.527C241.831 610.01 249.067 607.001 256.877 607.001C264.615 607.001 271.923 610.01 277.44 615.527C283.028 621.259 285.822 628.638 285.822 636.09ZM16.2865 849.024C16.2865 856.404 19.1523 863.354 24.3826 868.512C35.1296 879.259 52.6831 879.259 63.4301 868.512L276.365 655.578C287.112 644.831 287.112 627.277 276.365 616.53C271.135 611.3 264.185 608.434 256.877 608.434C249.497 608.434 242.548 611.3 237.389 616.53L24.3826 829.536C19.1523 834.695 16.2865 841.645 16.2865 849.024Z" fill="#00F0B5"/>
<path d="M270.969 706.012C270.969 713.464 268.175 720.915 262.514 726.575L49.5797 939.51C38.2595 950.83 19.8462 950.83 8.52599 939.51C3.00917 933.993 -2.54178e-07 926.685 -3.46452e-07 918.947C-4.38725e-07 911.209 3.00917 903.901 8.52599 898.384L221.461 685.45C226.978 679.933 234.214 676.924 242.023 676.924C249.761 676.924 257.069 679.933 262.586 685.45C268.175 691.182 270.969 698.561 270.969 706.012ZM1.43294 918.947C1.43294 926.327 4.29882 933.277 9.52904 938.435C20.2761 949.182 37.8296 949.182 48.5766 938.435L261.511 725.5C272.258 714.753 272.258 697.2 261.511 686.453C256.281 681.223 249.331 678.357 242.023 678.357C234.644 678.357 227.694 681.223 222.535 686.453L9.52904 899.459C4.29882 904.618 1.43294 911.568 1.43294 918.947Z" fill="#00F0B5"/>
</g>
<g opacity="0.4">
<path d="M1884.65 604.78C1877.92 599.675 1870.91 594.542 1863.79 589.329C1840.79 572.497 1816.66 554.84 1797.45 534.646C1772.31 508.219 1755.68 477.53 1761.08 438.793C1766.33 401.192 1793.16 379.631 1825.57 360.746C1833.67 356.026 1842.11 351.479 1850.64 346.891L1851.25 346.564C1859.58 342.084 1867.99 337.56 1876.23 332.801C1893.12 323.053 1909.36 312.303 1922.86 298.874C1937.66 284.153 1949.76 265.609 1960.77 246.012C1966.28 236.212 1971.53 226.142 1976.7 216.149C1977.04 215.492 1977.38 214.836 1977.72 214.18C1982.56 204.853 1987.34 195.614 1992.25 186.736C2013.29 148.683 2036.47 117.498 2074.75 114.587C2115.61 111.479 2155.11 131.211 2186.6 162.33C2218.09 193.446 2241.53 235.898 2250.28 278.102C2257.82 314.493 2242.06 346.718 2220.27 378.779C2213.69 388.456 2206.59 398.093 2199.41 407.82C2194.69 414.217 2189.95 420.652 2185.3 427.163C2173.62 443.557 2162.61 460.391 2154.5 478.147C2146.73 495.174 2141.55 514.026 2137.15 533.173C2135.41 540.764 2133.79 548.394 2132.18 555.976C2129.73 567.544 2127.3 579.002 2124.49 590.045C2115.18 626.594 2101.76 658.217 2069.87 673.162C2036.67 688.719 2004.3 682.214 1973.24 666.502C1947.91 653.692 1923.51 634.798 1900.3 616.822C1895.02 612.733 1889.8 608.692 1884.65 604.78Z" stroke="#00F0B5"/>
<path d="M1910.23 556.673C1904.93 552.65 1899.41 548.607 1893.8 544.502C1875.69 531.25 1856.71 517.356 1841.59 501.464C1821.81 480.67 1808.73 456.537 1812.98 426.082C1817.11 396.529 1838.19 379.575 1863.71 364.709C1870.08 360.995 1876.72 357.415 1883.44 353.802L1883.92 353.545C1890.48 350.018 1897.1 346.455 1903.59 342.707C1916.9 335.03 1929.69 326.561 1940.33 315.978C1951.99 304.378 1961.52 289.767 1970.2 274.334C1974.53 266.616 1978.66 258.686 1982.74 250.819C1983.01 250.301 1983.28 249.785 1983.54 249.268C1987.35 241.924 1991.11 234.652 1994.98 227.663C2011.55 197.7 2029.78 173.2 2059.85 170.912C2091.98 168.469 2123.05 183.984 2147.83 208.472C2172.61 232.958 2191.06 266.364 2197.94 299.572C2203.86 328.179 2191.48 353.519 2174.33 378.758C2169.15 386.376 2163.56 393.96 2157.91 401.617C2154.19 406.653 2150.46 411.721 2146.8 416.851C2137.59 429.76 2128.93 443.021 2122.54 457.01C2116.41 470.426 2112.33 485.278 2108.87 500.355C2107.5 506.336 2106.22 512.344 2104.95 518.315C2103.02 527.42 2101.11 536.437 2098.9 545.13C2091.57 573.904 2081.01 598.757 2055.95 610.501C2029.86 622.73 2004.41 617.621 1979.96 605.258C1960.03 595.178 1940.84 580.31 1922.56 566.156C1918.4 562.937 1914.29 559.754 1910.23 556.673Z" stroke="#00F0B5"/>
<path d="M1928.71 521.913C1924.44 518.674 1919.99 515.418 1915.48 512.113C1900.91 501.449 1885.64 490.273 1873.47 477.489C1857.57 460.765 1847.06 441.369 1850.48 416.897C1853.79 393.159 1870.73 379.535 1891.25 367.573C1896.38 364.584 1901.73 361.704 1907.13 358.796L1907.52 358.589C1912.8 355.75 1918.13 352.882 1923.36 349.865C1934.07 343.684 1944.37 336.863 1952.94 328.336C1962.34 318.99 1970.01 307.221 1977 294.797C1980.49 288.584 1983.81 282.2 1987.1 275.868C1987.31 275.452 1987.53 275.035 1987.74 274.62C1990.8 268.709 1993.84 262.857 1996.95 257.233C2010.28 233.115 2024.93 213.445 2049.07 211.609C2074.9 209.645 2099.88 222.114 2119.81 241.811C2139.74 261.505 2154.58 288.376 2160.11 315.084C2164.87 338.068 2154.93 358.433 2141.13 378.743C2136.96 384.873 2132.46 390.974 2127.92 397.135C2124.93 401.188 2121.92 405.268 2118.97 409.4C2111.56 419.791 2104.58 430.47 2099.43 441.738C2094.5 452.545 2091.21 464.506 2088.43 476.643C2087.32 481.46 2086.3 486.298 2085.28 491.103C2083.72 498.43 2082.18 505.682 2080.4 512.678C2074.5 535.834 2066.02 555.795 2045.89 565.227C2024.93 575.052 2004.48 570.952 1984.82 561.008C1968.79 552.9 1953.35 540.94 1938.64 529.549C1935.29 526.957 1931.98 524.395 1928.71 521.913Z" stroke="#00F0B5"/>
</g>
</svg>
