<svg width="1920" height="3741" viewBox="0 0 1920 3741" fill="none" xmlns="http://www.w3.org/2000/svg">
<g clip-path="url(#clip0_2201_117)">
<path d="M287.514 3116.47C324.138 3187.39 410.165 3248.12 371.531 3333.36C332.983 3418.41 209.032 3419.09 126.477 3471.76C36.5293 3529.15 -36.5245 3674.02 -125.282 3650.32C-215.806 3626.16 -146.42 3475.87 -175.786 3391.07C-199.169 3323.55 -320.435 3286.74 -276.116 3214.77C-229.07 3138.37 -132.131 3134.84 -54.729 3085.1C31.4508 3029.72 69.3195 2942.92 164.196 2931.82C252.35 2921.52 252.002 3047.69 287.514 3116.47Z" fill="url(#paint0_linear_2201_117)"/>
<g opacity="0.3">
<path d="M1655 2079.47C1655 2089.33 1658.7 2099.18 1666.18 2106.67L1947.81 2388.29C1962.78 2403.26 1987.13 2403.26 2002.1 2388.29C2009.4 2380.99 2013.38 2371.33 2013.38 2361.09C2013.38 2350.86 2009.4 2341.2 2002.1 2333.9L1720.48 2052.28C1713.18 2044.98 1703.61 2041 1693.28 2041C1683.05 2041 1673.38 2044.98 1666.09 2052.28C1658.7 2059.86 1655 2069.62 1655 2079.47ZM2011.48 2361.09C2011.48 2370.85 2007.69 2380.05 2000.78 2386.87C1986.56 2401.08 1963.35 2401.08 1949.13 2386.87L1667.51 2105.25C1653.3 2091.03 1653.3 2067.82 1667.51 2053.6C1674.43 2046.68 1683.62 2042.89 1693.28 2042.89C1703.04 2042.89 1712.24 2046.68 1719.06 2053.6L2000.78 2335.32C2007.69 2342.14 2011.48 2351.33 2011.48 2361.09Z" fill="#00F0B5"/>
<path d="M1674.64 2171.95C1674.64 2181.81 1678.34 2191.66 1685.82 2199.15L1967.45 2480.77C1982.42 2495.74 2006.77 2495.74 2021.74 2480.77C2029.04 2473.47 2033.02 2463.81 2033.02 2453.58C2033.02 2443.34 2029.04 2433.68 2021.74 2426.38L1740.12 2144.76C1732.82 2137.46 1723.25 2133.48 1712.92 2133.48C1702.69 2133.48 1693.02 2137.46 1685.73 2144.76C1678.34 2152.34 1674.64 2162.1 1674.64 2171.95ZM2031.12 2453.58C2031.12 2463.34 2027.33 2472.53 2020.42 2479.35C2006.2 2493.56 1982.99 2493.56 1968.77 2479.35L1687.15 2197.73C1672.94 2183.51 1672.94 2160.3 1687.15 2146.08C1694.07 2139.17 1703.26 2135.38 1712.92 2135.38C1722.68 2135.38 1731.88 2139.17 1738.7 2146.08L2020.42 2427.8C2027.33 2434.62 2031.12 2443.82 2031.12 2453.58Z" fill="#00F0B5"/>
</g>
<g opacity="0.4">
<path d="M191.975 155.78C209.443 189.789 215.351 217.432 209.831 238.769C204.318 260.079 187.376 275.205 158.863 284.103C101.655 301.957 48.5218 314.67 -0.537782 322.246C-49.4799 329.804 -103.506 317.761 -162.643 286.049C-221.696 254.382 -261.35 203.012 -281.579 131.862C-301.806 60.7238 -289.309 8.67174 -244.232 -24.4502C-198.976 -57.7033 -158.885 -84.9203 -123.959 -106.103C-89.1314 -127.226 -46.3001 -133.678 4.57413 -125.423C29.9623 -121.304 51.4222 -111.292 68.9798 -95.3972C86.5429 -79.4977 100.232 -57.6833 110.026 -29.92C129.664 25.7531 156.981 87.6537 191.975 155.78Z" stroke="#00F0B5"/>
<path d="M145.095 145.764C159.274 173.38 164.064 195.809 159.597 213.109C155.137 230.382 141.418 242.65 118.299 249.867C71.8801 264.36 28.7677 274.678 -11.039 280.824C-50.7281 286.951 -94.551 277.171 -142.536 251.415C-190.437 225.703 -222.613 183.999 -239.04 126.229C-255.465 68.4698 -245.335 26.233 -208.795 -0.637679C-172.077 -27.6396 -139.55 -49.739 -111.213 -66.9381C-82.976 -84.0767 -48.242 -89.3095 -6.97272 -82.6014C13.6129 -79.2553 31.0102 -71.1293 45.245 -58.233C59.4853 -45.3318 70.5917 -27.6282 78.5418 -5.08813C94.4937 40.1382 116.679 90.4228 145.095 145.764Z" stroke="#00F0B5"/>
<path d="M116.306 139.564C128.46 163.236 132.559 182.449 128.734 197.26C124.916 212.044 113.174 222.55 93.3661 228.735C53.5681 241.16 16.6062 250.006 -17.5206 255.275C-51.5299 260.526 -89.0865 252.146 -130.218 230.068C-171.267 208.034 -198.843 172.297 -212.923 122.78C-227.001 73.2736 -218.316 37.0888 -187.012 14.0687C-155.531 -9.08253 -127.643 -28.0299 -103.348 -42.7755C-79.153 -57.4606 -49.3896 -61.9461 -14.019 -56.1968C3.61726 -53.3301 18.5184 -46.3692 30.7103 -35.3238C42.9077 -24.2734 52.4244 -9.10628 59.238 10.2115C72.9168 48.9933 91.9403 92.1114 116.306 139.564Z" stroke="#00F0B5"/>
</g>
</g>
<defs>
<linearGradient id="paint0_linear_2201_117" x1="531.432" y1="3189.41" x2="-158.108" y2="3249.8" gradientUnits="userSpaceOnUse">
<stop stop-color="#F4F5F7" stop-opacity="0"/>
<stop offset="1" stop-color="#F4F5F7"/>
</linearGradient>
<clipPath id="clip0_2201_117">
<rect width="1920" height="3741" fill="white"/>
</clipPath>
</defs>
</svg>
