<svg width="1644" height="3169" viewBox="0 0 1644 3169" fill="none" xmlns="http://www.w3.org/2000/svg">
<path d="M1511.47 1557.71C1504.09 1481.72 1508.77 1405.09 1418.48 1350.91C1328.38 1296.86 1248.71 1338.99 1135.1 1331.9C1011.33 1324.17 971 1304.01 921 1348.01C861.085 1400.73 890 1426.51 844.5 1522.51C833.993 1544.68 768.941 1651.76 895.965 1728.58C989.133 1771.56 1047.58 1781.38 1154.31 1788.33C1273.15 1796.07 1402.86 1801.47 1503.13 1768.12C1596.29 1737.15 1518.63 1631.4 1511.47 1557.71Z" fill="url(#paint0_linear_2196_16601)"/>
<path d="M1578.43 298.411C1581.21 379.732 1641 452.534 1561.66 517.513C1482.5 582.35 1436.18 544.681 1328.45 561.58C1211.07 579.993 1017.1 643.813 939.614 586.326C860.589 527.694 925.389 464.543 936.49 373.035C945.33 300.166 891.677 199.415 970.37 149.182C1053.91 95.8566 1157.25 176.541 1258.42 160.361C1371.07 142.345 1422.47 129.668 1490.92 148.212C1547.89 163.644 1575.73 219.559 1578.43 298.411Z" fill="url(#paint1_linear_2196_16601)"/>
<path d="M68.9375 2235.18C86.4345 2319.88 56.4181 2429.9 145.469 2475.03C234.324 2520.05 336.804 2435.64 440.131 2423.29C552.71 2409.83 710.146 2481.46 767.285 2400.69C825.563 2318.31 667.506 2239.62 634.719 2148.23C608.611 2075.46 683.699 1961.39 598.877 1931.3C508.835 1899.36 451.888 2037.66 354.772 2048.94C246.642 2061.5 131.957 1939.74 46.4152 1995.48C-33.0641 2047.26 51.9719 2153.04 68.9375 2235.18Z" fill="url(#paint2_linear_2196_16601)"/>
<path d="M55.9355 967.177C73.4326 1051.88 43.4161 1161.9 132.467 1207.03C221.322 1252.05 323.802 1167.64 427.129 1155.29C539.708 1141.83 697.144 1213.46 754.283 1132.69C812.561 1050.31 654.504 971.616 621.717 880.232C595.609 807.463 670.697 693.387 585.875 663.302C495.833 631.364 438.886 769.656 341.77 780.937C233.64 793.498 118.955 671.743 33.4133 727.479C-46.0661 779.265 38.9699 885.042 55.9355 967.177Z" fill="url(#paint3_linear_2196_16601)"/>
<path d="M1578.43 2766.92C1581.21 2848.24 1641 2921.04 1561.66 2986.02C1482.5 3050.86 1436.18 3013.19 1328.45 3030.09C1211.07 3048.5 1017.1 3112.32 939.614 3054.83C860.589 2996.2 925.389 2933.05 936.49 2841.54C945.33 2768.68 891.677 2667.92 970.37 2617.69C1053.91 2564.37 1157.25 2645.05 1258.42 2628.87C1371.07 2610.85 1422.47 2598.18 1490.92 2616.72C1547.89 2632.15 1575.73 2688.07 1578.43 2766.92Z" fill="url(#paint4_linear_2196_16601)"/>
<defs>
<linearGradient id="paint0_linear_2196_16601" x1="1691.83" y1="1401.52" x2="1078.89" y2="1718.49" gradientUnits="userSpaceOnUse">
<stop stop-color="#F4F5F7" stop-opacity="0"/>
<stop offset="1" stop-color="#F4F5F7"/>
</linearGradient>
<linearGradient id="paint1_linear_2196_16601" x1="1725.03" y1="467.531" x2="1065.97" y2="244.136" gradientUnits="userSpaceOnUse">
<stop stop-color="#F4F5F7" stop-opacity="0"/>
<stop offset="1" stop-color="#F4F5F7"/>
</linearGradient>
<linearGradient id="paint2_linear_2196_16601" x1="-82.833" y1="2463.89" x2="530.378" y2="2052.5" gradientUnits="userSpaceOnUse">
<stop stop-color="#F4F5F7" stop-opacity="0"/>
<stop offset="1" stop-color="#F4F5F7"/>
</linearGradient>
<linearGradient id="paint3_linear_2196_16601" x1="-95.8349" y1="1195.89" x2="517.376" y2="784.501" gradientUnits="userSpaceOnUse">
<stop stop-color="#F4F5F7" stop-opacity="0"/>
<stop offset="1" stop-color="#F4F5F7"/>
</linearGradient>
<linearGradient id="paint4_linear_2196_16601" x1="1725.03" y1="2936.04" x2="1065.97" y2="2712.65" gradientUnits="userSpaceOnUse">
<stop stop-color="#F4F5F7" stop-opacity="0"/>
<stop offset="1" stop-color="#F4F5F7"/>
</linearGradient>
</defs>
</svg>
