<svg width="2123" height="496" viewBox="0 0 2123 496" fill="none" xmlns="http://www.w3.org/2000/svg">
<rect width="1920" height="496" transform="translate(203)" fill="#1E212C"/>
<g opacity="0.4">
<path d="M251.861 422.94C237.873 446.895 222.668 461.586 206.278 467.15C189.915 472.706 172.254 469.201 153.248 456.497C115.081 430.985 82.1493 405.706 54.4488 380.66C26.8344 355.691 9.58619 319.775 2.74384 272.856C-4.08551 226.025 10.8787 182.246 47.7138 141.493C66.1333 121.114 85.2414 107.397 105.033 100.307C124.818 93.2185 145.314 92.7414 166.538 98.8852C209.167 111.226 245.472 123.076 275.457 134.435C305.331 145.753 329.394 167.669 347.64 200.232C356.74 216.472 360.189 232.866 358.013 249.428C355.837 265.996 348.026 282.773 334.537 299.762C307.46 333.863 279.901 374.923 251.861 422.94Z" stroke="#00F0B5"/>
<path d="M236.604 391.93C225.244 411.376 212.91 423.288 199.633 427.802C186.382 432.306 172.077 429.479 156.668 419.182C125.696 398.485 98.9747 377.975 76.5004 357.653C54.1121 337.409 40.1306 308.276 34.5957 270.198C29.0737 232.21 41.2256 196.685 71.129 163.599C86.0827 147.054 101.588 135.92 117.64 130.162C133.685 124.406 150.304 124.011 167.513 128.987C202.114 138.99 231.581 148.597 255.916 157.808C280.139 166.977 299.65 184.745 314.442 211.161C321.815 224.328 324.603 237.617 322.834 251.043C321.063 264.475 314.725 278.085 303.776 291.874C281.778 319.576 259.388 352.929 236.604 391.93Z" stroke="#00F0B5"/>
<path d="M227.265 372.865C217.528 389.532 206.964 399.728 195.604 403.59C184.269 407.444 172.026 405.029 158.827 396.208C132.273 378.463 109.364 360.88 90.0975 343.458C70.9167 326.114 58.9344 301.152 54.1904 268.516C49.4593 235.968 59.869 205.53 85.4971 177.174C98.3131 162.994 111.598 153.456 125.347 148.523C139.09 143.594 153.325 143.255 168.067 147.517C197.733 156.093 222.996 164.33 243.859 172.227C264.611 180.082 281.328 195.304 294.003 217.941C300.318 229.219 302.705 240.598 301.19 252.092C299.675 263.593 294.247 275.25 284.864 287.066C266 310.822 246.801 339.423 227.265 372.865Z" stroke="#00F0B5"/>
</g>
</svg>
