<svg width="1920" height="1620" viewBox="0 0 1920 1620" fill="none" xmlns="http://www.w3.org/2000/svg">
<g clip-path="url(#clip0_2199_1841)">
<g opacity="0.3">
<path d="M192.82 29.0886C192.82 36.5399 190.026 43.9912 184.366 49.6513L-28.5688 262.586C-39.889 273.906 -58.3022 273.906 -69.6224 262.586C-75.1393 257.069 -78.1484 249.761 -78.1484 242.023C-78.1484 234.285 -75.1393 226.977 -69.6225 221.461L143.312 8.52597C148.829 3.00915 156.065 -2.79297e-06 163.875 -2.8861e-06C171.613 -2.97837e-06 178.921 3.00915 184.438 8.52597C190.026 14.2577 192.82 21.6373 192.82 29.0886ZM-76.7155 242.023C-76.7155 249.403 -73.8496 256.353 -68.6194 261.511C-57.8723 272.258 -40.3188 272.258 -29.5718 261.511L183.363 48.5766C194.11 37.8296 194.11 20.2761 183.363 9.52902C178.133 4.29879 171.183 1.43292 163.875 1.43292C156.495 1.43292 149.546 4.29879 144.387 9.52902L-68.6194 222.535C-73.8496 227.694 -76.7155 234.644 -76.7155 242.023Z" fill="#00F0B5"/>
<path d="M177.969 99.0124C177.969 106.464 175.175 113.915 169.514 119.575L-43.4203 332.51C-54.7405 343.83 -73.1538 343.83 -84.474 332.51C-89.9908 326.993 -93 319.685 -93 311.947C-93 304.209 -89.9908 296.901 -84.474 291.384L128.461 78.4498C133.978 72.933 141.214 69.9238 149.023 69.9238C156.761 69.9238 164.069 72.933 169.586 78.4498C175.175 84.1815 177.969 91.5612 177.969 99.0124ZM-91.5671 311.947C-91.5671 319.327 -88.7012 326.277 -83.471 331.435C-72.7239 342.182 -55.1704 342.182 -44.4234 331.435L168.511 118.5C179.258 107.753 179.258 90.1999 168.511 79.4528C163.281 74.2226 156.331 71.3567 149.023 71.3567C141.644 71.3567 134.694 74.2226 129.535 79.4528L-83.471 292.459C-88.7012 297.618 -91.5671 304.568 -91.5671 311.947Z" fill="#00F0B5"/>
</g>
<g opacity="0.4">
<path d="M1823.73 1036.46C1847.82 1011.91 1870.61 998.842 1892.09 997.113C1913.55 995.386 1933.82 1004.96 1952.93 1025.99C1991.27 1068.18 2023.37 1108.5 2049.24 1146.97C2075.03 1185.34 2085.02 1233.72 2079.13 1292.17C2073.26 1350.52 2042 1398.6 1985.28 1436.42C1956.91 1455.34 1929.72 1466.04 1903.69 1468.57C1877.67 1471.1 1852.79 1465.47 1829.02 1451.66C1781.33 1423.94 1741.12 1398.73 1708.38 1376.01C1675.74 1353.36 1653.31 1319.74 1641.11 1275.09C1635.02 1252.81 1635.8 1232.05 1643.42 1212.79C1651.05 1193.52 1665.54 1175.72 1686.93 1159.38C1729.85 1126.62 1775.45 1085.65 1823.73 1036.46Z" stroke="#00F0B5"/>
<path d="M1832.79 1078.32C1852.35 1058.39 1870.84 1047.79 1888.25 1046.39C1905.64 1044.98 1922.07 1052.73 1937.57 1069.77C1968.68 1104 1994.73 1136.72 2015.72 1167.93C2036.64 1199.05 2044.72 1238.3 2039.92 1285.73C2035.13 1333.06 2009.75 1372.08 1963.7 1402.79C1940.67 1418.15 1918.6 1426.84 1897.49 1428.9C1876.38 1430.97 1856.19 1426.41 1836.92 1415.21C1798.2 1392.73 1765.56 1372.28 1738.99 1353.85C1712.51 1335.5 1694.32 1308.23 1684.44 1272C1679.51 1253.94 1680.15 1237.11 1686.33 1221.49C1692.53 1205.87 1704.29 1191.42 1721.66 1178.16C1756.52 1151.55 1793.57 1118.27 1832.79 1078.32Z" stroke="#00F0B5"/>
<path d="M1838.3 1104.04C1855.07 1086.96 1870.91 1077.89 1885.82 1076.68C1900.69 1075.48 1914.76 1082.11 1928.04 1096.71C1954.72 1126.06 1977.05 1154.11 1995.04 1180.87C2012.97 1207.53 2019.9 1241.16 2015.79 1281.82C2011.68 1322.38 1989.93 1355.82 1950.46 1382.14C1930.72 1395.3 1911.81 1402.75 1893.72 1404.52C1875.64 1406.28 1858.34 1402.38 1841.83 1392.79C1808.64 1373.51 1780.65 1355.98 1757.87 1340.18C1735.18 1324.45 1719.59 1301.09 1711.12 1270.04C1706.9 1254.56 1707.45 1240.15 1712.75 1226.77C1718.05 1213.39 1728.12 1201.02 1743.01 1189.66C1772.91 1166.83 1804.67 1138.3 1838.3 1104.04Z" stroke="#00F0B5"/>
</g>
</g>
<defs>
<clipPath id="clip0_2199_1841">
<rect width="1920" height="1620" fill="white"/>
</clipPath>
</defs>
</svg>
