<svg width="1920" height="556" viewBox="0 0 1920 556" fill="none" xmlns="http://www.w3.org/2000/svg">
<g clip-path="url(#clip0_2196_2425)">
<rect width="1920" height="556" fill="#1E212C"/>
<g opacity="0.4">
<path d="M1817.5 466.457C1791.88 456.044 1775.22 443.101 1767.38 427.68C1759.55 412.282 1760.46 394.303 1770.25 373.675C1789.91 332.252 1810.09 296.042 1830.79 265.042C1851.43 234.139 1884.35 211.926 1929.61 198.436C1974.78 184.97 2020.08 193.509 2065.55 224.125C2088.28 239.434 2104.55 256.379 2114.38 274.949C2124.21 293.513 2127.63 313.728 2124.63 335.611C2118.59 379.564 2112.13 417.189 2105.25 448.489C2098.39 479.673 2080.25 506.625 2050.78 529.345C2036.08 540.676 2020.42 546.437 2003.78 546.656C1987.14 546.875 1969.48 541.548 1950.8 530.632C1913.29 508.72 1868.86 487.329 1817.5 466.457Z" stroke="#00F0B5"/>
<path d="M1845.88 446.917C1825.08 438.46 1811.56 427.96 1805.2 415.468C1798.86 403.001 1799.59 388.439 1807.52 371.716C1823.47 338.102 1839.84 308.721 1856.64 283.57C1873.37 258.515 1900.07 240.506 1936.81 229.576C1973.46 218.671 2010.22 225.609 2047.13 250.463C2065.58 262.891 2078.79 276.641 2086.77 291.701C2094.75 306.754 2097.53 323.144 2095.1 340.887C2090.22 376.561 2084.98 407.097 2079.41 432.499C2073.85 457.783 2059.14 479.636 2035.24 498.057C2023.32 507.239 2010.62 511.901 1997.13 512.073C1983.64 512.245 1969.32 507.922 1954.15 499.061C1923.68 481.259 1887.59 463.878 1845.88 446.917Z" stroke="#00F0B5"/>
<path d="M1863.32 434.946C1845.5 427.698 1833.93 418.704 1828.49 408.015C1823.06 397.351 1823.68 384.89 1830.47 370.564C1844.15 341.745 1858.18 316.556 1872.58 294.995C1886.92 273.529 1909.8 258.097 1941.28 248.728C1972.68 239.385 2004.18 245.327 2035.81 266.628C2051.63 277.279 2062.94 289.06 2069.78 301.96C2076.62 314.854 2079 328.891 2076.92 344.091C2072.73 374.677 2068.24 400.857 2063.46 422.634C2058.7 444.295 2046.1 463.018 2025.61 478.804C2015.41 486.668 2004.53 490.66 1992.99 490.807C1981.43 490.954 1969.16 487.253 1956.17 479.66C1930.04 464.394 1899.09 449.49 1863.32 434.946Z" stroke="#00F0B5"/>
</g>
</g>
<defs>
<clipPath id="clip0_2196_2425">
<rect width="1920" height="556" fill="white"/>
</clipPath>
</defs>
</svg>
