<svg width="1920" height="3639" viewBox="0 0 1920 3639" fill="none" xmlns="http://www.w3.org/2000/svg">
<g clip-path="url(#clip0_2198_711)">
<g opacity="0.3">
<path d="M-114.701 3638.83C-104.378 3638.83 -94.0554 3634.96 -86.2142 3627.11L208.773 3332.13C224.456 3316.44 224.456 3290.94 208.773 3275.25C201.131 3267.61 191.007 3263.44 180.287 3263.44C169.567 3263.44 159.443 3267.61 151.801 3275.25L-143.187 3570.24C-150.83 3577.88 -154.998 3587.91 -154.998 3598.73C-154.998 3609.45 -150.83 3619.57 -143.187 3627.21C-135.246 3634.96 -125.023 3638.83 -114.701 3638.83ZM180.287 3265.43C190.51 3265.43 200.138 3269.4 207.285 3276.64C222.173 3291.53 222.173 3315.85 207.285 3330.74L-87.703 3625.72C-102.591 3640.61 -126.909 3640.61 -141.797 3625.72C-149.043 3618.48 -153.013 3608.85 -153.013 3598.73C-153.013 3588.5 -149.043 3578.88 -141.797 3571.73L153.29 3276.64C160.436 3269.4 170.064 3265.43 180.287 3265.43Z" fill="#00F0B5"/>
<path d="M-102.79 3564.38C-92.4678 3564.38 -82.1452 3560.51 -74.304 3552.67L220.684 3257.68C236.366 3242 236.366 3216.49 220.684 3200.81C213.041 3193.17 202.917 3189 192.197 3189C181.478 3189 171.354 3193.17 163.711 3200.81L-131.277 3495.8C-138.919 3503.44 -143.088 3513.47 -143.088 3524.29C-143.088 3535 -138.919 3545.13 -131.277 3552.77C-123.336 3560.51 -113.113 3564.38 -102.79 3564.38ZM192.197 3190.99C202.421 3190.99 212.048 3194.96 219.195 3202.2C234.083 3217.09 234.083 3241.41 219.195 3256.3L-75.7928 3551.28C-90.6812 3566.17 -114.999 3566.17 -129.887 3551.28C-137.133 3544.04 -141.103 3534.41 -141.103 3524.29C-141.103 3514.06 -137.133 3504.43 -129.887 3497.29L165.2 3202.2C172.346 3194.96 181.974 3190.99 192.197 3190.99Z" fill="#00F0B5"/>
</g>
<path d="M1695.24 1843.02C1766.83 1777.4 1810.68 1657.05 1923.06 1675.22C2035.19 1693.34 2075.53 1838.63 2163.69 1918.75C2259.74 2006.04 2453.1 2045.59 2453.6 2157.34C2454.1 2271.32 2255.54 2237.79 2165.37 2299.31C2093.56 2348.3 2089.02 2502.39 1990.4 2473.32C1885.7 2442.46 1850.65 2329.78 1767.58 2254.78C1675.08 2171.28 1561.1 2154.51 1517.82 2046.67C1477.61 1946.47 1625.84 1906.64 1695.24 1843.02Z" fill="url(#paint0_linear_2198_711)"/>
<g opacity="0.4">
<path d="M1704.48 2222.04L1680 2246.43L1681.57 2248L1706.06 2223.61L1704.48 2222.04Z" fill="#00F0B5"/>
<path d="M1728.97 2222.03L1704.49 2246.42L1706.06 2247.99L1730.54 2223.6L1728.97 2222.03Z" fill="#00F0B5"/>
<path d="M1753.45 2222.01L1728.97 2246.41L1730.55 2247.98L1755.03 2223.58L1753.45 2222.01Z" fill="#00F0B5"/>
<path d="M1777.94 2222.01L1753.46 2246.4L1755.03 2247.97L1779.51 2223.57L1777.94 2222.01Z" fill="#00F0B5"/>
<path d="M1802.42 2222L1777.95 2246.39L1779.52 2247.96L1804 2223.57L1802.42 2222Z" fill="#00F0B5"/>
</g>
<g opacity="0.4">
<path d="M79.5725 1509.45C71.7611 1508.6 63.7376 1507.59 55.5908 1506.56C29.2863 1503.23 1.69612 1499.75 -24.1922 1501.12C-58.0697 1502.92 -88.915 1513.03 -110.012 1542.66C-130.489 1571.41 -126.136 1603.12 -116.3 1636.6C-113.842 1644.97 -111.045 1653.43 -108.212 1661.99L-108.011 1662.59C-105.245 1670.95 -102.451 1679.38 -99.9178 1687.87C-94.7297 1705.26 -90.627 1722.9 -90.0828 1740.61C-89.4861 1760.03 -93.164 1780.3 -98.2432 1800.59C-100.783 1810.73 -103.676 1820.89 -106.562 1830.96C-106.752 1831.62 -106.942 1832.28 -107.132 1832.94C-109.827 1842.34 -112.497 1851.64 -114.853 1860.78C-124.952 1899.95 -129.208 1935.83 -105.211 1962.24C-79.5873 1990.45 -40.2885 2002.35 0.88495 2001.45C42.0544 2000.54 85.0245 1986.83 117.904 1963.9C146.247 1944.12 156.192 1912.28 161.955 1876.69C163.695 1865.94 165.05 1854.89 166.417 1843.73C167.317 1836.39 168.222 1829.01 169.245 1821.64C171.822 1803.08 175.144 1784.67 181.012 1767.48C186.64 1751 195.191 1734.94 204.458 1719.19C208.132 1712.94 211.915 1706.75 215.674 1700.6C221.409 1691.21 227.089 1681.91 232.245 1672.65C249.312 1641.99 260.446 1612.05 248.449 1581.59C235.96 1549.87 209.934 1533.58 178.897 1524.35C153.593 1516.82 125.03 1514 97.8503 1511.31C91.6679 1510.7 85.5571 1510.1 79.5725 1509.45Z" stroke="#00F0B5"/>
<path d="M66.1144 1558.32C59.96 1557.65 53.6401 1556.85 47.2241 1556.04C26.5152 1553.43 4.80569 1550.69 -15.5669 1551.77C-42.2228 1553.18 -66.472 1561.13 -83.0573 1584.42C-99.1492 1607.02 -95.7354 1631.95 -87.9929 1658.3C-86.0582 1664.88 -83.8564 1671.55 -81.6257 1678.28L-81.467 1678.76C-79.289 1685.34 -77.089 1691.98 -75.0943 1698.66C-71.0084 1712.36 -67.7752 1726.26 -67.3462 1740.22C-66.8761 1755.52 -69.7746 1771.49 -73.7744 1787.47C-75.7748 1795.46 -78.0527 1803.46 -80.3255 1811.38C-80.4748 1811.9 -80.6242 1812.42 -80.7735 1812.94C-82.8959 1820.34 -84.9976 1827.66 -86.8522 1834.86C-94.8047 1865.7 -98.1364 1893.89 -79.2854 1914.65C-59.1385 1936.82 -28.2314 1946.19 4.16733 1945.48C36.562 1944.77 70.3741 1933.98 96.2439 1915.93C118.523 1900.39 126.347 1875.36 130.884 1847.34C132.253 1838.88 133.319 1830.18 134.396 1821.4C135.104 1815.62 135.817 1809.8 136.623 1804C138.652 1789.39 141.269 1774.88 145.893 1761.34C150.327 1748.35 157.064 1735.7 164.361 1723.3C167.256 1718.37 170.235 1713.5 173.195 1708.65C177.709 1701.26 182.179 1693.95 186.238 1686.66C199.674 1662.52 208.416 1638.99 198.99 1615.05C189.174 1590.12 168.718 1577.31 144.298 1570.05C124.386 1564.12 101.91 1561.9 80.5105 1559.79C75.6418 1559.31 70.8289 1558.83 66.1144 1558.32Z" stroke="#00F0B5"/>
<path d="M56.3894 1593.63C51.4322 1593.09 46.3431 1592.45 41.1776 1591.8C24.5118 1589.69 7.05111 1587.49 -9.33633 1588.36C-30.7744 1589.49 -50.2578 1595.89 -63.583 1614.6C-76.5065 1632.75 -73.7714 1652.77 -67.5413 1673.97C-65.9848 1679.27 -64.2132 1684.63 -62.4178 1690.05L-62.2907 1690.44C-60.5376 1695.73 -58.7662 1701.08 -57.1601 1706.46C-53.8706 1717.49 -51.2655 1728.69 -50.9199 1739.93C-50.5411 1752.26 -52.8765 1765.13 -56.0965 1777.99C-57.707 1784.42 -59.5408 1790.86 -61.37 1797.24C-61.4903 1797.66 -61.6106 1798.08 -61.7309 1798.5C-63.439 1804.45 -65.1301 1810.34 -66.6223 1816.13C-73.0236 1840.96 -75.688 1863.6 -60.555 1880.26C-44.3651 1898.08 -19.521 1905.61 6.53767 1905.04C32.5923 1904.47 59.7876 1895.79 80.5929 1881.28C98.4896 1868.79 104.782 1848.68 108.433 1826.13C109.535 1819.33 110.392 1812.33 111.258 1805.26C111.828 1800.61 112.402 1795.93 113.051 1791.25C114.685 1779.49 116.792 1767.81 120.516 1756.9C124.089 1746.44 129.515 1736.25 135.389 1726.26C137.721 1722.3 140.12 1718.37 142.502 1714.47C146.134 1708.53 149.729 1702.64 152.995 1696.78C163.808 1677.36 170.822 1658.45 163.254 1639.23C155.368 1619.2 138.937 1608.91 119.298 1603.07C103.282 1598.3 85.2038 1596.52 67.9809 1594.82C64.0613 1594.43 60.186 1594.05 56.3894 1593.63Z" stroke="#00F0B5"/>
</g>
<g opacity="0.4">
<path d="M2168.69 739.011C2175.37 732.275 2182.37 725.462 2189.48 718.543C2212.42 696.2 2236.5 672.756 2254.7 647.263C2278.53 613.9 2292.22 577.121 2280.11 534.844C2268.36 493.801 2235.08 474.018 2196.05 458.098C2186.3 454.119 2176.19 450.385 2165.98 446.62L2165.26 446.354C2155.29 442.677 2145.22 438.965 2135.29 434.966C2114.97 426.774 2095.22 417.367 2078.1 404.552C2059.32 390.504 2042.95 371.777 2027.62 351.705C2019.95 341.667 2012.53 331.287 2005.2 320.982C2004.72 320.304 2004.23 319.627 2003.75 318.949C1996.91 309.332 1990.13 299.804 1983.28 290.697C1953.89 251.665 1923.17 220.581 1880.09 223.359C1834.12 226.324 1793.25 254.5 1763.09 294.084C1732.94 333.664 1713.52 384.594 1710.43 432.939C1707.76 474.641 1730.37 508.037 1759.65 540.289C1768.49 550.023 1777.92 559.631 1787.43 569.327C1793.68 575.703 1799.97 582.116 1806.16 588.63C1821.74 605.032 1836.63 622.03 1848.44 640.508C1859.76 658.226 1868.49 678.383 1876.38 698.996C1879.52 707.166 1882.52 715.4 1885.5 723.584C1890.05 736.071 1894.55 748.44 1899.42 760.286C1915.52 799.491 1935.43 832.594 1973.29 844.22C2012.7 856.321 2047.71 843.986 2079.82 821.615C2105.99 803.378 2130.17 778.517 2153.17 754.866C2158.4 749.488 2163.57 744.172 2168.69 739.011Z" stroke="#00F0B5"/>
<path d="M2132.66 689.499C2137.93 684.193 2143.44 678.827 2149.03 673.378C2167.1 655.788 2186.04 637.339 2200.37 617.276C2219.12 591.022 2229.88 562.097 2220.36 528.853C2211.12 496.589 2184.97 481.029 2154.24 468.497C2146.56 465.365 2138.61 462.425 2130.57 459.461L2130 459.251C2122.15 456.357 2114.22 453.433 2106.4 450.284C2090.4 443.833 2074.84 436.423 2061.34 426.325C2046.55 415.255 2033.66 400.501 2021.58 384.695C2015.54 376.79 2009.7 368.616 2003.93 360.503C2003.55 359.969 2003.17 359.435 2002.79 358.902C1997.4 351.33 1992.07 343.829 1986.67 336.66C1963.53 305.926 1939.38 281.502 1905.52 283.685C1869.36 286.017 1837.22 308.177 1813.48 339.328C1789.75 370.475 1774.47 410.555 1772.03 448.598C1769.93 481.387 1787.71 507.652 1810.76 533.042C1817.72 540.705 1825.14 548.266 1832.63 555.899C1837.55 560.919 1842.51 565.969 1847.38 571.101C1859.65 584.016 1871.38 597.406 1880.68 611.962C1889.6 625.921 1896.47 641.8 1902.69 658.032C1905.16 664.468 1907.52 670.953 1909.87 677.396C1913.45 687.226 1917 696.96 1920.83 706.285C1933.51 737.151 1949.16 763.17 1978.92 772.308C2009.9 781.823 2037.44 772.128 2062.7 754.525C2083.3 740.173 2102.33 720.607 2120.44 701.987C2124.56 697.751 2128.63 693.565 2132.66 689.499Z" stroke="#00F0B5"/>
<path d="M2106.64 653.727C2110.87 649.453 2115.31 645.133 2119.82 640.746C2134.36 626.59 2149.6 611.75 2161.12 595.61C2176.2 574.492 2184.85 551.242 2177.2 524.524C2169.77 498.603 2148.76 486.096 2124.04 476.011C2117.86 473.491 2111.46 471.126 2104.99 468.74L2104.53 468.57C2098.21 466.241 2091.83 463.888 2085.54 461.353C2072.65 456.159 2060.12 450.191 2049.25 442.056C2037.33 433.139 2026.94 421.255 2017.22 408.531C2012.36 402.168 2007.66 395.587 2003.01 389.058C2002.71 388.628 2002.4 388.198 2002.1 387.769C1997.76 381.674 1993.47 375.639 1989.12 369.87C1970.5 345.132 1951.09 325.519 1923.9 327.273C1894.83 329.147 1868.98 346.961 1849.89 372.019C1830.8 397.073 1818.51 429.313 1816.55 459.913C1814.87 486.261 1829.15 507.375 1847.7 527.806C1853.3 533.973 1859.27 540.055 1865.29 546.197C1869.25 550.237 1873.24 554.303 1877.17 558.436C1887.05 568.833 1896.49 579.614 1903.98 591.338C1911.17 602.582 1916.7 615.369 1921.71 628.435C1923.69 633.618 1925.6 638.839 1927.49 644.025C1930.37 651.934 1933.22 659.765 1936.3 667.269C1946.5 692.109 1959.09 713.011 1983 720.351C2007.89 727.996 2030.02 720.21 2050.34 706.051C2066.91 694.506 2082.22 678.767 2096.79 663.781C2100.11 660.371 2103.39 657 2106.64 653.727Z" stroke="#00F0B5"/>
</g>
</g>
<defs>
<linearGradient id="paint0_linear_2198_711" x1="1703.07" y1="1533.42" x2="1993.89" y2="2323.61" gradientUnits="userSpaceOnUse">
<stop stop-color="#F4F5F7" stop-opacity="0"/>
<stop offset="1" stop-color="#F4F5F7"/>
</linearGradient>
<clipPath id="clip0_2198_711">
<rect width="1920" height="3639" fill="white"/>
</clipPath>
</defs>
</svg>
