<svg width="1920" height="1595" viewBox="0 0 1920 1595" fill="none" xmlns="http://www.w3.org/2000/svg">
<g clip-path="url(#clip0_2198_1878)">
<rect width="1920" height="1595" fill="#F4F5F7"/>
<g opacity="0.4">
<path d="M-134.699 1246.43C-140.008 1253.69 -145.601 1261.06 -151.281 1268.54C-169.623 1292.71 -188.867 1318.06 -202.321 1344.5C-219.928 1379.11 -227.563 1415.48 -210.263 1453.37C-193.469 1490.14 -159.525 1503.98 -120.721 1513.38C-111.023 1515.73 -101.032 1517.81 -90.9355 1519.89L-90.2159 1520.04C-80.3574 1522.08 -70.4037 1524.13 -60.5453 1526.48C-40.3498 1531.29 -20.5256 1537.31 -2.67146 1546.9C16.9009 1557.42 34.876 1572.65 52.0733 1589.29C60.6733 1597.61 69.0843 1606.29 77.4053 1614.91C77.9521 1615.47 78.4986 1616.04 79.0446 1616.6C86.81 1624.65 94.5021 1632.62 102.21 1640.18C135.246 1672.6 168.391 1697.37 208.337 1688.69C250.974 1679.43 285.269 1647.29 307.934 1605.96C330.598 1564.63 341.596 1514.19 337.678 1468.48C334.299 1429.05 308.417 1400.96 276.438 1374.89C266.786 1367.01 256.604 1359.35 246.327 1351.6C239.569 1346.52 232.771 1341.39 226.055 1336.17C209.146 1323 192.804 1309.18 179.133 1293.53C166.024 1278.53 155.01 1260.88 144.703 1242.68C140.617 1235.47 136.646 1228.18 132.699 1220.94C126.677 1209.88 120.712 1198.93 114.484 1188.52C93.8697 1154.07 70.557 1125.88 33.4684 1120.33C-5.13843 1114.56 -36.1882 1131.05 -63.1036 1156.53C-85.0455 1177.3 -104.187 1204 -122.397 1229.39C-126.539 1235.17 -130.632 1240.88 -134.699 1246.43Z" stroke="#00F0B5"/>
<path d="M-93.9678 1287.73C-98.1497 1293.44 -102.555 1299.25 -107.028 1305.14C-121.469 1324.17 -136.612 1344.12 -147.2 1364.93C-161.056 1392.16 -167.054 1420.76 -153.452 1450.55C-140.251 1479.46 -113.57 1490.34 -83.0237 1497.75C-75.3904 1499.6 -67.5257 1501.23 -59.5761 1502.87L-59.0107 1502.99C-51.2486 1504.59 -43.4095 1506.21 -35.6454 1508.06C-19.7412 1511.84 -4.12218 1516.59 9.94727 1524.15C25.3705 1532.43 39.5314 1544.43 53.0741 1557.54C59.8466 1564.09 66.4702 1570.92 73.0215 1577.71C73.452 1578.15 73.8821 1578.6 74.312 1579.04C80.4262 1585.38 86.4817 1591.65 92.5496 1597.61C118.562 1623.13 144.619 1642.59 176.009 1635.77C209.538 1628.49 236.518 1603.21 254.355 1570.69C272.19 1538.17 280.844 1498.47 277.761 1462.5C275.105 1431.5 254.757 1409.41 229.583 1388.88C221.985 1382.69 213.971 1376.65 205.881 1370.56C200.561 1366.55 195.207 1362.52 189.916 1358.4C176.601 1348.03 163.728 1337.14 152.958 1324.82C142.629 1313 133.953 1299.09 125.837 1284.77C122.618 1279.08 119.49 1273.34 116.383 1267.64C111.643 1258.94 106.948 1250.32 102.045 1242.13C85.8166 1215 67.484 1192.85 38.3352 1188.49C7.98401 1183.95 -16.4312 1196.91 -37.6101 1216.96C-54.8778 1233.3 -69.9411 1254.31 -84.2785 1274.31C-87.54 1278.86 -90.764 1283.35 -93.9678 1287.73Z" stroke="#00F0B5"/>
<path d="M-64.5398 1317.56C-67.9079 1322.17 -71.4553 1326.84 -75.0563 1331.58C-86.6777 1346.9 -98.858 1362.94 -107.376 1379.68C-118.52 1401.59 -123.337 1424.58 -112.406 1448.51C-101.801 1471.74 -80.3686 1480.48 -55.7882 1486.44C-49.6464 1487.93 -43.3181 1489.25 -36.9197 1490.57L-36.4658 1490.66C-30.2183 1491.95 -23.9072 1493.26 -17.6562 1494.74C-4.85247 1497.79 7.72816 1501.61 19.0631 1507.7C31.4884 1514.38 42.8936 1524.04 53.7956 1534.59C59.2478 1539.87 64.5799 1545.37 69.8527 1550.83C70.1995 1551.19 70.5461 1551.55 70.8925 1551.91C75.8133 1557 80.6856 1562.05 85.5679 1566.84C106.506 1587.39 127.443 1603.01 152.649 1597.54C179.598 1591.68 201.294 1571.36 215.641 1545.2C229.987 1519.04 236.948 1487.11 234.468 1458.18C232.334 1433.27 215.986 1415.52 195.728 1399C189.613 1394.01 183.167 1389.15 176.657 1384.25C172.375 1381.03 168.065 1377.78 163.804 1374.46C153.085 1366.12 142.719 1357.35 134.044 1347.42C125.724 1337.9 118.738 1326.7 112.204 1315.17C109.612 1310.59 107.094 1305.97 104.593 1301.38C100.778 1294.38 97.0025 1287.45 93.0569 1280.85C79.9966 1259.02 65.2621 1241.23 41.85 1237.73C17.4638 1234.08 -2.15775 1244.49 -19.1919 1260.62C-33.0824 1273.77 -45.1993 1290.66 -56.7386 1306.76C-59.3642 1310.42 -61.9599 1314.04 -64.5398 1317.56Z" stroke="#00F0B5"/>
</g>
</g>
<defs>
<clipPath id="clip0_2198_1878">
<rect width="1920" height="1595" fill="white"/>
</clipPath>
</defs>
</svg>
