<svg width="20" height="20" viewBox="0 0 20 20" fill="none" xmlns="http://www.w3.org/2000/svg">
<path d="M14.6373 0.837799L12.3229 0.833984C9.72281 0.833984 8.04249 2.60489 8.04249 5.34584V7.42611H5.71548C5.5144 7.42611 5.35156 7.59357 5.35156 7.80013V10.8142C5.35156 11.0208 5.51458 11.188 5.71548 11.188H8.04249V18.7935C8.04249 19 8.20532 19.1673 8.4064 19.1673H11.4425C11.6436 19.1673 11.8064 18.9999 11.8064 18.7935V11.188H14.5272C14.7283 11.188 14.8911 11.0208 14.8911 10.8142L14.8923 7.80013C14.8923 7.70095 14.8538 7.60597 14.7857 7.53578C14.7175 7.46559 14.6247 7.42611 14.5282 7.42611H11.8064V5.66264C11.8064 4.81505 12.003 4.38476 13.0779 4.38476L14.637 4.38419C14.8379 4.38419 15.0007 4.21673 15.0007 4.01037V1.21163C15.0007 1.00545 14.838 0.83818 14.6373 0.837799Z" fill="#787A80"/>
</svg>
