<svg width="25" height="4" viewBox="0 0 25 4" fill="none" xmlns="http://www.w3.org/2000/svg">
<path d="M2.11435 3.89624C2.07855 3.89624 2.04812 3.88371 2.02307 3.85866C1.99801 3.8336 1.98548 3.80317 1.98548 3.76738V0.798112H0.992146C0.95635 0.798112 0.925924 0.785583 0.900867 0.760526C0.87581 0.735469 0.863281 0.705042 0.863281 0.669247V0.271913C0.863281 0.232537 0.87402 0.200321 0.895498 0.175264C0.920555 0.150207 0.952771 0.137678 0.992146 0.137678H3.73053C3.7699 0.137678 3.80212 0.150207 3.82718 0.175264C3.85223 0.200321 3.86476 0.232537 3.86476 0.271913V0.669247C3.86476 0.705042 3.85223 0.735469 3.82718 0.760526C3.80212 0.785583 3.7699 0.798112 3.73053 0.798112H2.74256V3.76738C2.74256 3.80317 2.73003 3.8336 2.70498 3.85866C2.67992 3.88371 2.6477 3.89624 2.60833 3.89624H2.11435Z" fill="#424551"/>
<path d="M5.07539 3.89624C5.03959 3.89624 5.00917 3.88371 4.98411 3.85866C4.95905 3.8336 4.94652 3.80317 4.94652 3.76738V0.271913C4.94652 0.232537 4.95726 0.200321 4.97874 0.175264C5.0038 0.150207 5.03601 0.137678 5.07539 0.137678H6.46606C6.90277 0.137678 7.24462 0.239696 7.49161 0.443733C7.74218 0.647769 7.86747 0.937715 7.86747 1.31357C7.86747 1.57488 7.80303 1.79503 7.67417 1.97401C7.54888 2.1494 7.37348 2.27648 7.14797 2.35523L7.9319 3.72442C7.94264 3.7459 7.94801 3.76559 7.94801 3.78349C7.94801 3.8157 7.93548 3.84255 7.91042 3.86403C7.88894 3.8855 7.86389 3.89624 7.83525 3.89624H7.34664C7.28936 3.89624 7.24462 3.88371 7.2124 3.85866C7.18376 3.8336 7.15692 3.7978 7.13186 3.75127L6.43921 2.47873H5.69287V3.76738C5.69287 3.80317 5.68034 3.8336 5.65528 3.85866C5.6338 3.88371 5.60338 3.89624 5.564 3.89624H5.07539ZM6.44995 1.87199C6.66472 1.87199 6.82581 1.82366 6.93319 1.72701C7.04416 1.63037 7.09964 1.49076 7.09964 1.3082C7.09964 1.12564 7.04416 0.98425 6.93319 0.884022C6.82581 0.783793 6.66472 0.733679 6.44995 0.733679H5.69287V1.87199H6.44995Z" fill="#424551"/>
<path d="M9.22512 3.89624C9.18932 3.89624 9.1589 3.88371 9.13384 3.85866C9.10878 3.8336 9.09626 3.80317 9.09626 3.76738V0.271913C9.09626 0.232537 9.10699 0.200321 9.12847 0.175264C9.15353 0.150207 9.18575 0.137678 9.22512 0.137678H11.5876C11.627 0.137678 11.6592 0.150207 11.6843 0.175264C11.7094 0.200321 11.7219 0.232537 11.7219 0.271913V0.626291C11.7219 0.665667 11.7094 0.697883 11.6843 0.72294C11.6592 0.744418 11.627 0.755156 11.5876 0.755156H9.82112V1.70554H11.4695C11.5089 1.70554 11.5411 1.71806 11.5662 1.74312C11.5912 1.7646 11.6038 1.79503 11.6038 1.8344V2.1673C11.6038 2.20668 11.5912 2.23889 11.5662 2.26395C11.5411 2.28543 11.5089 2.29617 11.4695 2.29617H9.82112V3.27876H11.6306C11.67 3.27876 11.7022 3.29129 11.7272 3.31635C11.7523 3.34141 11.7648 3.37362 11.7648 3.413V3.76738C11.7648 3.80675 11.7523 3.83897 11.7272 3.86403C11.7022 3.8855 11.67 3.89624 11.6306 3.89624H9.22512Z" fill="#424551"/>
<path d="M13.1022 3.89624C13.0664 3.89624 13.036 3.88371 13.0109 3.85866C12.9859 3.8336 12.9733 3.80317 12.9733 3.76738V0.271913C12.9733 0.232537 12.9841 0.200321 13.0055 0.175264C13.0306 0.150207 13.0628 0.137678 13.1022 0.137678H13.5156C13.5586 0.137678 13.5908 0.146627 13.6123 0.164525C13.6338 0.178843 13.6534 0.198531 13.6713 0.223588L15.2177 2.62907V0.271913C15.2177 0.232537 15.2285 0.200321 15.2499 0.175264C15.275 0.150207 15.3072 0.137678 15.3466 0.137678H15.7976C15.837 0.137678 15.8692 0.150207 15.8943 0.175264C15.9193 0.200321 15.9318 0.232537 15.9318 0.271913V3.76201C15.9318 3.80138 15.9193 3.8336 15.8943 3.85866C15.8692 3.88371 15.8388 3.89624 15.803 3.89624H15.3842C15.3233 3.89624 15.2714 3.8676 15.2285 3.81033L13.6874 1.45854V3.76738C13.6874 3.80675 13.6749 3.83897 13.6499 3.86403C13.6248 3.8855 13.5926 3.89624 13.5532 3.89624H13.1022Z" fill="#424551"/>
<path d="M17.4354 3.89624C17.3996 3.89624 17.3692 3.88371 17.3442 3.85866C17.3191 3.8336 17.3066 3.80317 17.3066 3.76738V0.271913C17.3066 0.232537 17.3173 0.200321 17.3388 0.175264C17.3638 0.150207 17.3961 0.137678 17.4354 0.137678H18.7456C19.798 0.137678 20.3349 0.624501 20.3564 1.59815C20.3635 1.80576 20.3671 1.94537 20.3671 2.01696C20.3671 2.08497 20.3635 2.22279 20.3564 2.4304C20.3421 2.93154 20.2078 3.30203 19.9537 3.54186C19.6995 3.77812 19.3058 3.89624 18.7724 3.89624H17.4354ZM18.7456 3.27876C19.0463 3.27876 19.2628 3.21254 19.3953 3.0801C19.5277 2.94407 19.5975 2.72214 19.6047 2.41429C19.6118 2.19952 19.6154 2.06528 19.6154 2.01159C19.6154 1.95432 19.6118 1.82187 19.6047 1.61426C19.5975 1.32073 19.5223 1.10417 19.3792 0.964562C19.2396 0.824958 19.0194 0.755156 18.7187 0.755156H18.0529V3.27876H18.7456Z" fill="#424551"/>
<path d="M22.9236 3.94994C22.605 3.94994 22.3312 3.90161 22.1021 3.80496C21.873 3.70831 21.6994 3.58124 21.5813 3.42374C21.4631 3.26624 21.4005 3.0962 21.3933 2.91365C21.3933 2.88143 21.4041 2.85458 21.4256 2.83311C21.447 2.81163 21.4739 2.80089 21.5061 2.80089H21.984C22.0269 2.80089 22.0591 2.80984 22.0806 2.82774C22.1057 2.84205 22.1289 2.86711 22.1504 2.90291C22.1862 3.02461 22.2686 3.12663 22.3974 3.20896C22.5263 3.29129 22.7017 3.33246 22.9236 3.33246C23.1778 3.33246 23.3693 3.29129 23.4981 3.20896C23.627 3.12305 23.6914 3.00493 23.6914 2.85458C23.6914 2.75435 23.6574 2.67202 23.5894 2.60759C23.525 2.54316 23.4265 2.48768 23.2941 2.44114C23.1652 2.39461 22.9719 2.33733 22.7142 2.26932C22.2918 2.16909 21.9822 2.03665 21.7853 1.87199C21.592 1.70375 21.4954 1.4657 21.4954 1.15786C21.4954 0.950244 21.5508 0.765895 21.6618 0.604814C21.7764 0.443733 21.9392 0.316657 22.1504 0.223588C22.3652 0.130519 22.614 0.0839844 22.8968 0.0839844C23.1903 0.0839844 23.4444 0.135888 23.6592 0.239696C23.874 0.343504 24.0369 0.474159 24.1478 0.631661C24.2624 0.785583 24.3232 0.939505 24.3304 1.09343C24.3304 1.12564 24.3197 1.15249 24.2982 1.17397C24.2767 1.19545 24.2499 1.20618 24.2176 1.20618H23.7183C23.6431 1.20618 23.5912 1.17218 23.5626 1.10417C23.5411 0.989619 23.4695 0.89476 23.3478 0.819589C23.2261 0.740838 23.0757 0.701463 22.8968 0.701463C22.6963 0.701463 22.5388 0.739048 22.4243 0.81422C22.3097 0.889391 22.2524 0.998568 22.2524 1.14175C22.2524 1.24198 22.2811 1.32431 22.3384 1.38874C22.3956 1.45318 22.4851 1.51045 22.6068 1.56056C22.7321 1.61068 22.9111 1.66616 23.1438 1.72701C23.4588 1.79861 23.7093 1.87915 23.8955 1.96864C24.0852 2.05813 24.2248 2.17088 24.3143 2.30691C24.4038 2.44293 24.4485 2.61654 24.4485 2.82774C24.4485 3.05683 24.3841 3.25729 24.2552 3.42911C24.1299 3.59735 23.951 3.72621 23.7183 3.8157C23.4892 3.90519 23.2243 3.94994 22.9236 3.94994Z" fill="#424551"/>
</svg>
