<svg width="357" height="104" viewBox="0 0 357 104" fill="none" xmlns="http://www.w3.org/2000/svg">
<path d="M0.945312 96.5791H18.6031C27.0924 96.5791 35.0157 92.2908 39.5434 85.0683L51.202 66.6737C55.7296 59.5641 63.653 55.163 72.1423 55.163C79.4997 55.163 86.4043 51.8903 91.0451 46.3606L100.214 35.527C104.968 29.9973 111.872 26.7246 119.116 26.7246H125.682C133.492 26.7246 140.849 30.3359 145.49 36.6555L183.975 87.8896C195.973 105.72 217.253 101.996 217.253 101.996C225.176 101.996 238.306 94.0964 242.947 87.7768L246.003 83.6013C250.644 77.2817 258.115 73.5576 265.925 73.5576H275.772C284.149 73.5576 291.959 69.2693 296.486 62.2725L315.389 33.1571C319.917 26.1604 327.727 21.8721 336.103 21.8721H356.251" stroke="#5A87FC" stroke-width="2.0183" stroke-miterlimit="10"/>
<path d="M64.3249 66.6059C68.5443 64.8724 70.5554 60.057 68.8167 55.8503C67.078 51.6435 62.248 49.6386 58.0286 51.372C53.8092 53.1055 51.7982 57.921 53.5368 62.1277C55.2755 66.3344 60.1055 68.3394 64.3249 66.6059Z" fill="#E2EBF5"/>
<path d="M66.3706 58.9997C66.3706 61.821 63.9936 64.1908 61.1638 64.1908C58.334 64.1908 55.957 61.821 55.957 58.9997C55.957 56.1785 58.334 53.8086 61.1638 53.8086C63.9936 53.8086 66.3706 56.0656 66.3706 58.9997Z" fill="#5A87FC"/>
<path d="M121.154 37.6705C125.717 37.6705 129.417 33.9822 129.417 29.4324C129.417 24.8827 125.717 21.1943 121.154 21.1943C116.59 21.1943 112.891 24.8827 112.891 29.4324C112.891 33.9822 116.59 37.6705 121.154 37.6705Z" fill="#E2EBF5"/>
<path d="M121.154 34.6235C124.03 34.6235 126.361 32.2993 126.361 29.4323C126.361 26.5654 124.03 24.2412 121.154 24.2412C118.278 24.2412 115.947 26.5654 115.947 29.4323C115.947 32.2993 118.278 34.6235 121.154 34.6235Z" fill="#5A87FC"/>
<path d="M336.833 24.847C337.882 20.4192 335.132 15.9822 330.691 14.9366C326.249 13.8911 321.799 16.633 320.75 21.0608C319.702 25.4886 322.452 29.9257 326.893 30.9712C331.334 32.0168 335.785 29.2749 336.833 24.847Z" fill="#E2EBF5"/>
<path d="M328.746 28.0785C331.621 28.0785 333.953 25.7544 333.953 22.8874C333.953 20.0204 331.621 17.6963 328.746 17.6963C325.87 17.6963 323.539 20.0204 323.539 22.8874C323.539 25.7544 325.87 28.0785 328.746 28.0785Z" fill="#5A87FC"/>
<path d="M268.188 73.783C268.188 78.297 264.453 82.0211 259.925 82.0211C255.397 82.0211 251.662 78.297 251.662 73.783C251.662 69.269 255.397 65.5449 259.925 65.5449C264.453 65.5449 268.188 69.1561 268.188 73.783Z" fill="#E2EBF5"/>
<path d="M259.926 78.974C262.801 78.974 265.132 76.6499 265.132 73.7829C265.132 70.9159 262.801 68.5918 259.926 68.5918C257.05 68.5918 254.719 70.9159 254.719 73.7829C254.719 76.6499 257.05 78.974 259.926 78.974Z" fill="#5A87FC"/>
<path d="M114.201 3.15039C114.545 3.15039 114.866 3.20117 115.164 3.30274C115.462 3.4043 115.718 3.55289 115.933 3.7485C116.152 3.94034 116.324 4.17545 116.448 4.45381C116.573 4.73218 116.635 5.04816 116.635 5.40175C116.635 5.70269 116.59 5.98105 116.499 6.23685C116.409 6.49264 116.286 6.73903 116.131 6.97601C115.977 7.20924 115.797 7.43682 115.594 7.65876C115.394 7.87694 115.181 8.10075 114.954 8.33022L112.821 10.5082C112.971 10.4668 113.124 10.4349 113.279 10.4123C113.434 10.386 113.583 10.3728 113.726 10.3728H116.443C116.552 10.3728 116.639 10.4048 116.703 10.4687C116.767 10.5327 116.799 10.6154 116.799 10.717V11.3264H111.389V10.9822C111.389 10.9107 111.402 10.8374 111.428 10.7621C111.458 10.6869 111.506 10.6173 111.57 10.5534L114.168 7.95217C114.383 7.73399 114.579 7.52522 114.756 7.32585C114.933 7.12272 115.084 6.91959 115.209 6.71646C115.337 6.51333 115.435 6.30832 115.503 6.10142C115.571 5.89077 115.605 5.66695 115.605 5.42997C115.605 5.19298 115.567 4.98609 115.492 4.80929C115.416 4.62873 115.313 4.48014 115.181 4.36353C115.049 4.24692 114.894 4.1604 114.716 4.10398C114.539 4.04379 114.349 4.0137 114.145 4.0137C113.941 4.0137 113.752 4.04379 113.579 4.10398C113.405 4.16416 113.251 4.2488 113.115 4.35789C112.983 4.46322 112.87 4.58923 112.775 4.73594C112.685 4.88264 112.621 5.04439 112.583 5.22119C112.553 5.33028 112.507 5.40928 112.447 5.45818C112.387 5.50708 112.307 5.53153 112.209 5.53153C112.19 5.53153 112.17 5.53153 112.147 5.53153C112.128 5.52777 112.106 5.52401 112.079 5.52025L111.553 5.42997C111.606 5.06132 111.707 4.73594 111.858 4.45381C112.009 4.16792 112.2 3.92906 112.43 3.73721C112.664 3.54537 112.93 3.40054 113.228 3.30274C113.53 3.20117 113.854 3.15039 114.201 3.15039Z" fill="#787A80"/>
<path d="M122.901 3.68079C122.901 3.82373 122.856 3.94222 122.765 4.03627C122.675 4.12655 122.522 4.17169 122.307 4.17169H119.76L119.386 6.29327C119.809 6.20299 120.2 6.15785 120.558 6.15785C120.981 6.15785 121.352 6.21992 121.673 6.34405C121.997 6.46819 122.269 6.63934 122.488 6.85752C122.707 7.0757 122.871 7.33337 122.98 7.63055C123.093 7.92772 123.15 8.25122 123.15 8.60106C123.15 9.02989 123.075 9.41734 122.924 9.76342C122.773 10.1095 122.565 10.4067 122.301 10.6549C122.041 10.8994 121.733 11.0875 121.379 11.2192C121.024 11.3508 120.641 11.4167 120.23 11.4167C119.992 11.4167 119.764 11.3922 119.545 11.3433C119.326 11.2982 119.122 11.2361 118.934 11.1571C118.745 11.0781 118.57 10.9878 118.407 10.8863C118.245 10.7847 118.102 10.6775 117.977 10.5647L118.283 10.1358C118.351 10.038 118.441 9.98912 118.555 9.98912C118.626 9.98912 118.709 10.0192 118.804 10.0794C118.902 10.1358 119.019 10.1998 119.154 10.2712C119.29 10.3427 119.449 10.4085 119.63 10.4687C119.815 10.5252 120.034 10.5534 120.286 10.5534C120.569 10.5534 120.824 10.5082 121.05 10.4179C121.277 10.3277 121.469 10.1998 121.628 10.0343C121.79 9.86498 121.914 9.66373 122.001 9.43051C122.088 9.19728 122.131 8.93585 122.131 8.6462C122.131 8.39417 122.094 8.16658 122.018 7.96345C121.946 7.76032 121.835 7.58729 121.684 7.44434C121.537 7.3014 121.352 7.19043 121.13 7.11143C120.907 7.03244 120.647 6.99294 120.349 6.99294C120.145 6.99294 119.934 7.00987 119.715 7.04372C119.496 7.07758 119.27 7.13212 119.036 7.20736L118.402 7.02115L119.058 3.24067H122.901V3.68079Z" fill="#787A80"/>
<path d="M125.556 10.559H127.299V5.04628C127.299 4.88076 127.305 4.71337 127.316 4.54409L125.868 5.7798C125.83 5.8099 125.792 5.83246 125.754 5.84751C125.717 5.8588 125.681 5.86444 125.647 5.86444C125.59 5.86444 125.539 5.85315 125.494 5.83058C125.449 5.80425 125.415 5.77416 125.392 5.7403L125.075 5.30583L127.486 3.22374H128.307V10.559H129.903V11.3264H125.556V10.559Z" fill="#787A80"/>
<path d="M135.608 8.40921H136.837V8.98475C136.837 9.04493 136.818 9.09572 136.78 9.1371C136.746 9.17847 136.691 9.19916 136.616 9.19916H135.608V11.3264H134.72V9.19916H131.126C131.051 9.19916 130.985 9.17847 130.928 9.1371C130.875 9.09196 130.841 9.03741 130.826 8.97346L130.724 8.46L134.669 3.24067H135.608V8.40921ZM134.72 5.07449C134.72 4.97668 134.722 4.87136 134.726 4.75851C134.733 4.64566 134.746 4.52904 134.765 4.40867L131.817 8.40921H134.72V5.07449Z" fill="#787A80"/>
<path d="M258.001 47.2768V47.7282C258.001 47.8561 257.986 47.9614 257.955 48.0442C257.929 48.1269 257.901 48.1965 257.87 48.253L254.514 55.0071C254.465 55.1049 254.397 55.1895 254.311 55.261C254.224 55.3287 254.107 55.3625 253.96 55.3625H253.241L256.648 48.6931C256.697 48.599 256.746 48.5125 256.795 48.4335C256.848 48.3545 256.906 48.2793 256.971 48.2078H252.737C252.673 48.2078 252.615 48.1834 252.562 48.1345C252.513 48.0818 252.488 48.0235 252.488 47.9595V47.2768H258.001Z" fill="#787A80"/>
<path d="M261.709 55.4528C261.305 55.4528 260.935 55.4002 260.599 55.2948C260.263 55.1857 259.975 55.0315 259.733 54.8321C259.492 54.6328 259.305 54.392 259.173 54.1099C259.041 53.824 258.975 53.5043 258.975 53.1507C258.975 52.6316 259.111 52.2046 259.382 51.8698C259.654 51.5313 260.043 51.2905 260.548 51.1476C260.122 50.9896 259.799 50.7545 259.581 50.4423C259.365 50.1263 259.258 49.7501 259.258 49.3138C259.258 49.0166 259.316 48.7382 259.433 48.4787C259.55 48.2191 259.716 47.9934 259.931 47.8016C260.146 47.6097 260.403 47.4592 260.701 47.3502C261.003 47.2411 261.339 47.1865 261.709 47.1865C262.075 47.1865 262.408 47.2411 262.71 47.3502C263.012 47.4592 263.271 47.6097 263.486 47.8016C263.701 47.9934 263.867 48.2191 263.984 48.4787C264.101 48.7382 264.159 49.0166 264.159 49.3138C264.159 49.7501 264.05 50.1263 263.831 50.4423C263.612 50.7545 263.291 50.9896 262.869 51.1476C263.374 51.2905 263.763 51.5313 264.035 51.8698C264.306 52.2046 264.442 52.6316 264.442 53.1507C264.442 53.5043 264.374 53.824 264.238 54.1099C264.106 54.392 263.92 54.6328 263.678 54.8321C263.44 55.0315 263.154 55.1857 262.818 55.2948C262.482 55.4002 262.112 55.4528 261.709 55.4528ZM261.709 54.6516C261.973 54.6516 262.208 54.6158 262.416 54.5444C262.627 54.4691 262.805 54.3657 262.948 54.234C263.095 54.0986 263.206 53.9387 263.282 53.7544C263.361 53.5663 263.401 53.3594 263.401 53.1337C263.401 52.8554 263.354 52.6184 263.259 52.4228C263.169 52.2234 263.044 52.0617 262.886 51.9375C262.731 51.8134 262.552 51.7231 262.348 51.6667C262.144 51.6065 261.931 51.5764 261.709 51.5764C261.486 51.5764 261.273 51.6065 261.069 51.6667C260.865 51.7231 260.684 51.8134 260.526 51.9375C260.371 52.0617 260.246 52.2234 260.152 52.4228C260.062 52.6184 260.016 52.8554 260.016 53.1337C260.016 53.3594 260.054 53.5663 260.13 53.7544C260.209 53.9387 260.32 54.0986 260.463 54.234C260.611 54.3657 260.788 54.4691 260.995 54.5444C261.207 54.6158 261.444 54.6516 261.709 54.6516ZM261.709 50.7695C261.973 50.7695 262.197 50.73 262.382 50.651C262.571 50.5683 262.723 50.4611 262.84 50.3294C262.957 50.194 263.042 50.0398 263.095 49.8667C263.148 49.6937 263.174 49.515 263.174 49.3307C263.174 49.1426 263.142 48.9658 263.078 48.8003C263.018 48.6348 262.925 48.4899 262.801 48.3658C262.68 48.2417 262.527 48.1439 262.342 48.0724C262.161 48.0009 261.95 47.9652 261.709 47.9652C261.467 47.9652 261.254 48.0009 261.069 48.0724C260.888 48.1439 260.735 48.2417 260.611 48.3658C260.49 48.4899 260.397 48.6348 260.333 48.8003C260.273 48.9658 260.243 49.1426 260.243 49.3307C260.243 49.515 260.269 49.6937 260.322 49.8667C260.375 50.0398 260.46 50.194 260.577 50.3294C260.694 50.4611 260.844 50.5683 261.029 50.651C261.218 50.73 261.444 50.7695 261.709 50.7695Z" fill="#787A80"/>
<path d="M268.105 52.0447C267.799 52.0447 267.509 51.994 267.233 51.8924C266.961 51.7908 266.722 51.6422 266.514 51.4466C266.307 51.2473 266.141 51.0046 266.016 50.7187C265.896 50.4291 265.835 50.0981 265.835 49.7257C265.835 49.3721 265.901 49.041 266.033 48.7326C266.165 48.4241 266.35 48.1552 266.588 47.9257C266.826 47.6962 267.109 47.5157 267.437 47.384C267.765 47.2524 268.125 47.1865 268.518 47.1865C268.906 47.1865 269.259 47.2505 269.576 47.3784C269.893 47.5063 270.165 47.6849 270.391 47.9144C270.617 48.1439 270.791 48.4185 270.912 48.7382C271.036 49.058 271.099 49.4116 271.099 49.799C271.099 50.0322 271.076 50.2542 271.031 50.4648C270.989 50.6717 270.927 50.8749 270.844 51.0742C270.761 51.2736 270.661 51.473 270.544 51.6723C270.431 51.8679 270.301 52.0711 270.153 52.2817L268.178 55.1256C268.129 55.197 268.059 55.2553 267.969 55.3005C267.878 55.3419 267.775 55.3625 267.658 55.3625H266.729L269.197 52.1407C269.28 52.0316 269.357 51.9281 269.429 51.8303C269.501 51.7325 269.569 51.6347 269.633 51.5369C269.425 51.7024 269.191 51.8284 268.931 51.915C268.671 52.0015 268.395 52.0447 268.105 52.0447ZM270.131 49.6805C270.131 49.4285 270.089 49.2009 270.006 48.9978C269.927 48.7909 269.816 48.616 269.672 48.473C269.529 48.3301 269.357 48.221 269.157 48.1458C268.961 48.0668 268.744 48.0273 268.506 48.0273C268.257 48.0273 268.029 48.0686 267.822 48.1514C267.618 48.2304 267.442 48.3414 267.295 48.4843C267.152 48.6272 267.041 48.7984 266.961 48.9978C266.882 49.1971 266.843 49.4153 266.843 49.6523C266.843 49.9081 266.878 50.1376 266.95 50.3407C267.026 50.5401 267.131 50.7093 267.267 50.8485C267.407 50.9877 267.575 51.093 267.771 51.1645C267.971 51.236 268.193 51.2717 268.439 51.2717C268.71 51.2717 268.95 51.2285 269.157 51.1419C269.369 51.0517 269.546 50.9332 269.689 50.7865C269.833 50.6397 269.942 50.4705 270.018 50.2786C270.093 50.0868 270.131 49.8874 270.131 49.6805Z" fill="#787A80"/>
<path d="M56.4269 41.0261C56.0232 41.0261 55.6534 40.9734 55.3176 40.8681C54.9818 40.759 54.6932 40.6048 54.4517 40.4054C54.2103 40.206 54.0235 39.9653 53.8914 39.6832C53.7594 39.3973 53.6934 39.0775 53.6934 38.7239C53.6934 38.2048 53.8292 37.7779 54.1008 37.4431C54.3725 37.1045 54.7611 36.8638 55.2667 36.7208C54.8404 36.5628 54.5178 36.3277 54.2989 36.0155C54.0839 35.6995 53.9763 35.3234 53.9763 34.887C53.9763 34.5898 54.0348 34.3115 54.1518 34.0519C54.2687 33.7923 54.4348 33.5666 54.6498 33.3748C54.8649 33.183 55.1214 33.0325 55.4195 32.9234C55.7214 32.8143 56.0572 32.7598 56.4269 32.7598C56.7929 32.7598 57.1268 32.8143 57.4287 32.9234C57.7305 33.0325 57.9889 33.183 58.204 33.3748C58.4191 33.5666 58.5851 33.7923 58.702 34.0519C58.819 34.3115 58.8775 34.5898 58.8775 34.887C58.8775 35.3234 58.7681 35.6995 58.5492 36.0155C58.3304 36.3277 58.0097 36.5628 57.5871 36.7208C58.0927 36.8638 58.4813 37.1045 58.753 37.4431C59.0246 37.7779 59.1605 38.2048 59.1605 38.7239C59.1605 39.0775 59.0926 39.3973 58.9567 39.6832C58.8247 39.9653 58.6379 40.206 58.3964 40.4054C58.1587 40.6048 57.872 40.759 57.5362 40.8681C57.2004 40.9734 56.8306 41.0261 56.4269 41.0261ZM56.4269 40.2248C56.691 40.2248 56.9268 40.1891 57.1344 40.1176C57.3456 40.0424 57.523 39.9389 57.6664 39.8073C57.8135 39.6719 57.9248 39.512 58.0003 39.3277C58.0795 39.1396 58.1191 38.9327 58.1191 38.707C58.1191 38.4286 58.072 38.1916 57.9776 37.996C57.8871 37.7967 57.7626 37.6349 57.6041 37.5108C57.4494 37.3866 57.2702 37.2964 57.0664 37.2399C56.8627 37.1798 56.6495 37.1497 56.4269 37.1497C56.2043 37.1497 55.9911 37.1798 55.7874 37.2399C55.5836 37.2964 55.4025 37.3866 55.2441 37.5108C55.0894 37.6349 54.9649 37.7967 54.8705 37.996C54.78 38.1916 54.7347 38.4286 54.7347 38.707C54.7347 38.9327 54.7724 39.1396 54.8479 39.3277C54.9271 39.512 55.0384 39.6719 55.1818 39.8073C55.329 39.9389 55.5063 40.0424 55.7138 40.1176C55.9251 40.1891 56.1628 40.2248 56.4269 40.2248ZM56.4269 36.3428C56.691 36.3428 56.9155 36.3033 57.1004 36.2243C57.2891 36.1415 57.4419 36.0343 57.5588 35.9027C57.6758 35.7672 57.7607 35.613 57.8135 35.44C57.8663 35.2669 57.8927 35.0883 57.8927 34.9039C57.8927 34.7158 57.8607 34.539 57.7965 34.3735C57.7362 34.208 57.6437 34.0632 57.5192 33.9391C57.3985 33.8149 57.2457 33.7171 57.0608 33.6456C56.8797 33.5742 56.6684 33.5384 56.4269 33.5384C56.1854 33.5384 55.9723 33.5742 55.7874 33.6456C55.6063 33.7171 55.4535 33.8149 55.329 33.9391C55.2082 34.0632 55.1158 34.208 55.0516 34.3735C54.9913 34.539 54.9611 34.7158 54.9611 34.9039C54.9611 35.0883 54.9875 35.2669 55.0403 35.44C55.0932 35.613 55.178 35.7672 55.295 35.9027C55.412 36.0343 55.5629 36.1415 55.7478 36.2243C55.9364 36.3033 56.1628 36.3428 56.4269 36.3428Z" fill="#787A80"/>
<path d="M63.1174 32.7598C63.4607 32.7598 63.7814 32.8105 64.0795 32.9121C64.3776 33.0137 64.6341 33.1623 64.8492 33.3579C65.068 33.5497 65.2397 33.7848 65.3642 34.0632C65.4887 34.3416 65.551 34.6575 65.551 35.0111C65.551 35.3121 65.5057 35.5904 65.4151 35.8462C65.3246 36.102 65.202 36.3484 65.0473 36.5854C64.8926 36.8186 64.7134 37.0462 64.5096 37.2681C64.3096 37.4863 64.0965 37.7101 63.8701 37.9396L61.7364 40.1176C61.8874 40.0763 62.0402 40.0443 62.1949 40.0217C62.3496 39.9954 62.4986 39.9822 62.642 39.9822H65.3585C65.468 39.9822 65.5547 40.0142 65.6189 40.0781C65.683 40.1421 65.7151 40.2248 65.7151 40.3264V40.9358H60.3046V40.5916C60.3046 40.5201 60.3178 40.4468 60.3442 40.3715C60.3744 40.2963 60.4215 40.2267 60.4857 40.1628L63.0834 37.5616C63.2985 37.3434 63.4947 37.1346 63.672 36.9352C63.8493 36.7321 64.0003 36.529 64.1248 36.3258C64.253 36.1227 64.3511 35.9177 64.4191 35.7108C64.487 35.5002 64.5209 35.2763 64.5209 35.0393C64.5209 34.8024 64.4832 34.5955 64.4077 34.4187C64.3323 34.2381 64.2285 34.0895 64.0965 33.9729C63.9644 33.8563 63.8097 33.7698 63.6324 33.7134C63.4551 33.6532 63.2645 33.6231 63.0608 33.6231C62.857 33.6231 62.6684 33.6532 62.4948 33.7134C62.3213 33.7735 62.1666 33.8582 62.0307 33.9673C61.8987 34.0726 61.7855 34.1986 61.6912 34.3453C61.6006 34.492 61.5365 34.6538 61.4987 34.8306C61.4686 34.9397 61.4233 35.0187 61.3629 35.0676C61.3025 35.1165 61.2233 35.1409 61.1252 35.1409C61.1063 35.1409 61.0856 35.1409 61.063 35.1409C61.0441 35.1372 61.0215 35.1334 60.995 35.1296L60.4687 35.0393C60.5215 34.6707 60.6234 34.3453 60.7743 34.0632C60.9252 33.7773 61.1158 33.5384 61.3459 33.3466C61.5799 33.1547 61.8459 33.0099 62.1439 32.9121C62.4458 32.8105 62.7703 32.7598 63.1174 32.7598Z" fill="#787A80"/>
<path d="M71.817 33.2902C71.817 33.4331 71.7717 33.5516 71.6811 33.6456C71.5906 33.7359 71.4378 33.7811 71.2227 33.7811H68.6759L68.3024 35.9027C68.725 35.8124 69.1155 35.7672 69.4739 35.7672C69.8965 35.7672 70.2681 35.8293 70.5888 35.9534C70.9133 36.0776 71.185 36.2487 71.4038 36.4669C71.6226 36.6851 71.7868 36.9428 71.8962 37.2399C72.0094 37.5371 72.066 37.8606 72.066 38.2105C72.066 38.6393 71.9905 39.0267 71.8396 39.3728C71.6887 39.7189 71.4812 40.0161 71.217 40.2643C70.9567 40.5088 70.6492 40.6969 70.2945 40.8286C69.9399 40.9602 69.5569 41.0261 69.1457 41.0261C68.908 41.0261 68.6797 41.0016 68.4609 40.9527C68.242 40.9076 68.0383 40.8455 67.8496 40.7665C67.661 40.6875 67.4855 40.5972 67.3233 40.4957C67.161 40.3941 67.0177 40.2869 66.8932 40.1741L67.1988 39.7452C67.2667 39.6474 67.3572 39.5985 67.4704 39.5985C67.5421 39.5985 67.6251 39.6286 67.7195 39.6888C67.8176 39.7452 67.9345 39.8092 68.0703 39.8806C68.2062 39.9521 68.3646 40.0179 68.5457 40.0781C68.7306 40.1346 68.9495 40.1628 69.2023 40.1628C69.4852 40.1628 69.7399 40.1176 69.9663 40.0273C70.1927 39.9371 70.3851 39.8092 70.5436 39.6437C70.7058 39.4744 70.8303 39.2731 70.9171 39.0399C71.0039 38.8067 71.0473 38.5452 71.0473 38.2556C71.0473 38.0036 71.0095 37.776 70.9341 37.5728C70.8624 37.3697 70.7511 37.1967 70.6002 37.0537C70.453 36.9108 70.2681 36.7998 70.0455 36.7208C69.8229 36.6418 69.5626 36.6023 69.2645 36.6023C69.0608 36.6023 68.8495 36.6193 68.6306 36.6531C68.4118 36.687 68.1854 36.7415 67.9515 36.8167L67.3176 36.6305L67.9741 32.85H71.817V33.2902Z" fill="#787A80"/>
<path d="M321.479 0.87207C321.822 0.87207 322.143 0.922853 322.441 1.02442C322.739 1.12598 322.996 1.27457 323.211 1.47018C323.429 1.66202 323.601 1.89713 323.726 2.17549C323.85 2.45386 323.912 2.76984 323.912 3.12344C323.912 3.42437 323.867 3.70274 323.777 3.95853C323.686 4.21432 323.563 4.46072 323.409 4.6977C323.254 4.93093 323.075 5.15851 322.871 5.38045C322.671 5.59862 322.458 5.82244 322.232 6.05191L320.098 8.22992C320.249 8.18854 320.402 8.15657 320.556 8.134C320.711 8.10767 320.86 8.0945 321.003 8.0945H323.72C323.829 8.0945 323.916 8.12647 323.98 8.19042C324.044 8.25437 324.077 8.33713 324.077 8.43869V9.04809H318.666V8.70389C318.666 8.63242 318.679 8.55907 318.706 8.48383C318.736 8.4086 318.783 8.33901 318.847 8.27506L321.445 5.67386C321.66 5.45568 321.856 5.24691 322.033 5.04754C322.211 4.84441 322.362 4.64128 322.486 4.43815C322.614 4.23501 322.713 4.03 322.78 3.82311C322.848 3.61246 322.882 3.38864 322.882 3.15165C322.882 2.91466 322.845 2.70777 322.769 2.53097C322.694 2.35041 322.59 2.20182 322.458 2.08521C322.326 1.9686 322.171 1.88208 321.994 1.82566C321.816 1.76547 321.626 1.73538 321.422 1.73538C321.218 1.73538 321.03 1.76547 320.856 1.82566C320.683 1.88584 320.528 1.97048 320.392 2.07957C320.26 2.1849 320.147 2.31091 320.053 2.45762C319.962 2.60432 319.898 2.76608 319.86 2.94288C319.83 3.05197 319.785 3.13096 319.724 3.17986C319.664 3.22876 319.585 3.25322 319.487 3.25322C319.468 3.25322 319.447 3.25322 319.424 3.25322C319.406 3.24945 319.383 3.24569 319.356 3.24193L318.83 3.15165C318.883 2.78301 318.985 2.45762 319.136 2.17549C319.287 1.88961 319.477 1.65074 319.707 1.45889C319.941 1.26705 320.207 1.12222 320.505 1.02442C320.807 0.922853 321.132 0.87207 321.479 0.87207Z" fill="#787A80"/>
<path d="M327.75 5.73028C327.445 5.73028 327.154 5.6795 326.879 5.57794C326.607 5.47637 326.368 5.32778 326.16 5.13218C325.953 4.93281 325.787 4.69018 325.662 4.40429C325.541 4.11464 325.481 3.78361 325.481 3.41121C325.481 3.05761 325.547 2.72658 325.679 2.41812C325.811 2.10966 325.996 1.8407 326.234 1.61124C326.471 1.38178 326.754 1.20122 327.083 1.06956C327.411 0.9379 327.771 0.87207 328.164 0.87207C328.552 0.87207 328.905 0.936019 329.222 1.06392C329.539 1.19181 329.81 1.37049 330.037 1.59996C330.263 1.82942 330.437 2.10402 330.558 2.42376C330.682 2.74351 330.744 3.09711 330.744 3.48456C330.744 3.71778 330.722 3.93972 330.676 4.15038C330.635 4.35727 330.573 4.5604 330.49 4.75977C330.407 4.95914 330.307 5.15851 330.19 5.35788C330.076 5.55348 329.946 5.75661 329.799 5.96727L327.824 8.8111C327.775 8.88257 327.705 8.94088 327.615 8.98602C327.524 9.0274 327.42 9.04809 327.303 9.04809H326.375L328.843 5.82621C328.926 5.71712 329.003 5.61367 329.075 5.51587C329.146 5.41806 329.214 5.32026 329.278 5.22246C329.071 5.38797 328.837 5.51399 328.577 5.6005C328.316 5.68702 328.041 5.73028 327.75 5.73028ZM329.777 3.36607C329.777 3.11403 329.735 2.88645 329.652 2.68332C329.573 2.47643 329.461 2.30151 329.318 2.15857C329.175 2.01562 329.003 1.90653 328.803 1.8313C328.607 1.7523 328.39 1.71281 328.152 1.71281C327.903 1.71281 327.675 1.75418 327.467 1.83694C327.264 1.91594 327.088 2.02691 326.941 2.16985C326.798 2.31279 326.686 2.48395 326.607 2.68332C326.528 2.88269 326.488 3.10087 326.488 3.33785C326.488 3.59365 326.524 3.82311 326.596 4.02624C326.671 4.22561 326.777 4.39489 326.913 4.53407C327.052 4.67325 327.22 4.77858 327.417 4.85005C327.616 4.92152 327.839 4.95726 328.084 4.95726C328.356 4.95726 328.596 4.914 328.803 4.82748C329.014 4.7372 329.192 4.61871 329.335 4.472C329.478 4.32529 329.588 4.15602 329.663 3.96417C329.739 3.77233 329.777 3.57296 329.777 3.36607Z" fill="#787A80"/>
<path d="M336.744 1.40247C336.744 1.54541 336.699 1.6639 336.608 1.75795C336.518 1.84823 336.365 1.89337 336.15 1.89337H333.603L333.23 4.01496C333.652 3.92468 334.043 3.87953 334.401 3.87953C334.824 3.87953 335.195 3.9416 335.516 4.06574C335.841 4.18987 336.112 4.36103 336.331 4.57921C336.55 4.79739 336.714 5.05506 336.823 5.35223C336.937 5.64941 336.993 5.97291 336.993 6.32275C336.993 6.75158 336.918 7.13903 336.767 7.48511C336.616 7.83118 336.408 8.12836 336.144 8.37663C335.884 8.62114 335.577 8.80922 335.222 8.94088C334.867 9.07254 334.484 9.13837 334.073 9.13837C333.835 9.13837 333.607 9.11392 333.388 9.06501C333.169 9.01987 332.966 8.95781 332.777 8.87881C332.588 8.79982 332.413 8.70953 332.251 8.60797C332.088 8.5064 331.945 8.3992 331.82 8.28635L332.126 7.85751C332.194 7.75971 332.285 7.71081 332.398 7.71081C332.469 7.71081 332.552 7.7409 332.647 7.80109C332.745 7.85751 332.862 7.92146 332.998 7.99293C333.133 8.06441 333.292 8.13024 333.473 8.19042C333.658 8.24685 333.877 8.27506 334.13 8.27506C334.413 8.27506 334.667 8.22992 334.894 8.13964C335.12 8.04936 335.312 7.92146 335.471 7.75595C335.633 7.58667 335.758 7.38542 335.844 7.1522C335.931 6.91897 335.975 6.65754 335.975 6.36789C335.975 6.11586 335.937 5.88827 335.861 5.68514C335.79 5.48201 335.678 5.30897 335.527 5.16603C335.38 5.02309 335.195 4.91212 334.973 4.83312C334.75 4.75413 334.49 4.71463 334.192 4.71463C333.988 4.71463 333.777 4.73156 333.558 4.76541C333.339 4.79927 333.113 4.85381 332.879 4.92904L332.245 4.74284L332.901 0.962351H336.744V1.40247Z" fill="#787A80"/>
<path d="M342.886 6.1309H344.114V6.70644C344.114 6.76663 344.095 6.81741 344.057 6.85879C344.023 6.90017 343.969 6.92086 343.893 6.92086H342.886V9.04809H341.997V6.92086H338.403C338.328 6.92086 338.262 6.90017 338.205 6.85879C338.152 6.81365 338.119 6.7591 338.103 6.69515L338.002 6.18168L341.946 0.962351H342.886V6.1309ZM341.997 2.79617C341.997 2.69837 341.999 2.59304 342.003 2.48019C342.01 2.36734 342.024 2.25073 342.042 2.13035L339.094 6.1309H341.997V2.79617Z" fill="#787A80"/>
</svg>
