<svg width="20" height="10" viewBox="0 0 20 10" fill="none" xmlns="http://www.w3.org/2000/svg">
<path d="M1.49678 8.43182H3.36057V2.51112C3.36057 2.33336 3.36663 2.15357 3.37873 1.97177L1.8296 3.29893C1.78926 3.33125 1.74892 3.35549 1.70858 3.37165C1.66823 3.38377 1.62991 3.38983 1.5936 3.38983C1.53309 3.38983 1.47863 3.37771 1.43022 3.35347C1.38181 3.32519 1.3455 3.29287 1.32129 3.25651L0.982422 2.78988L3.56027 0.553711H4.4377V8.43182H6.14416V9.25599H1.49678V8.43182Z" fill="#787A80"/>
<path d="M12.6986 1.04458C12.6986 1.1981 12.6502 1.32536 12.5534 1.42636C12.4566 1.52332 12.2932 1.57181 12.0633 1.57181H9.34018L8.9408 3.8504C9.39262 3.75343 9.81016 3.70495 10.1934 3.70495C10.6452 3.70495 11.0426 3.77162 11.3855 3.90494C11.7325 4.03826 12.0229 4.22208 12.2569 4.4564C12.4909 4.69073 12.6664 4.96747 12.7834 5.28664C12.9044 5.6058 12.9649 5.95324 12.9649 6.32897C12.9649 6.78954 12.8842 7.20566 12.7228 7.57735C12.5615 7.94903 12.3396 8.2682 12.0572 8.53484C11.7788 8.79744 11.4501 8.99945 11.0708 9.14085C10.6916 9.28225 10.2822 9.35295 9.84244 9.35295C9.58828 9.35295 9.34422 9.32669 9.11023 9.27417C8.87625 9.22569 8.6584 9.15903 8.45669 9.07419C8.25499 8.98935 8.0674 8.89238 7.89393 8.7833C7.72046 8.67422 7.56716 8.55908 7.43403 8.43788L7.7608 7.97731C7.83341 7.87227 7.93023 7.81975 8.05126 7.81975C8.12791 7.81975 8.21666 7.85207 8.31751 7.91671C8.4224 7.97731 8.54746 8.04599 8.69269 8.12275C8.83792 8.19952 9.00736 8.27022 9.201 8.33486C9.39868 8.39546 9.63266 8.42576 9.90295 8.42576C10.2055 8.42576 10.4778 8.37728 10.7199 8.28032C10.9619 8.18336 11.1677 8.04599 11.3371 7.86823C11.5106 7.68643 11.6437 7.47028 11.7365 7.2198C11.8293 6.96932 11.8757 6.68853 11.8757 6.37745C11.8757 6.10677 11.8353 5.86234 11.7546 5.64418C11.678 5.42602 11.559 5.24018 11.3976 5.08665C11.2403 4.93313 11.0426 4.81395 10.8046 4.72911C10.5666 4.64427 10.2882 4.60185 9.96951 4.60185C9.75167 4.60185 9.52575 4.62003 9.29177 4.65639C9.05779 4.69275 8.81574 4.75133 8.56562 4.83213L7.88787 4.63215L8.58982 0.571891H12.6986V1.04458Z" fill="#787A80"/>
<path d="M19.7191 1.04458C19.7191 1.1981 19.6707 1.32536 19.5738 1.42636C19.477 1.52332 19.3136 1.57181 19.0837 1.57181H16.3606L15.9612 3.8504C16.4131 3.75343 16.8306 3.70495 17.2138 3.70495C17.6657 3.70495 18.063 3.77162 18.4059 3.90494C18.7529 4.03826 19.0433 4.22208 19.2773 4.4564C19.5113 4.69073 19.6868 4.96747 19.8038 5.28664C19.9248 5.6058 19.9853 5.95324 19.9853 6.32897C19.9853 6.78954 19.9046 7.20566 19.7433 7.57735C19.5819 7.94903 19.36 8.2682 19.0776 8.53484C18.7993 8.79744 18.4705 8.99945 18.0913 9.14085C17.7121 9.28225 17.3026 9.35295 16.8629 9.35295C16.6087 9.35295 16.3646 9.32669 16.1307 9.27417C15.8967 9.22569 15.6788 9.15903 15.4771 9.07419C15.2754 8.98935 15.0878 8.89238 14.9144 8.7833C14.7409 8.67422 14.5876 8.55908 14.4545 8.43788L14.7812 7.97731C14.8538 7.87227 14.9507 7.81975 15.0717 7.81975C15.1483 7.81975 15.2371 7.85207 15.3379 7.91671C15.4428 7.97731 15.5679 8.04599 15.7131 8.12275C15.8584 8.19952 16.0278 8.27022 16.2214 8.33486C16.4191 8.39546 16.6531 8.42576 16.9234 8.42576C17.2259 8.42576 17.4982 8.37728 17.7403 8.28032C17.9823 8.18336 18.1881 8.04599 18.3575 7.86823C18.531 7.68643 18.6641 7.47028 18.7569 7.2198C18.8497 6.96932 18.8961 6.68853 18.8961 6.37745C18.8961 6.10677 18.8557 5.86234 18.7751 5.64418C18.6984 5.42602 18.5794 5.24018 18.418 5.08665C18.2607 4.93313 18.063 4.81395 17.825 4.72911C17.587 4.64427 17.3086 4.60185 16.9899 4.60185C16.7721 4.60185 16.5462 4.62003 16.3122 4.65639C16.0782 4.69275 15.8362 4.75133 15.586 4.83213L14.9083 4.63215L15.6102 0.571891H19.7191V1.04458Z" fill="#787A80"/>
</svg>
