<svg width="119" height="120" viewBox="0 0 119 120" fill="none" xmlns="http://www.w3.org/2000/svg">
<path d="M59.4418 119.646C26.6549 119.646 0.0292969 92.982 0.0292969 60.1474C0.0292969 27.3128 26.6549 0.648438 59.4418 0.648438C92.2287 0.648438 118.854 27.3128 118.854 60.1474C118.854 92.982 92.2287 119.646 59.4418 119.646ZM59.4418 9.90384C31.826 9.90384 9.27124 32.3812 9.27124 60.1474C9.27124 87.9136 31.716 110.391 59.4418 110.391C87.0576 110.391 109.612 87.9136 109.612 60.1474C109.612 32.3812 87.1676 9.90384 59.4418 9.90384Z" fill="#E2EBF5"/>
<path d="M59.442 0.647461C56.6914 0.647461 54.601 2.96131 54.821 5.7159C55.0411 8.13993 57.1315 9.90286 59.552 9.90286C87.1678 10.013 109.502 32.4904 109.502 60.1465C109.502 87.8025 87.0578 110.39 59.332 110.39C45.4691 110.39 32.4863 104.55 23.1343 94.8542C21.374 93.0913 18.5134 92.8709 16.643 94.5236C14.6626 96.2866 14.5526 99.3717 16.3129 101.245C19.5036 104.661 23.1344 107.635 27.2052 110.17C36.7772 116.34 47.8896 119.535 59.332 119.535C92.1189 119.535 118.744 92.8709 118.744 60.0363C118.744 27.2016 92.2289 0.647461 59.442 0.647461Z" fill="#5A87FC"/>
</svg>
