<svg width="24" height="8" viewBox="0 0 24 8" fill="none" xmlns="http://www.w3.org/2000/svg">
<path d="M4.78201 7.61532H0.193274V6.97751L2.61751 4.29201C2.97666 3.88599 3.22357 3.5567 3.35825 3.30413C3.49614 3.04837 3.56508 2.78462 3.56508 2.51287C3.56508 2.14841 3.45445 1.84949 3.23319 1.6161C3.01193 1.38272 2.71692 1.26603 2.34815 1.26603C1.90563 1.26603 1.56092 1.39231 1.314 1.64488C1.0703 1.89425 0.948444 2.24272 0.948444 2.6903H0.0585938C0.0585938 2.0477 0.265424 1.52819 0.679084 1.13176C1.09595 0.735325 1.65231 0.537109 2.34815 0.537109C2.99911 0.537109 3.51378 0.70815 3.89216 1.05023C4.27055 1.38912 4.45974 1.84149 4.45974 2.40737C4.45974 3.09473 4.02043 3.91316 3.1418 4.86268L1.2659 6.89119H4.78201V7.61532Z" fill="#1E212C"/>
<path d="M10.1163 4.63729C10.1163 5.67632 9.93833 6.4484 9.58239 6.95353C9.22645 7.45866 8.6701 7.71123 7.91332 7.71123C7.16617 7.71123 6.61302 7.46506 6.25387 6.97271C5.89473 6.47718 5.70874 5.73866 5.69591 4.75718V3.57268C5.69591 2.54644 5.87388 1.78395 6.22982 1.28521C6.58576 0.786477 7.14372 0.537109 7.9037 0.537109C8.65727 0.537109 9.21202 0.778485 9.56796 1.26123C9.9239 1.74079 10.1067 2.4825 10.1163 3.48636V4.63729ZM9.22645 3.42402C9.22645 2.67272 9.12063 2.12603 8.90899 1.78395C8.69735 1.43867 8.36226 1.26603 7.9037 1.26603C7.44836 1.26603 7.11647 1.43707 6.90803 1.77915C6.6996 2.12123 6.59218 2.64714 6.58576 3.35688V4.77636C6.58576 5.53086 6.69479 6.08874 6.91284 6.45C7.1341 6.80807 7.4676 6.9871 7.91332 6.9871C8.35264 6.9871 8.67811 6.81766 8.88975 6.47878C9.1046 6.13989 9.21684 5.60599 9.22645 4.87707V3.42402Z" fill="#1E212C"/>
<path d="M11.3188 7.15015C11.3188 6.99669 11.3637 6.86881 11.4535 6.76651C11.5465 6.6642 11.6844 6.61305 11.8671 6.61305C12.0499 6.61305 12.1878 6.6642 12.2808 6.76651C12.377 6.86881 12.4251 6.99669 12.4251 7.15015C12.4251 7.29721 12.377 7.4203 12.2808 7.51941C12.1878 7.61851 12.0499 7.66807 11.8671 7.66807C11.6844 7.66807 11.5465 7.61851 11.4535 7.51941C11.3637 7.4203 11.3188 7.29721 11.3188 7.15015ZM11.3236 2.91569C11.3236 2.76224 11.3685 2.63436 11.4583 2.53205C11.5513 2.42975 11.6892 2.37859 11.872 2.37859C12.0547 2.37859 12.1926 2.42975 12.2856 2.53205C12.3818 2.63436 12.4299 2.76224 12.4299 2.91569C12.4299 3.06276 12.3818 3.18584 12.2856 3.28495C12.1926 3.38406 12.0547 3.43361 11.872 3.43361C11.6892 3.43361 11.5513 3.38406 11.4583 3.28495C11.3685 3.18584 11.3236 3.06276 11.3236 2.91569Z" fill="#1E212C"/>
<path d="M18.0336 4.63729C18.0336 5.67632 17.8556 6.4484 17.4997 6.95353C17.1437 7.45866 16.5874 7.71123 15.8306 7.71123C15.0834 7.71123 14.5303 7.46506 14.1711 6.97271C13.812 6.47718 13.626 5.73866 13.6132 4.75718V3.57268C13.6132 2.54644 13.7911 1.78395 14.1471 1.28521C14.503 0.786477 15.061 0.537109 15.821 0.537109C16.5745 0.537109 17.1293 0.778485 17.4852 1.26123C17.8412 1.74079 18.0239 2.4825 18.0336 3.48636V4.63729ZM17.1437 3.42402C17.1437 2.67272 17.0379 2.12603 16.8263 1.78395C16.6146 1.43867 16.2795 1.26603 15.821 1.26603C15.3656 1.26603 15.0337 1.43707 14.8253 1.77915C14.6169 2.12123 14.5094 2.64714 14.503 3.35688V4.77636C14.503 5.53086 14.6121 6.08874 14.8301 6.45C15.0514 6.80807 15.3849 6.9871 15.8306 6.9871C16.2699 6.9871 16.5954 6.81766 16.807 6.47878C17.0219 6.13989 17.1341 5.60599 17.1437 4.87707V3.42402Z" fill="#1E212C"/>
<path d="M23.5651 4.63729C23.5651 5.67632 23.3871 6.4484 23.0312 6.95353C22.6752 7.45866 22.1189 7.71123 21.3621 7.71123C20.6149 7.71123 20.0618 7.46506 19.7026 6.97271C19.3435 6.47718 19.1575 5.73866 19.1447 4.75718V3.57268C19.1447 2.54644 19.3226 1.78395 19.6786 1.28521C20.0345 0.786477 20.5925 0.537109 21.3525 0.537109C22.106 0.537109 22.6608 0.778485 23.0167 1.26123C23.3727 1.74079 23.5554 2.4825 23.5651 3.48636V4.63729ZM22.6752 3.42402C22.6752 2.67272 22.5694 2.12603 22.3578 1.78395C22.1461 1.43867 21.811 1.26603 21.3525 1.26603C20.8971 1.26603 20.5652 1.43707 20.3568 1.77915C20.1484 2.12123 20.0409 2.64714 20.0345 3.35688V4.77636C20.0345 5.53086 20.1436 6.08874 20.3616 6.45C20.5829 6.80807 20.9164 6.9871 21.3621 6.9871C21.8014 6.9871 22.1269 6.81766 22.3385 6.47878C22.5534 6.13989 22.6656 5.60599 22.6752 4.87707V3.42402Z" fill="#1E212C"/>
</svg>
