<svg width="17" height="8" viewBox="0 0 17 8" fill="none" xmlns="http://www.w3.org/2000/svg">
<path d="M0.767077 6.78506H2.37179V1.6961C2.37179 1.54331 2.377 1.38878 2.38742 1.23252L1.05363 2.37324C1.0189 2.40102 0.984164 2.42185 0.94943 2.43574C0.914696 2.44616 0.881699 2.45137 0.850438 2.45137C0.798338 2.45137 0.751447 2.44095 0.709766 2.42012C0.668085 2.39581 0.636824 2.36803 0.615984 2.33678L0.324219 1.9357L2.54372 0.0136719H3.29918V6.78506H4.76843V7.49345H0.767077V6.78506Z" fill="#787A80"/>
<path d="M10.4118 0.435582C10.4118 0.567537 10.3701 0.676921 10.2867 0.763733C10.2034 0.847074 10.0627 0.888744 9.86472 0.888744H7.52017L7.17631 2.84724C7.56533 2.7639 7.92483 2.72223 8.2548 2.72223C8.64382 2.72223 8.98595 2.77952 9.28119 2.89412C9.5799 3.00871 9.82998 3.16671 10.0314 3.36811C10.2329 3.56952 10.384 3.80738 10.4847 4.08171C10.5889 4.35604 10.641 4.65468 10.641 4.97762C10.641 5.37348 10.5716 5.73115 10.4326 6.05062C10.2937 6.37009 10.1026 6.64442 9.85951 6.87361C9.61984 7.09932 9.33676 7.27295 9.01026 7.39448C8.68376 7.51602 8.33121 7.57679 7.95261 7.57679C7.73379 7.57679 7.52365 7.55422 7.32219 7.50908C7.12073 7.46741 6.93317 7.41011 6.7595 7.33719C6.58583 7.26426 6.42432 7.18092 6.27496 7.08717C6.12561 6.99341 5.99362 6.89444 5.87899 6.79027L6.16034 6.3944C6.22286 6.30412 6.30622 6.25897 6.41042 6.25897C6.47642 6.25897 6.55283 6.28675 6.63967 6.34231C6.72998 6.3944 6.83765 6.45343 6.96269 6.51941C7.08774 6.58539 7.23362 6.64616 7.40034 6.70172C7.57054 6.75381 7.772 6.77985 8.00471 6.77985C8.26522 6.77985 8.49967 6.73818 8.70808 6.65484C8.91648 6.5715 9.09362 6.45343 9.23951 6.30064C9.38886 6.14438 9.50348 5.9586 9.58337 5.74331C9.66326 5.52801 9.70321 5.28667 9.70321 5.01929C9.70321 4.78663 9.66847 4.57654 9.599 4.38903C9.53301 4.20151 9.43054 4.04178 9.29161 3.90982C9.15614 3.77787 8.98595 3.67543 8.78102 3.60251C8.57609 3.52958 8.33642 3.49312 8.06202 3.49312C7.87446 3.49312 7.67995 3.50875 7.47849 3.54C7.27704 3.57125 7.06863 3.62161 6.85328 3.69106L6.26975 3.51917L6.87412 0.0292984H10.4118V0.435582Z" fill="#787A80"/>
<path d="M16.4563 0.435582C16.4563 0.567537 16.4146 0.676921 16.3313 0.763733C16.2479 0.847074 16.1072 0.888744 15.9092 0.888744H13.5647L13.2208 2.84724C13.6099 2.7639 13.9693 2.72223 14.2993 2.72223C14.6883 2.72223 15.0305 2.77952 15.3257 2.89412C15.6244 3.00871 15.8745 3.16671 16.076 3.36811C16.2774 3.56952 16.4285 3.80738 16.5292 4.08171C16.6334 4.35604 16.6855 4.65468 16.6855 4.97762C16.6855 5.37348 16.6161 5.73115 16.4771 6.05062C16.3382 6.37009 16.1472 6.64442 15.904 6.87361C15.6644 7.09932 15.3813 7.27295 15.0548 7.39448C14.7283 7.51602 14.3757 7.57679 13.9971 7.57679C13.7783 7.57679 13.5682 7.55422 13.3667 7.50908C13.1653 7.46741 12.9777 7.41011 12.804 7.33719C12.6304 7.26426 12.4688 7.18092 12.3195 7.08717C12.1701 6.99341 12.0381 6.89444 11.9235 6.79027L12.2049 6.3944C12.2674 6.30412 12.3507 6.25897 12.4549 6.25897C12.5209 6.25897 12.5974 6.28675 12.6842 6.34231C12.7745 6.3944 12.8822 6.45343 13.0072 6.51941C13.1323 6.58539 13.2781 6.64616 13.4449 6.70172C13.6151 6.75381 13.8165 6.77985 14.0492 6.77985C14.3097 6.77985 14.5442 6.73818 14.7526 6.65484C14.961 6.5715 15.1381 6.45343 15.284 6.30064C15.4334 6.14438 15.548 5.9586 15.6279 5.74331C15.7078 5.52801 15.7477 5.28667 15.7477 5.01929C15.7477 4.78663 15.713 4.57654 15.6435 4.38903C15.5775 4.20151 15.4751 4.04178 15.3361 3.90982C15.2007 3.77787 15.0305 3.67543 14.8255 3.60251C14.6206 3.52958 14.3809 3.49312 14.1065 3.49312C13.919 3.49312 13.7245 3.50875 13.523 3.54C13.3216 3.57125 13.1132 3.62161 12.8978 3.69106L12.3143 3.51917L12.9186 0.0292984H16.4563V0.435582Z" fill="#787A80"/>
</svg>
