<svg width="342" height="8" viewBox="0 0 342 8" fill="none" xmlns="http://www.w3.org/2000/svg">
<path d="M2.13428 0.669922L4.42384 6.36701L6.7134 0.669922H7.91108V7.65221H6.98757V4.93315L7.07415 1.99828L4.77497 7.65221H4.0679L1.77353 2.01267L1.86492 4.93315V7.65221H0.941406V0.669922H2.13428Z" fill="#1E212C"/>
<path d="M9.16649 5.00988C9.16649 4.50155 9.2659 4.04438 9.46471 3.63835C9.66673 3.23233 9.94571 2.91903 10.3017 2.69843C10.6608 2.47784 11.0696 2.36754 11.5282 2.36754C12.2369 2.36754 12.8093 2.61211 13.2454 3.10126C13.6847 3.5904 13.9043 4.24099 13.9043 5.05304V5.11538C13.9043 5.62051 13.8065 6.07448 13.6109 6.47731C13.4185 6.87694 13.1411 7.18864 12.7788 7.41244C12.4196 7.63623 12.006 7.74812 11.5378 7.74812C10.8324 7.74812 10.26 7.50355 9.82065 7.01441C9.38455 6.52526 9.16649 5.87787 9.16649 5.07222V5.00988ZM10.0612 5.11538C10.0612 5.69084 10.1942 6.15281 10.4604 6.50129C10.7297 6.84976 11.0889 7.024 11.5378 7.024C11.99 7.024 12.3491 6.84816 12.6153 6.49649C12.8814 6.14162 13.0145 5.64608 13.0145 5.00988C13.0145 4.44081 12.8782 3.98044 12.6056 3.62876C12.3363 3.27389 11.9771 3.09646 11.5282 3.09646C11.0889 3.09646 10.7345 3.2707 10.4652 3.61917C10.1958 3.96765 10.0612 4.46638 10.0612 5.11538Z" fill="#1E212C"/>
<path d="M15.862 2.46345L15.8909 3.11564C16.2885 2.61691 16.808 2.36754 17.4493 2.36754C18.5492 2.36754 19.1039 2.98616 19.1136 4.22341V7.65221H18.2237V4.21861C18.2205 3.84456 18.1339 3.56802 17.964 3.38899C17.7972 3.20995 17.5359 3.12044 17.1799 3.12044C16.8913 3.12044 16.638 3.19717 16.42 3.35062C16.2019 3.50408 16.032 3.70549 15.9101 3.95486V7.65221H15.0203V2.46345H15.862Z" fill="#1E212C"/>
<path d="M62.4336 1.42762H60.1826V7.65221H59.2638V1.42762H57.0176V0.669922H62.4336V1.42762Z" fill="#1E212C"/>
<path d="M66.0844 7.13909C65.7381 7.54511 65.2298 7.74812 64.5597 7.74812C64.0049 7.74812 63.5816 7.58827 63.2898 7.26857C63.0012 6.94567 62.8553 6.46932 62.8521 5.8395V2.46345H63.742V5.81552C63.742 6.60199 64.0626 6.99522 64.704 6.99522C65.3838 6.99522 65.8359 6.74266 66.0604 6.23753V2.46345H66.9502V7.65221H66.1037L66.0844 7.13909Z" fill="#1E212C"/>
<path d="M70.4663 7.74812C69.7609 7.74812 69.1869 7.51794 68.7444 7.05757C68.3018 6.594 68.0806 5.97538 68.0806 5.2017V5.03865C68.0806 4.52393 68.1784 4.06516 68.374 3.66233C68.5728 3.25631 68.8486 2.93981 69.2013 2.71282C69.5572 2.48263 69.942 2.36754 70.3557 2.36754C71.0323 2.36754 71.5582 2.58973 71.9334 3.03412C72.3086 3.4785 72.4962 4.11471 72.4962 4.94274V5.31199H68.9704C68.9833 5.82352 69.1324 6.23753 69.4178 6.55404C69.7064 6.86734 70.0719 7.024 70.5144 7.024C70.8287 7.024 71.0948 6.96006 71.3129 6.83218C71.5309 6.7043 71.7217 6.53485 71.8853 6.32385L72.4288 6.74586C71.9927 7.41403 71.3385 7.74812 70.4663 7.74812ZM70.3557 3.09646C69.9966 3.09646 69.6951 3.22754 69.4514 3.48969C69.2077 3.74865 69.057 4.11311 68.9993 4.58307H71.6063V4.51594C71.5807 4.06516 71.4588 3.71668 71.2407 3.47051C71.0227 3.22114 70.7277 3.09646 70.3557 3.09646Z" fill="#1E212C"/>
<path d="M112.092 5.45092L112.227 6.37167L112.424 5.54204L113.809 0.669776H114.589L115.94 5.54204L116.133 6.38605L116.282 5.44613L117.369 0.669776H118.297L116.599 7.65207H115.758L114.315 2.56401L114.204 2.03171L114.093 2.56401L112.597 7.65207H111.756L110.062 0.669776H110.986L112.092 5.45092Z" fill="#1E212C"/>
<path d="M121.193 7.74799C120.487 7.74799 119.913 7.5178 119.471 7.05743C119.028 6.59386 118.807 5.97524 118.807 5.20156V5.03851C118.807 4.52379 118.905 4.06501 119.1 3.66219C119.299 3.25617 119.575 2.93966 119.928 2.71267C120.284 2.48249 120.669 2.36739 121.082 2.36739C121.759 2.36739 122.285 2.58959 122.66 3.03397C123.035 3.47836 123.223 4.11457 123.223 4.9426V5.31185H119.697C119.71 5.82338 119.859 6.23739 120.144 6.5539C120.433 6.86721 120.798 7.02386 121.241 7.02386C121.555 7.02386 121.821 6.95992 122.039 6.83204C122.257 6.70416 122.448 6.53472 122.612 6.32371L123.155 6.74572C122.719 7.4139 122.065 7.74799 121.193 7.74799ZM121.082 3.09632C120.723 3.09632 120.422 3.22739 120.178 3.48955C119.934 3.74851 119.784 4.11297 119.726 4.58293H122.333V4.51579C122.307 4.06501 122.185 3.71654 121.967 3.47037C121.749 3.221 121.454 3.09632 121.082 3.09632Z" fill="#1E212C"/>
<path d="M124.04 5.01453C124.04 4.21847 124.23 3.57907 124.608 3.09632C124.986 2.61037 125.482 2.36739 126.094 2.36739C126.703 2.36739 127.186 2.5752 127.542 2.99081V0.286133H128.432V7.65207H127.614L127.571 7.09579C127.215 7.53059 126.72 7.74799 126.085 7.74799C125.482 7.74799 124.99 7.50181 124.608 7.00947C124.23 6.51713 124.04 5.87453 124.04 5.08167V5.01453ZM124.93 5.11524C124.93 5.70349 125.052 6.16386 125.296 6.49635C125.539 6.82884 125.876 6.99509 126.306 6.99509C126.87 6.99509 127.282 6.74252 127.542 6.23739V3.85401C127.276 3.36487 126.867 3.12029 126.315 3.12029C125.879 3.12029 125.539 3.28814 125.296 3.62383C125.052 3.95951 124.93 4.45665 124.93 5.11524Z" fill="#1E212C"/>
<path d="M169.752 1.42747H167.501V7.65207H166.582V1.42747H164.336V0.669776H169.752V1.42747Z" fill="#1E212C"/>
<path d="M171.541 3.09152C171.936 2.60877 172.449 2.36739 173.081 2.36739C174.18 2.36739 174.735 2.98602 174.745 4.22327V7.65207H173.855V4.21847C173.852 3.84442 173.765 3.56788 173.595 3.38884C173.428 3.20981 173.167 3.12029 172.811 3.12029C172.523 3.12029 172.269 3.19702 172.051 3.35048C171.833 3.50394 171.663 3.70535 171.541 3.95472V7.65207H170.651V0.286133H171.541V3.09152Z" fill="#1E212C"/>
<path d="M179.29 7.13895C178.944 7.54497 178.436 7.74799 177.765 7.74799C177.211 7.74799 176.787 7.58813 176.496 7.26843C176.207 6.94553 176.061 6.46918 176.058 5.83936V2.46331H176.948V5.81538C176.948 6.60185 177.268 6.99509 177.91 6.99509C178.59 6.99509 179.042 6.74252 179.266 6.23739V2.46331H180.156V7.65207H179.309L179.29 7.13895Z" fill="#1E212C"/>
<path d="M221.556 4.56889H218.617V7.6524H217.693V0.670129H222.032V1.42782H218.617V3.81599H221.556V4.56889Z" fill="#1E212C"/>
<path d="M225.389 3.25971C225.255 3.23733 225.109 3.22614 224.952 3.22614C224.368 3.22614 223.972 3.47391 223.764 3.96945V7.6524H222.874V2.46365H223.74L223.754 3.06309C224.046 2.59953 224.459 2.36774 224.995 2.36774C225.168 2.36774 225.3 2.39012 225.389 2.43488V3.25971Z" fill="#1E212C"/>
<path d="M227.179 7.6524H226.289V2.46365H227.179V7.6524ZM226.217 1.08734C226.217 0.943474 226.26 0.821987 226.347 0.72288C226.436 0.623772 226.568 0.574219 226.741 0.574219C226.914 0.574219 227.046 0.623772 227.135 0.72288C227.225 0.821987 227.27 0.943474 227.27 1.08734C227.27 1.2312 227.225 1.35109 227.135 1.447C227.046 1.54291 226.914 1.59087 226.741 1.59087C226.568 1.59087 226.436 1.54291 226.347 1.447C226.26 1.35109 226.217 1.2312 226.217 1.08734Z" fill="#1E212C"/>
<path d="M268.732 4.54013C267.94 4.31314 267.363 4.035 267 3.70571C266.641 3.37322 266.461 2.964 266.461 2.47805C266.461 1.92816 266.681 1.47418 267.12 1.11612C267.563 0.754851 268.137 0.574219 268.842 0.574219C269.323 0.574219 269.752 0.666933 270.127 0.85236C270.505 1.03779 270.797 1.29355 271.002 1.61965C271.211 1.94574 271.315 2.30221 271.315 2.68905H270.386C270.386 2.26705 270.252 1.93615 269.982 1.69638C269.713 1.4534 269.333 1.33191 268.842 1.33191C268.387 1.33191 268.031 1.43262 267.775 1.63403C267.521 1.83225 267.395 2.10879 267.395 2.46366C267.395 2.7482 267.515 2.98957 267.755 3.18779C267.999 3.38281 268.411 3.56184 268.992 3.72489C269.575 3.88794 270.031 4.06857 270.358 4.26679C270.688 4.46181 270.932 4.69039 271.089 4.95255C271.249 5.21471 271.329 5.52322 271.329 5.87809C271.329 6.44396 271.108 6.89794 270.665 7.24002C270.223 7.57891 269.631 7.74835 268.891 7.74835C268.41 7.74835 267.961 7.65724 267.544 7.47501C267.127 7.28958 266.805 7.03701 266.577 6.71731C266.352 6.39761 266.24 6.03474 266.24 5.62872H267.169C267.169 6.05073 267.324 6.38482 267.635 6.63099C267.949 6.87396 268.368 6.99545 268.891 6.99545C269.378 6.99545 269.752 6.89634 270.011 6.69813C270.271 6.49991 270.401 6.22976 270.401 5.88768C270.401 5.5456 270.281 5.28184 270.04 5.09642C269.8 4.90779 269.364 4.72236 268.732 4.54013Z" fill="#1E212C"/>
<path d="M275.591 7.65244C275.54 7.55014 275.498 7.36791 275.466 7.10575C275.052 7.53415 274.558 7.74835 273.984 7.74835C273.471 7.74835 273.05 7.60449 272.719 7.31675C272.392 7.02582 272.229 6.65816 272.229 6.21378C272.229 5.67348 272.434 5.25467 272.844 4.95735C273.258 4.65683 273.838 4.50656 274.586 4.50656H275.451V4.09894C275.451 3.78883 275.358 3.54266 275.172 3.36043C274.986 3.175 274.712 3.08229 274.35 3.08229C274.032 3.08229 273.766 3.16221 273.551 3.32207C273.337 3.48192 273.229 3.67534 273.229 3.90233H272.335C272.335 3.64337 272.426 3.394 272.609 3.15422C272.795 2.91125 273.045 2.71943 273.359 2.57876C273.677 2.43809 274.024 2.36775 274.403 2.36775C275.003 2.36775 275.472 2.51801 275.812 2.81853C276.152 3.11586 276.328 3.52668 276.341 4.05099V6.43917C276.341 6.91553 276.402 7.29437 276.524 7.57571V7.65244H275.591ZM274.114 6.97627C274.393 6.97627 274.658 6.90434 274.908 6.76047C275.158 6.6166 275.339 6.42958 275.451 6.19939V5.13478H274.754C273.664 5.13478 273.119 5.45289 273.119 6.08909C273.119 6.36724 273.212 6.58463 273.398 6.74129C273.584 6.89794 273.822 6.97627 274.114 6.97627Z" fill="#1E212C"/>
<path d="M278.944 1.20723V2.46366H279.915V3.14943H278.944V6.36724C278.944 6.57504 278.987 6.7317 279.073 6.8372C279.16 6.9395 279.307 6.99066 279.516 6.99066C279.619 6.99066 279.76 6.97147 279.939 6.93311V7.65244C279.705 7.71638 279.477 7.74835 279.256 7.74835C278.859 7.74835 278.559 7.62846 278.357 7.38869C278.155 7.14891 278.054 6.80843 278.054 6.36724V3.14943H277.106V2.46366H278.054V1.20723H278.944Z" fill="#1E212C"/>
<path d="M328.279 4.54013C327.487 4.31314 326.909 4.035 326.547 3.70571C326.188 3.37322 326.008 2.964 326.008 2.47805C326.008 1.92816 326.228 1.47418 326.667 1.11612C327.11 0.754851 327.684 0.574219 328.389 0.574219C328.87 0.574219 329.298 0.666933 329.674 0.85236C330.052 1.03779 330.344 1.29355 330.549 1.61965C330.757 1.94574 330.862 2.30221 330.862 2.68905H329.933C329.933 2.26705 329.799 1.93615 329.529 1.69638C329.26 1.4534 328.88 1.33191 328.389 1.33191C327.934 1.33191 327.578 1.43262 327.321 1.63403C327.068 1.83225 326.942 2.10879 326.942 2.46366C326.942 2.7482 327.062 2.98957 327.302 3.18779C327.546 3.38281 327.958 3.56184 328.538 3.72489C329.122 3.88794 329.577 4.06857 329.904 4.26679C330.235 4.46181 330.478 4.69039 330.636 4.95255C330.796 5.21471 330.876 5.52322 330.876 5.87809C330.876 6.44396 330.655 6.89794 330.212 7.24002C329.77 7.57891 329.178 7.74835 328.437 7.74835C327.956 7.74835 327.507 7.65724 327.091 7.47501C326.674 7.28958 326.351 7.03701 326.124 6.71731C325.899 6.39761 325.787 6.03474 325.787 5.62872H326.715C326.715 6.05073 326.871 6.38482 327.182 6.63099C327.496 6.87396 327.915 6.99545 328.437 6.99545C328.925 6.99545 329.298 6.89634 329.558 6.69813C329.818 6.49991 329.948 6.22976 329.948 5.88768C329.948 5.5456 329.828 5.28184 329.587 5.09642C329.347 4.90779 328.91 4.72236 328.279 4.54013Z" fill="#1E212C"/>
<path d="M335.138 7.13932C334.791 7.54534 334.283 7.74835 333.613 7.74835C333.058 7.74835 332.635 7.5885 332.343 7.2688C332.055 6.9459 331.909 6.46954 331.905 5.83973V2.46366H332.795V5.81575C332.795 6.60222 333.116 6.99545 333.757 6.99545C334.437 6.99545 334.889 6.74289 335.114 6.23776V2.46366H336.004V7.65244H335.157L335.138 7.13932Z" fill="#1E212C"/>
<path d="M338.202 2.46366L338.231 3.11586C338.628 2.61712 339.148 2.36775 339.789 2.36775C340.889 2.36775 341.444 2.98638 341.453 4.22363V7.65244H340.563V4.21883C340.56 3.84478 340.474 3.56824 340.304 3.3892C340.137 3.21017 339.876 3.12065 339.52 3.12065C339.231 3.12065 338.978 3.19738 338.76 3.35084C338.542 3.5043 338.372 3.70571 338.25 3.95508V7.65244H337.36V2.46366H338.202Z" fill="#1E212C"/>
</svg>
