<svg width="38" height="55" viewBox="0 0 38 55" fill="none" xmlns="http://www.w3.org/2000/svg">
<circle cx="24" cy="14" r="10" fill="white"/>
<path d="M20.0017 27.3153L15.3274 24.7722L12.0978 30.7168L16.772 33.2599L20.0017 27.3153Z" fill="#787A80"/>
<path d="M5.59988 54.5992C5.37622 54.594 5.15719 54.5344 4.96164 54.4257L0.763928 52.1462C0.43633 51.9648 0.193029 51.6619 0.0864357 51.3028C-0.0201577 50.9436 0.018485 50.557 0.194044 50.2261L10.5785 31.1168C10.7598 30.789 11.0624 30.5455 11.4213 30.4389C11.7802 30.3322 12.1666 30.3709 12.4973 30.5465L16.6902 32.826C17.0178 33.0073 17.2611 33.3102 17.3677 33.6693C17.4743 34.0285 17.4357 34.4152 17.2601 34.7461L6.88513 53.8555C6.75965 54.0855 6.57338 54.2765 6.3467 54.4077C6.12002 54.5389 5.86166 54.6051 5.59988 54.5992ZM11.8519 30.8397C11.7532 30.8363 11.6546 30.8499 11.5605 30.8799C11.4407 30.9161 11.3293 30.9755 11.2325 31.0547C11.1358 31.134 11.0555 31.2316 10.9965 31.3419L0.612107 50.4464C0.494682 50.6673 0.468874 50.9256 0.540257 51.1655C0.61164 51.4053 0.774481 51.6074 0.993574 51.728L5.18653 54.0075C5.40674 54.1253 5.66441 54.1518 5.90398 54.0813C6.14355 54.0108 6.34582 53.8489 6.46719 53.6305L16.8513 34.5355C16.9687 34.3146 16.9945 34.0563 16.9232 33.8164C16.8518 33.5766 16.6889 33.3745 16.4698 33.2538L12.2769 30.9744C12.1487 30.8947 12.0026 30.8484 11.8519 30.8397Z" fill="#787A80"/>
<path d="M23.3746 28.1312C19.8619 28.0508 16.5088 26.6476 13.9846 24.2018C11.4604 21.7559 9.95076 18.4474 9.75716 14.9367C9.56356 11.426 10.7002 7.97131 12.9401 5.26239C15.1801 2.55347 18.3586 0.789591 21.8411 0.322865C25.3236 -0.143862 28.8538 0.720907 31.7272 2.74454C34.6005 4.76817 36.6054 7.80178 37.3418 11.2398C38.0781 14.6778 37.4917 18.2672 35.6996 21.2915C33.9074 24.3158 31.0414 26.5525 27.6737 27.555C26.2799 27.9722 24.829 28.1666 23.3746 28.1312ZM24.1012 0.767196C22.6926 0.733016 21.2873 0.918923 19.936 1.31821C16.7102 2.27843 13.9646 4.42012 12.2467 7.3162C10.5288 10.2123 9.96486 13.6499 10.6673 16.9436C11.3698 20.2373 13.2871 23.145 16.0368 25.0869C18.7866 27.0288 22.1667 27.8621 25.5032 27.4207C28.8396 26.9793 31.8873 25.2957 34.0383 22.7055C36.1893 20.1153 37.2857 16.8089 37.1088 13.4457C36.9319 10.0825 35.4947 6.90956 33.0838 4.55967C30.6729 2.20978 27.4655 0.855607 24.1012 0.767196ZM23.4592 24.6272C21.8183 24.5851 20.2108 24.1538 18.7689 23.3688C16.5241 22.1505 14.8042 20.1501 13.9353 17.7471C13.0664 15.3441 13.1089 12.7056 14.0548 10.3318C15.0007 7.95814 16.7842 6.01434 19.0671 4.86908C21.35 3.72383 23.9735 3.45676 26.44 4.11853C28.9066 4.78029 31.0447 6.32487 32.4489 8.45934C33.8531 10.5938 34.4257 13.1697 34.0582 15.6986C33.6906 18.2275 32.4084 20.5334 30.4548 22.1792C28.5012 23.8249 26.0119 24.696 23.4592 24.6272ZM19.0033 22.9508C20.7294 23.8881 22.6942 24.2928 24.6499 24.1139C26.6055 23.935 28.4644 23.1805 29.9921 21.9455C31.5197 20.7106 32.6476 19.0505 33.2335 17.1748C33.8193 15.2991 33.8369 13.2917 33.2841 11.406C32.7264 9.51994 31.6225 7.84162 30.1119 6.58316C28.6014 5.3247 26.7519 4.54258 24.7973 4.33562C22.8427 4.12867 20.8706 4.50617 19.1304 5.42043C17.3901 6.33469 15.9597 7.74467 15.0199 9.47219C13.7672 11.7892 13.483 14.5086 14.2296 17.0348C14.9762 19.5611 16.6927 21.6884 19.0033 22.9508Z" fill="#787A80"/>
</svg>
