<svg width="24" height="9" viewBox="0 0 24 9" fill="none" xmlns="http://www.w3.org/2000/svg">
<path d="M3.11847 7.92099H2.22381V2.00809L0.429688 2.66508V1.85943L2.97898 0.905115H3.11847V7.92099Z" fill="#1E212C"/>
<path d="M9.21754 0.933889V1.68679H9.054C8.36136 1.69958 7.80982 1.90419 7.39937 2.30062C6.98891 2.69705 6.75162 3.25493 6.68749 3.97426C7.05625 3.55225 7.5597 3.34125 8.19782 3.34125C8.80709 3.34125 9.2929 3.55545 9.65525 3.98385C10.0208 4.41225 10.2036 4.96534 10.2036 5.64311C10.2036 6.36244 10.0064 6.9379 9.61196 7.3695C9.22075 7.8011 8.69486 8.0169 8.03428 8.0169C7.36409 8.0169 6.82056 7.76114 6.4037 7.24961C5.98683 6.73489 5.7784 6.07311 5.7784 5.26426V4.92378C5.7784 3.63857 6.05257 2.65709 6.60091 1.97932C7.15245 1.29835 7.97176 0.949874 9.05881 0.933889H9.21754ZM8.04872 4.07976C7.74408 4.07976 7.4635 4.17088 7.20697 4.35311C6.95043 4.53534 6.77246 4.76393 6.67306 5.03887V5.36497C6.67306 5.94043 6.80293 6.404 7.06267 6.75567C7.32241 7.10734 7.64628 7.28318 8.03428 7.28318C8.43512 7.28318 8.74937 7.13612 8.97704 6.84199C9.20792 6.54787 9.32336 6.16262 9.32336 5.68627C9.32336 5.20671 9.20632 4.81987 8.97223 4.52575C8.74135 4.22842 8.43351 4.07976 8.04872 4.07976Z" fill="#1E212C"/>
<path d="M11.3195 7.45582C11.3195 7.30236 11.3644 7.17448 11.4542 7.07218C11.5472 6.96987 11.6851 6.91872 11.8678 6.91872C12.0506 6.91872 12.1885 6.96987 12.2815 7.07218C12.3777 7.17448 12.4258 7.30236 12.4258 7.45582C12.4258 7.60288 12.3777 7.72597 12.2815 7.82508C12.1885 7.92418 12.0506 7.97374 11.8678 7.97374C11.6851 7.97374 11.5472 7.92418 11.4542 7.82508C11.3644 7.72597 11.3195 7.60288 11.3195 7.45582ZM11.3243 3.22136C11.3243 3.0679 11.3692 2.94002 11.459 2.83772C11.552 2.73541 11.6899 2.68426 11.8727 2.68426C12.0554 2.68426 12.1933 2.73541 12.2863 2.83772C12.3825 2.94002 12.4306 3.0679 12.4306 3.22136C12.4306 3.36842 12.3825 3.49151 12.2863 3.59062C12.1933 3.68972 12.0554 3.73928 11.8727 3.73928C11.6899 3.73928 11.552 3.68972 11.459 3.59062C11.3692 3.49151 11.3243 3.36842 11.3243 3.22136Z" fill="#1E212C"/>
<path d="M18.0343 4.94296C18.0343 5.98199 17.8563 6.75407 17.5004 7.2592C17.1444 7.76433 16.5881 8.0169 15.8313 8.0169C15.0841 8.0169 14.531 7.77073 14.1718 7.27839C13.8127 6.78285 13.6267 6.04433 13.6139 5.06285V3.87835C13.6139 2.8521 13.7918 2.08961 14.1478 1.59088C14.5037 1.09214 15.0617 0.842773 15.8217 0.842773C16.5752 0.842773 17.13 1.08415 17.4859 1.5669C17.8419 2.04645 18.0246 2.78816 18.0343 3.79203V4.94296ZM17.1444 3.72969C17.1444 2.97839 17.0386 2.43169 16.827 2.08961C16.6153 1.74433 16.2802 1.5717 15.8217 1.5717C15.3663 1.5717 15.0344 1.74274 14.826 2.08482C14.6176 2.4269 14.5101 2.95281 14.5037 3.66255V5.08203C14.5037 5.83653 14.6128 6.39441 14.8308 6.75567C15.0521 7.11374 15.3856 7.29277 15.8313 7.29277C16.2706 7.29277 16.5961 7.12333 16.8077 6.78445C17.0226 6.44556 17.1348 5.91166 17.1444 5.18274V3.72969Z" fill="#1E212C"/>
<path d="M23.5658 4.94296C23.5658 5.98199 23.3878 6.75407 23.0318 7.2592C22.6759 7.76433 22.1195 8.0169 21.3628 8.0169C20.6156 8.0169 20.0625 7.77073 19.7033 7.27839C19.3442 6.78285 19.1582 6.04433 19.1454 5.06285V3.87835C19.1454 2.8521 19.3233 2.08961 19.6793 1.59088C20.0352 1.09214 20.5932 0.842773 21.3532 0.842773C22.1067 0.842773 22.6615 1.08415 23.0174 1.5669C23.3734 2.04645 23.5561 2.78816 23.5658 3.79203V4.94296ZM22.6759 3.72969C22.6759 2.97839 22.5701 2.43169 22.3584 2.08961C22.1468 1.74433 21.8117 1.5717 21.3532 1.5717C20.8978 1.5717 20.5659 1.74274 20.3575 2.08482C20.1491 2.4269 20.0416 2.95281 20.0352 3.66255V5.08203C20.0352 5.83653 20.1442 6.39441 20.3623 6.75567C20.5836 7.11374 20.917 7.29277 21.3628 7.29277C21.8021 7.29277 22.1276 7.12333 22.3392 6.78445C22.554 6.44556 22.6663 5.91166 22.6759 5.18274V3.72969Z" fill="#1E212C"/>
</svg>
