<svg width="82" height="82" viewBox="0 0 82 82" fill="none" xmlns="http://www.w3.org/2000/svg">
<path d="M41.4417 81.6945C19.107 81.6945 0.953125 63.5143 0.953125 41.1471C0.953125 18.7799 19.107 0.599609 41.4417 0.599609C63.7764 0.599609 81.9303 18.7799 81.9303 41.1471C82.0403 63.5143 63.8864 81.6945 41.4417 81.6945ZM41.4417 9.85501C24.168 9.85501 10.1951 23.8483 10.1951 41.1471C10.1951 58.4458 24.168 72.4391 41.4417 72.4391C58.7153 72.4391 72.6883 58.4458 72.6883 41.1471C72.7983 23.8483 58.7153 9.85501 41.4417 9.85501Z" fill="#E2EBF5"/>
<path d="M41.4425 81.6953C30.6602 81.6953 20.4281 77.5083 12.7265 69.7955C10.9662 68.0326 10.9662 65.0576 12.7265 63.1845C14.4869 61.4216 17.4575 61.4216 19.3279 63.1845C25.2691 69.1344 33.0807 72.3297 41.4425 72.3297C58.7161 72.3297 72.689 58.3364 72.689 41.0377C72.689 23.7389 58.7161 9.74563 41.4425 9.74563C38.9119 9.74563 36.8215 7.65215 36.8215 5.11793C36.8215 2.58372 38.9119 0.490234 41.4425 0.490234C63.7771 0.490234 81.9309 18.6705 81.9309 41.0377C82.0409 63.5151 63.8871 81.6953 41.4425 81.6953Z" fill="#5A87FC"/>
</svg>
