<svg width="524" height="330" viewBox="0 0 524 330" fill="none" xmlns="http://www.w3.org/2000/svg">
<g filter="url(#filter0_dddd_2198_2168)">
<path d="M80.0762 78.5617C80.0762 76.2041 81.7958 74.293 83.9171 74.293H440.164C442.285 74.293 444.005 76.2041 444.005 78.5617V239.706C444.005 242.064 442.285 243.975 440.164 243.975H83.9171C81.7958 243.975 80.0762 242.064 80.0762 239.706V78.5617Z" fill="white"/>
</g>
<path d="M356.884 170.213C351.471 170.213 346.497 168.029 342.546 161.162C336.402 150.706 329.672 151.798 321.771 153.047C318.699 153.515 315.48 154.139 312.115 153.983L312.261 151.642C315.334 151.798 318.406 151.33 321.479 150.706C329.379 149.301 337.572 148.053 344.448 159.913C350.886 170.838 359.664 168.341 370.052 165.22C380.293 162.254 391.705 158.821 402.824 168.341L401.507 170.213C391.412 161.474 380.878 164.595 370.783 167.56C365.809 168.809 361.273 170.213 356.884 170.213ZM136.842 172.242C145.328 164.127 148.985 166.156 156.886 170.526C157.91 171.15 159.08 171.774 160.251 172.398C160.982 172.866 161.86 173.023 162.738 173.023C168.005 173.023 174.003 165.063 180.441 156.792C185.708 149.926 191.267 142.591 194.925 142.591C195.656 142.591 196.388 142.903 196.973 143.683C199.021 146.18 200.923 149.77 202.825 153.203C206.337 159.757 209.702 166 214.091 165.688C217.31 165.376 220.382 161.474 223.454 153.203C225.795 146.96 227.697 140.25 229.307 134.32C232.233 123.707 235.012 113.72 238.67 113.408C241.742 113.095 246.278 119.494 252.276 132.447C257.104 143.059 261.494 148.365 265.883 149.145C270.418 149.926 273.929 146.18 277.441 142.435C280.513 139.157 283.586 136.036 286.804 136.192C289.145 136.348 291.632 138.377 294.412 142.279C296.46 145.244 298.655 147.585 300.85 149.301L302.166 147.429C300.118 145.868 298.07 143.527 296.168 140.874C293.095 136.348 290.023 134.007 286.951 133.851C282.708 133.539 279.196 137.129 275.831 140.718C272.613 144.151 269.54 147.429 266.175 146.804C262.518 146.18 258.567 141.03 254.032 131.354C245.546 112.939 241.157 110.754 238.377 111.067C233.257 111.535 230.477 121.211 227.112 133.695C225.503 139.626 223.601 146.18 221.26 152.267C217.895 161.162 215.261 163.191 213.798 163.347C210.872 163.659 207.653 157.729 204.581 151.954C202.679 148.365 200.631 144.62 198.436 141.967C197.412 140.718 196.095 140.094 194.779 140.094C190.097 140.25 184.537 147.429 178.685 155.076C172.54 163.191 165.518 172.398 161.275 170.057C160.104 169.433 158.934 168.809 157.91 168.185C149.863 163.659 145.035 161.006 135.379 170.213C125.723 179.577 113.872 176.612 113.726 176.456L113.141 178.641C113.287 178.641 115.335 179.265 118.408 179.265C123.236 179.733 130.405 178.485 136.842 172.242Z" fill="#FB5A5A"/>
<path d="M306.408 156.197C302.604 156.197 299.531 153.12 299.531 149.31C299.531 145.501 302.604 142.424 306.408 142.424C310.212 142.424 313.284 145.501 313.284 149.31C313.284 153.12 310.212 156.197 306.408 156.197ZM306.408 144.622C303.774 144.622 301.726 146.673 301.726 149.31C301.726 151.947 303.774 153.999 306.408 153.999C309.041 153.999 311.089 151.947 311.089 149.31C311.236 146.673 309.041 144.622 306.408 144.622Z" fill="url(#paint0_linear_2198_2168)"/>
<path d="M158.204 113.56C163.617 113.999 168.299 116.49 171.664 123.376C176.784 133.779 183.661 133.339 191.707 132.9C194.78 132.753 198.145 132.46 201.363 132.9L201.071 135.098C197.998 134.658 194.926 134.805 191.854 135.098C183.807 135.537 175.614 136.123 169.762 124.402C164.348 113.56 155.277 115.171 144.743 117.076C134.356 118.981 122.505 121.032 112.41 111.069L113.873 109.457C123.237 118.541 133.917 116.636 144.305 114.878C149.279 113.999 153.961 113.12 158.204 113.56ZM377.661 132.021C368.443 138.907 365.078 136.563 357.617 131.728C356.593 131.142 355.569 130.409 354.398 129.676C353.667 129.237 352.789 128.944 352.057 128.944C346.79 128.504 340.06 135.244 333.038 142.424C327.185 148.431 321.041 154.584 317.383 154.291C316.652 154.291 315.92 153.852 315.481 153.119C313.725 150.629 312.116 147.112 310.507 143.596C307.581 137.149 304.801 130.995 300.412 130.849C297.047 130.702 293.828 134.219 290.024 141.691C287.244 147.259 284.757 153.412 282.563 158.687C278.759 168.357 275.101 177.441 271.443 177.441C268.371 177.441 264.421 170.994 259.593 158.394C255.642 147.991 251.839 142.57 247.449 141.398C243.06 140.226 239.11 143.449 235.452 146.526C232.087 149.31 228.869 151.947 225.504 151.508C223.163 151.068 220.822 149.017 218.481 145.061C216.725 142.13 214.823 139.64 212.629 137.881L211.166 139.493C213.068 141.251 214.823 143.449 216.579 146.233C219.359 150.775 222.139 153.119 225.065 153.705C229.308 154.438 233.112 151.361 236.623 148.284C240.134 145.354 243.499 142.717 246.718 143.596C250.376 144.621 253.741 149.603 257.398 159.273C264.128 177.295 268.371 179.639 271.297 179.786C276.418 179.786 280.075 170.994 284.464 159.713C286.659 154.438 289 148.284 291.78 142.863C295.876 134.805 298.656 133.193 300.265 133.193C303.191 133.193 305.825 139.054 308.458 144.621C310.068 148.138 311.677 151.801 313.725 154.438C314.603 155.757 315.774 156.343 317.237 156.489C321.919 156.782 328.063 150.482 334.501 143.889C341.377 136.856 349.131 128.944 353.228 131.435C354.398 132.167 355.422 132.9 356.446 133.486C364.054 138.468 368.59 141.398 378.977 133.632C389.365 125.867 400.923 129.676 401.069 129.676L401.801 127.625C401.655 127.625 399.606 126.893 396.534 126.6C391.706 126.307 384.537 126.746 377.661 132.021Z" fill="#5A87FB"/>
<path d="M207.945 141.837C204.141 141.544 201.361 138.174 201.654 134.364C201.947 130.555 205.311 127.771 209.115 128.064C212.919 128.357 215.699 131.727 215.406 135.537C215.114 139.346 211.749 142.13 207.945 141.837ZM208.969 130.262C206.336 129.969 204.141 131.874 203.848 134.511C203.556 137.148 205.458 139.346 208.091 139.639C210.725 139.932 212.919 138.027 213.212 135.39C213.504 132.753 211.602 130.555 208.969 130.262Z" fill="url(#paint1_linear_2198_2168)"/>
<path d="M115.614 204.529C115.221 204.529 114.869 204.423 114.56 204.212C114.255 203.995 114.016 203.69 113.844 203.296C113.677 202.903 113.594 202.44 113.594 201.908C113.594 201.377 113.677 200.914 113.844 200.52C114.016 200.126 114.255 199.824 114.56 199.612C114.869 199.395 115.221 199.287 115.614 199.287C116.007 199.287 116.356 199.395 116.661 199.612C116.97 199.824 117.209 200.126 117.376 200.52C117.548 200.914 117.634 201.377 117.634 201.908C117.634 202.44 117.548 202.903 117.376 203.296C117.209 203.69 116.97 203.995 116.661 204.212C116.356 204.423 116.007 204.529 115.614 204.529ZM115.614 204.182C115.938 204.182 116.223 204.094 116.469 203.917C116.72 203.734 116.914 203.474 117.052 203.134C117.189 202.789 117.258 202.381 117.258 201.908C117.258 201.436 117.189 201.03 117.052 200.69C116.914 200.345 116.72 200.085 116.469 199.907C116.223 199.725 115.938 199.634 115.614 199.634C115.289 199.634 115.002 199.725 114.751 199.907C114.506 200.085 114.314 200.345 114.176 200.69C114.039 201.03 113.97 201.436 113.97 201.908C113.97 202.381 114.039 202.789 114.176 203.134C114.314 203.474 114.506 203.734 114.751 203.917C115.002 204.094 115.289 204.182 115.614 204.182Z" fill="#1E212C"/>
<path d="M119.737 199.324V204.492H119.361V199.664H118.1V199.324H119.737Z" fill="#1E212C"/>
<path d="M155.784 203.807C155.391 203.807 155.039 203.701 154.729 203.489C154.425 203.273 154.186 202.967 154.014 202.574C153.847 202.18 153.764 201.717 153.764 201.186C153.764 200.654 153.847 200.191 154.014 199.797C154.186 199.404 154.425 199.101 154.729 198.889C155.039 198.673 155.391 198.564 155.784 198.564C156.177 198.564 156.526 198.673 156.831 198.889C157.14 199.101 157.379 199.404 157.546 199.797C157.718 200.191 157.804 200.654 157.804 201.186C157.804 201.717 157.718 202.18 157.546 202.574C157.379 202.967 157.14 203.273 156.831 203.489C156.526 203.701 156.177 203.807 155.784 203.807ZM155.784 203.46C156.108 203.46 156.393 203.371 156.639 203.194C156.89 203.012 157.084 202.751 157.221 202.411C157.359 202.067 157.428 201.658 157.428 201.186C157.428 200.713 157.359 200.307 157.221 199.967C157.084 199.623 156.89 199.362 156.639 199.185C156.393 199.003 156.108 198.911 155.784 198.911C155.459 198.911 155.172 199.003 154.921 199.185C154.675 199.362 154.484 199.623 154.346 199.967C154.208 200.307 154.14 200.713 154.14 201.186C154.14 201.658 154.208 202.067 154.346 202.411C154.484 202.751 154.675 203.012 154.921 203.194C155.172 203.371 155.459 203.46 155.784 203.46Z" fill="#1E212C"/>
<path d="M162.052 203.43V203.77H158.506V203.504L160.688 201.333C160.973 201.048 161.165 200.804 161.263 200.602C161.367 200.396 161.418 200.184 161.418 199.967C161.418 199.638 161.305 199.379 161.079 199.192C160.858 199.005 160.536 198.911 160.113 198.911C159.789 198.911 159.504 198.961 159.258 199.059C159.017 199.158 158.808 199.308 158.631 199.51L158.366 199.273C158.562 199.047 158.811 198.872 159.111 198.749C159.415 198.626 159.759 198.564 160.143 198.564C160.649 198.564 161.052 198.688 161.352 198.934C161.652 199.18 161.802 199.512 161.802 199.93C161.802 200.196 161.743 200.45 161.625 200.691C161.507 200.932 161.285 201.213 160.961 201.533L159.059 203.43H162.052Z" fill="#1E212C"/>
<path d="M212.538 203.776C212.144 203.776 211.793 203.671 211.483 203.459C211.179 203.242 210.94 202.937 210.768 202.543C210.601 202.15 210.518 201.687 210.518 201.155C210.518 200.624 210.601 200.161 210.768 199.767C210.94 199.373 211.179 199.071 211.483 198.859C211.793 198.642 212.144 198.534 212.538 198.534C212.931 198.534 213.28 198.642 213.585 198.859C213.894 199.071 214.133 199.373 214.3 199.767C214.472 200.161 214.558 200.624 214.558 201.155C214.558 201.687 214.472 202.15 214.3 202.543C214.133 202.937 213.894 203.242 213.585 203.459C213.28 203.671 212.931 203.776 212.538 203.776ZM212.538 203.429C212.862 203.429 213.147 203.341 213.393 203.164C213.644 202.981 213.838 202.721 213.975 202.381C214.113 202.036 214.182 201.628 214.182 201.155C214.182 200.683 214.113 200.277 213.975 199.937C213.838 199.592 213.644 199.332 213.393 199.154C213.147 198.972 212.862 198.881 212.538 198.881C212.213 198.881 211.926 198.972 211.675 199.154C211.429 199.332 211.238 199.592 211.1 199.937C210.962 200.277 210.894 200.683 210.894 201.155C210.894 201.628 210.962 202.036 211.1 202.381C211.238 202.721 211.429 202.981 211.675 203.164C211.926 203.341 212.213 203.429 212.538 203.429Z" fill="#1E212C"/>
<path d="M216.869 200.823C217.439 200.838 217.871 200.978 218.166 201.244C218.466 201.505 218.616 201.852 218.616 202.285C218.616 202.575 218.547 202.834 218.409 203.06C218.272 203.282 218.065 203.456 217.79 203.584C217.52 203.712 217.193 203.776 216.81 203.776C216.436 203.776 216.085 203.715 215.755 203.592C215.426 203.464 215.17 203.294 214.989 203.082L215.18 202.794C215.347 202.981 215.573 203.134 215.859 203.252C216.149 203.37 216.466 203.429 216.81 203.429C217.267 203.429 217.618 203.328 217.864 203.127C218.11 202.92 218.233 202.639 218.233 202.285C218.233 201.926 218.107 201.645 217.857 201.443C217.606 201.241 217.23 201.141 216.728 201.141H216.404V200.867L217.93 198.911H215.18V198.571H218.417V198.837L216.869 200.823Z" fill="#1E212C"/>
<path d="M259.172 203.776C258.779 203.776 258.428 203.671 258.118 203.459C257.813 203.242 257.575 202.937 257.403 202.543C257.236 202.15 257.152 201.687 257.152 201.155C257.152 200.624 257.236 200.161 257.403 199.767C257.575 199.373 257.813 199.071 258.118 198.859C258.428 198.642 258.779 198.534 259.172 198.534C259.566 198.534 259.915 198.642 260.219 198.859C260.529 199.071 260.767 199.373 260.935 199.767C261.107 200.161 261.193 200.624 261.193 201.155C261.193 201.687 261.107 202.15 260.935 202.543C260.767 202.937 260.529 203.242 260.219 203.459C259.915 203.671 259.566 203.776 259.172 203.776ZM259.172 203.429C259.497 203.429 259.782 203.341 260.028 203.164C260.278 202.981 260.472 202.721 260.61 202.381C260.748 202.036 260.817 201.628 260.817 201.155C260.817 200.683 260.748 200.277 260.61 199.937C260.472 199.592 260.278 199.332 260.028 199.154C259.782 198.972 259.497 198.881 259.172 198.881C258.848 198.881 258.561 198.972 258.31 199.154C258.064 199.332 257.872 199.592 257.735 199.937C257.597 200.277 257.528 200.683 257.528 201.155C257.528 201.628 257.597 202.036 257.735 202.381C257.872 202.721 258.064 202.981 258.31 203.164C258.561 203.341 258.848 203.429 259.172 203.429Z" fill="#1E212C"/>
<path d="M266.311 202.307H265.227V203.739H264.858V202.307H261.917V202.034L264.718 198.571H265.138L262.388 201.975H264.866V200.712H265.227V201.975H266.311V202.307Z" fill="#1E212C"/>
<path d="M305.807 203.776C305.414 203.776 305.063 203.671 304.753 203.459C304.448 203.242 304.21 202.937 304.038 202.543C303.871 202.15 303.787 201.687 303.787 201.155C303.787 200.624 303.871 200.161 304.038 199.767C304.21 199.373 304.448 199.071 304.753 198.859C305.063 198.642 305.414 198.534 305.807 198.534C306.2 198.534 306.549 198.642 306.854 198.859C307.164 199.071 307.402 199.373 307.569 199.767C307.741 200.161 307.827 200.624 307.827 201.155C307.827 201.687 307.741 202.15 307.569 202.543C307.402 202.937 307.164 203.242 306.854 203.459C306.549 203.671 306.2 203.776 305.807 203.776ZM305.807 203.429C306.132 203.429 306.417 203.341 306.662 203.164C306.913 202.981 307.107 202.721 307.245 202.381C307.383 202.036 307.451 201.628 307.451 201.155C307.451 200.683 307.383 200.277 307.245 199.937C307.107 199.592 306.913 199.332 306.662 199.154C306.417 198.972 306.132 198.881 305.807 198.881C305.483 198.881 305.195 198.972 304.945 199.154C304.699 199.332 304.507 199.592 304.37 199.937C304.232 200.277 304.163 200.683 304.163 201.155C304.163 201.628 304.232 202.036 304.37 202.381C304.507 202.721 304.699 202.981 304.945 203.164C305.195 203.341 305.483 203.429 305.807 203.429Z" fill="#1E212C"/>
<path d="M309.901 200.734C310.653 200.734 311.198 200.867 311.537 201.133C311.876 201.394 312.046 201.766 312.046 202.248C312.046 202.543 311.977 202.807 311.84 203.038C311.707 203.264 311.505 203.444 311.235 203.577C310.965 203.71 310.633 203.776 310.24 203.776C309.866 203.776 309.515 203.712 309.185 203.584C308.861 203.456 308.608 203.289 308.426 203.082L308.618 202.794C308.78 202.981 309.004 203.134 309.289 203.252C309.579 203.37 309.893 203.429 310.232 203.429C310.694 203.429 311.048 203.324 311.294 203.112C311.545 202.9 311.67 202.617 311.67 202.263C311.67 201.874 311.527 201.579 311.242 201.377C310.962 201.175 310.488 201.074 309.819 201.074H308.773L309.045 198.571H311.781V198.911H309.362L309.163 200.734H309.901Z" fill="#1E212C"/>
<path d="M352.442 203.776C352.049 203.776 351.697 203.671 351.388 203.459C351.083 203.242 350.845 202.937 350.673 202.543C350.505 202.15 350.422 201.687 350.422 201.155C350.422 200.624 350.505 200.161 350.673 199.767C350.845 199.373 351.083 199.071 351.388 198.859C351.697 198.642 352.049 198.534 352.442 198.534C352.835 198.534 353.184 198.642 353.489 198.859C353.799 199.071 354.037 199.373 354.204 199.767C354.376 200.161 354.462 200.624 354.462 201.155C354.462 201.687 354.376 202.15 354.204 202.543C354.037 202.937 353.799 203.242 353.489 203.459C353.184 203.671 352.835 203.776 352.442 203.776ZM352.442 203.429C352.766 203.429 353.051 203.341 353.297 203.164C353.548 202.981 353.742 202.721 353.88 202.381C354.017 202.036 354.086 201.628 354.086 201.155C354.086 200.683 354.017 200.277 353.88 199.937C353.742 199.592 353.548 199.332 353.297 199.154C353.051 198.972 352.766 198.881 352.442 198.881C352.118 198.881 351.83 198.972 351.579 199.154C351.334 199.332 351.142 199.592 351.004 199.937C350.867 200.277 350.798 200.683 350.798 201.155C350.798 201.628 350.867 202.036 351.004 202.381C351.142 202.721 351.334 202.981 351.579 203.164C351.83 203.341 352.118 203.429 352.442 203.429Z" fill="#1E212C"/>
<path d="M357.339 200.683C357.678 200.683 357.978 200.747 358.238 200.875C358.504 200.998 358.708 201.177 358.85 201.414C358.993 201.645 359.064 201.913 359.064 202.218C359.064 202.529 358.99 202.802 358.843 203.038C358.696 203.274 358.492 203.456 358.231 203.584C357.971 203.712 357.676 203.776 357.346 203.776C356.678 203.776 356.164 203.55 355.805 203.097C355.452 202.639 355.275 202.002 355.275 201.185C355.275 200.614 355.368 200.131 355.555 199.738C355.746 199.339 356.014 199.039 356.358 198.837C356.702 198.635 357.106 198.534 357.568 198.534C358.054 198.534 358.445 198.623 358.74 198.8L358.585 199.103C358.339 198.945 358 198.866 357.568 198.866C356.973 198.866 356.503 199.061 356.159 199.45C355.82 199.834 355.651 200.392 355.651 201.126C355.651 201.352 355.665 201.559 355.695 201.746C355.798 201.411 355.997 201.15 356.292 200.963C356.592 200.776 356.941 200.683 357.339 200.683ZM357.332 203.451C357.735 203.451 358.062 203.341 358.312 203.119C358.563 202.893 358.688 202.595 358.688 202.226C358.688 201.857 358.563 201.561 358.312 201.34C358.062 201.118 357.72 201.008 357.287 201.008C357.012 201.008 356.764 201.062 356.543 201.17C356.326 201.278 356.157 201.426 356.034 201.613C355.916 201.8 355.857 202.009 355.857 202.241C355.857 202.447 355.914 202.644 356.027 202.831C356.145 203.018 356.314 203.168 356.535 203.282C356.757 203.395 357.022 203.451 357.332 203.451Z" fill="#1E212C"/>
<path d="M399.077 203.776C398.684 203.776 398.332 203.671 398.022 203.459C397.718 203.242 397.479 202.937 397.307 202.543C397.14 202.15 397.057 201.687 397.057 201.155C397.057 200.624 397.14 200.161 397.307 199.767C397.479 199.373 397.718 199.071 398.022 198.859C398.332 198.642 398.684 198.534 399.077 198.534C399.47 198.534 399.819 198.642 400.124 198.859C400.433 199.071 400.672 199.373 400.839 199.767C401.011 200.161 401.097 200.624 401.097 201.155C401.097 201.687 401.011 202.15 400.839 202.543C400.672 202.937 400.433 203.242 400.124 203.459C399.819 203.671 399.47 203.776 399.077 203.776ZM399.077 203.429C399.401 203.429 399.686 203.341 399.932 203.164C400.183 202.981 400.377 202.721 400.514 202.381C400.652 202.036 400.721 201.628 400.721 201.155C400.721 200.683 400.652 200.277 400.514 199.937C400.377 199.592 400.183 199.332 399.932 199.154C399.686 198.972 399.401 198.881 399.077 198.881C398.752 198.881 398.465 198.972 398.214 199.154C397.968 199.332 397.777 199.592 397.639 199.937C397.501 200.277 397.433 200.683 397.433 201.155C397.433 201.628 397.501 202.036 397.639 202.381C397.777 202.721 397.968 202.981 398.214 203.164C398.465 203.341 398.752 203.429 399.077 203.429Z" fill="#1E212C"/>
<path d="M405.391 198.571V198.837L403.172 203.739H402.759L404.956 198.911H402.058V199.9H401.69V198.571H405.391Z" fill="#1E212C"/>
<path opacity="0.3" d="M402.971 175.534H107.729V175.755H402.971V175.534Z" fill="#1E212C"/>
<path opacity="0.3" d="M402.971 164.105H107.729V164.326H402.971V164.105Z" fill="#1E212C"/>
<path opacity="0.3" d="M402.971 152.678H107.729V152.898H402.971V152.678Z" fill="#1E212C"/>
<path opacity="0.3" d="M402.971 141.249H107.729V141.469H402.971V141.249Z" fill="#1E212C"/>
<path opacity="0.3" d="M402.971 129.819H107.729V130.04H402.971V129.819Z" fill="#1E212C"/>
<path opacity="0.3" d="M402.971 118.248H107.729V118.468H402.971V118.248Z" fill="#1E212C"/>
<path opacity="0.3" d="M402.971 106.818H107.729V107.039H402.971V106.818Z" fill="#1E212C"/>
<defs>
<filter id="filter0_dddd_2198_2168" x="0.0761719" y="0.292969" width="523.928" height="329.683" filterUnits="userSpaceOnUse" color-interpolation-filters="sRGB">
<feFlood flood-opacity="0" result="BackgroundImageFix"/>
<feColorMatrix in="SourceAlpha" type="matrix" values="0 0 0 0 0 0 0 0 0 0 0 0 0 0 0 0 0 0 127 0" result="hardAlpha"/>
<feOffset dy="1"/>
<feGaussianBlur stdDeviation="10"/>
<feColorMatrix type="matrix" values="0 0 0 0 0.117647 0 0 0 0 0.129412 0 0 0 0 0.172549 0 0 0 0.02 0"/>
<feBlend mode="normal" in2="BackgroundImageFix" result="effect1_dropShadow_2198_2168"/>
<feColorMatrix in="SourceAlpha" type="matrix" values="0 0 0 0 0 0 0 0 0 0 0 0 0 0 0 0 0 0 127 0" result="hardAlpha"/>
<feOffset/>
<feGaussianBlur stdDeviation="22"/>
<feColorMatrix type="matrix" values="0 0 0 0 0.117647 0 0 0 0 0.129412 0 0 0 0 0.172549 0 0 0 0.02 0"/>
<feBlend mode="normal" in2="effect1_dropShadow_2198_2168" result="effect2_dropShadow_2198_2168"/>
<feColorMatrix in="SourceAlpha" type="matrix" values="0 0 0 0 0 0 0 0 0 0 0 0 0 0 0 0 0 0 127 0" result="hardAlpha"/>
<feOffset dy="8"/>
<feGaussianBlur stdDeviation="25"/>
<feColorMatrix type="matrix" values="0 0 0 0 0.117647 0 0 0 0 0.129412 0 0 0 0 0.172549 0 0 0 0.0422367 0"/>
<feBlend mode="normal" in2="effect2_dropShadow_2198_2168" result="effect3_dropShadow_2198_2168"/>
<feColorMatrix in="SourceAlpha" type="matrix" values="0 0 0 0 0 0 0 0 0 0 0 0 0 0 0 0 0 0 127 0" result="hardAlpha"/>
<feOffset dy="6"/>
<feGaussianBlur stdDeviation="40"/>
<feColorMatrix type="matrix" values="0 0 0 0 0.117647 0 0 0 0 0.129412 0 0 0 0 0.172549 0 0 0 0.04 0"/>
<feBlend mode="normal" in2="effect3_dropShadow_2198_2168" result="effect4_dropShadow_2198_2168"/>
<feBlend mode="normal" in="SourceGraphic" in2="effect4_dropShadow_2198_2168" result="shape"/>
</filter>
<linearGradient id="paint0_linear_2198_2168" x1="301.591" y1="154.208" x2="311.365" y2="144.448" gradientUnits="userSpaceOnUse">
<stop offset="0.00212215" stop-color="#FC5A5A"/>
<stop offset="0.9977" stop-color="#FF8C4B"/>
</linearGradient>
<linearGradient id="paint1_linear_2198_2168" x1="203.263" y1="139.367" x2="213.896" y2="130.554" gradientUnits="userSpaceOnUse">
<stop stop-color="#5A87FC"/>
<stop offset="0.9981" stop-color="#693FFB"/>
</linearGradient>
</defs>
</svg>
