<svg width="84" height="71" viewBox="0 0 84 71" fill="none" xmlns="http://www.w3.org/2000/svg">
<rect x="1.24609" y="18.6914" width="72.0385" height="52.613" transform="rotate(-14.2175 1.24609 18.6914)" fill="white"/>
<path d="M18.9874 58.4304L18.9031 58.4525C12.8107 59.836 9.64949 54.4982 9.61725 54.4434C9.58788 54.3919 9.56892 54.335 9.56147 54.2761C9.55401 54.2172 9.55821 54.1573 9.57381 54.1001C9.58941 54.0428 9.61611 53.9891 9.65239 53.9422C9.68867 53.8953 9.73381 53.856 9.78524 53.8265C9.83668 53.7971 9.8934 53.7781 9.95216 53.7707C10.0109 53.7632 10.0706 53.7674 10.1277 53.7831C10.1848 53.7988 10.2383 53.8256 10.2852 53.862C10.332 53.8984 10.3712 53.9436 10.4006 53.9952C10.5167 54.1995 13.2863 58.8275 18.7423 57.592L18.7676 57.5854C21.4304 56.89 21.4479 49.2421 21.4444 42.4478C21.4154 35.4167 21.4808 28.7488 24.0524 27.3914C24.5555 27.098 25.1133 26.9112 25.6913 26.8425C26.2694 26.7738 26.8554 26.8247 27.4131 26.992C30.2591 27.9001 32.3113 31.9845 34.7332 36.6942C36.0266 39.3882 37.4924 41.9956 39.1214 44.5C41.647 48.19 45.0513 49.9991 47.6181 49.0039C50.7971 47.7676 52.0789 42.5237 51.0243 34.9753C48.0263 13.4508 54.6607 9.27257 57.6308 8.47882L57.7404 8.45021C65.1895 6.50476 70.0845 9.5128 75.184 19.1542C75.2112 19.2064 75.2278 19.2634 75.233 19.322C75.2382 19.3806 75.2318 19.4397 75.2143 19.4958C75.1788 19.6091 75.0998 19.7037 74.9948 19.7586C74.8898 19.8136 74.7672 19.8245 74.6542 19.7888C74.5411 19.7532 74.4468 19.674 74.3919 19.5687C69.4583 10.2539 64.9964 7.4576 57.9349 9.30181L57.8338 9.32823C52.0616 10.8357 49.8355 20.4412 51.8765 34.861C53.0083 42.9488 51.5661 48.406 47.92 49.8184C44.9893 50.9719 41.1528 49.023 38.3956 44.9964C36.7511 42.4718 35.2683 39.8449 33.9562 37.1318C31.7427 32.7737 29.6563 28.6621 27.1431 27.8566C26.6951 27.724 26.2246 27.6859 25.7613 27.7448C25.298 27.8037 24.852 27.9582 24.4513 28.1986C22.3315 29.3208 22.3243 36.3163 22.3171 42.4816C22.2586 50.2486 22.2822 57.57 18.9874 58.4304Z" fill="#00F0B5"/>
<path d="M83.411 52.423L14.2203 70.4932C14.1085 70.5224 13.9898 70.5059 13.8901 70.4473C13.7905 70.3887 13.7182 70.2928 13.689 70.1808L0.301304 18.7116C0.272157 18.5995 0.288589 18.4805 0.346994 18.3806C0.405399 18.2807 0.500992 18.2082 0.612736 18.179L69.8035 0.108815C69.9151 0.0819697 70.0328 0.0995292 70.1318 0.157785C70.2309 0.216041 70.3036 0.310466 70.3347 0.42128L83.7224 51.8905C83.7516 52.0025 83.7351 52.1216 83.6767 52.2215C83.6183 52.3213 83.5227 52.3938 83.411 52.423ZM14.4218 69.5382L82.7699 51.688L69.6019 1.06385L1.25386 18.914L14.4218 69.5382Z" fill="#787A80"/>
<path d="M71.5173 33.1678L61.8521 35.692C61.7403 35.7212 61.6216 35.7047 61.5219 35.6461C61.4223 35.5875 61.35 35.4916 61.3208 35.3795C61.2917 35.2675 61.3081 35.1484 61.3665 35.0486C61.4249 34.9487 61.5205 34.8762 61.6323 34.847L71.2976 32.3227C71.4093 32.2936 71.528 32.3101 71.6277 32.3687C71.7273 32.4273 71.7996 32.5232 71.8288 32.6352C71.8579 32.7473 71.8415 32.8663 71.7831 32.9662C71.7247 33.0661 71.6291 33.1386 71.5173 33.1678Z" fill="#D7DADD"/>
<path d="M72.5564 37.1678L62.8911 39.692C62.7794 39.7212 62.6606 39.7047 62.561 39.6461C62.4614 39.5875 62.389 39.4916 62.3599 39.3795C62.3308 39.2675 62.3472 39.1484 62.4056 39.0486C62.464 38.9487 62.5596 38.8762 62.6713 38.847L72.3366 36.3228C72.4484 36.2936 72.5671 36.3101 72.6667 36.3687C72.7664 36.4273 72.8387 36.5232 72.8679 36.6352C72.897 36.7473 72.8806 36.8663 72.8222 36.9662C72.7637 37.0661 72.6682 37.1386 72.5564 37.1678Z" fill="#D7DADD"/>
<path d="M68.7508 42.4115L63.9224 43.6725C63.8106 43.7017 63.6919 43.6851 63.5922 43.6265C63.4926 43.5679 63.4203 43.4721 63.3911 43.36C63.362 43.2479 63.3784 43.1289 63.4368 43.029C63.4952 42.9292 63.5908 42.8566 63.7026 42.8275L68.531 41.5664C68.6428 41.5373 68.7615 41.5538 68.8611 41.6124C68.9607 41.671 69.0331 41.7669 69.0622 41.8789C69.0914 41.991 69.0749 42.11 69.0165 42.2099C68.9581 42.3098 68.8625 42.3823 68.7508 42.4115Z" fill="#D7DADD"/>
<path d="M18.7791 19.5623L9.11378 22.0865C9.00204 22.1157 8.8833 22.0992 8.78367 22.0406C8.68405 21.982 8.6117 21.8861 8.58255 21.7741C8.55341 21.662 8.56985 21.5429 8.62825 21.4431C8.68666 21.3432 8.78224 21.2707 8.89399 21.2415L18.5593 18.7173C18.671 18.6881 18.7897 18.7046 18.8894 18.7632C18.989 18.8218 19.0613 18.9177 19.0905 19.0298C19.1173 19.1417 19.0998 19.2597 19.0418 19.359C18.9837 19.4583 18.8896 19.5311 18.7791 19.5623Z" fill="#D7DADD"/>
<path d="M19.8298 23.6013L10.1646 26.1256C10.0528 26.1548 9.93408 26.1382 9.83445 26.0796C9.73483 26.021 9.66248 25.9252 9.63333 25.8131C9.60419 25.7011 9.62063 25.582 9.67904 25.4821C9.73744 25.3823 9.83302 25.3098 9.94477 25.2806L19.6101 22.7563C19.7217 22.7295 19.8393 22.747 19.9384 22.8053C20.0374 22.8636 20.1101 22.958 20.1413 23.0688C20.1704 23.1809 20.154 23.2999 20.0956 23.3998C20.0372 23.4997 19.9416 23.5722 19.8298 23.6013Z" fill="#D7DADD"/>
<path d="M16.0243 28.8294L11.1958 30.0904C11.0841 30.1196 10.9653 30.1031 10.8657 30.0445C10.7661 29.9859 10.6937 29.89 10.6646 29.778C10.6354 29.6659 10.6519 29.5468 10.7103 29.447C10.7687 29.3471 10.8643 29.2746 10.976 29.2454L15.8045 27.9844C15.9162 27.9552 16.035 27.9717 16.1346 28.0303C16.2342 28.0889 16.3066 28.1848 16.3357 28.2969C16.3649 28.4089 16.3484 28.528 16.29 28.6279C16.2316 28.7277 16.136 28.8002 16.0243 28.8294Z" fill="#D7DADD"/>
</svg>
