<svg width="518" height="350" viewBox="0 0 518 350" fill="none" xmlns="http://www.w3.org/2000/svg">
<g filter="url(#filter0_dddd_2198_2003)">
<path d="M80.6484 79.6745C80.6484 77.0567 82.3329 74.9346 84.4107 74.9346H433.361C435.439 74.9346 437.123 77.0567 437.123 79.6745V258.608C437.123 261.226 435.439 263.348 433.361 263.348H84.4107C82.3329 263.348 80.6484 261.226 80.6484 258.608V79.6745Z" fill="white"/>
</g>
<path d="M175.161 136.62C192.865 136.62 207.192 150.967 207.192 168.697C207.192 173.013 206.376 177.096 204.746 180.945L227.575 197.042C232.117 188.644 234.68 178.962 234.68 168.697C234.68 135.804 208.007 109.092 175.161 109.092C174.811 109.092 174.462 109.092 173.996 109.092V136.62C174.346 136.62 174.811 136.62 175.161 136.62Z" fill="#5A87FC"/>
<path d="M172.133 109.209C140.684 110.726 115.525 136.738 115.525 168.698C115.525 180.13 118.787 190.861 124.261 199.843L146.158 182.463C144.178 178.263 143.014 173.598 143.014 168.582C143.014 152.718 154.545 139.537 169.687 136.971C171.084 136.738 172.482 136.621 173.996 136.504V109.093C173.414 109.093 172.715 109.093 172.133 109.209Z" fill="#E2EBF5"/>
<path d="M175.16 228.42C197.757 228.42 217.557 215.706 227.574 197.16L204.745 181.062C199.97 192.727 188.438 200.892 175.16 200.892C162.464 200.892 151.399 193.427 146.274 182.696L124.377 200.076C134.86 216.989 153.612 228.42 175.16 228.42Z" fill="#FC5A5A"/>
<path d="M162.489 159.775C163.227 159.775 163.892 159.883 164.483 160.099C165.081 160.308 165.59 160.602 166.011 160.981C166.432 161.354 166.753 161.793 166.974 162.299C167.203 162.805 167.318 163.353 167.318 163.941C167.318 164.454 167.258 164.909 167.14 165.303C167.03 165.69 166.864 166.029 166.642 166.319C166.428 166.61 166.162 166.855 165.845 167.056C165.535 167.257 165.18 167.425 164.782 167.559C165.741 167.864 166.457 168.329 166.93 168.955C167.402 169.58 167.639 170.366 167.639 171.311C167.639 172.115 167.491 172.826 167.196 173.444C166.9 174.062 166.502 174.583 166 175.007C165.498 175.424 164.914 175.741 164.25 175.957C163.593 176.173 162.895 176.281 162.157 176.281C161.352 176.281 160.651 176.188 160.053 176.001C159.455 175.815 158.934 175.54 158.491 175.175C158.048 174.81 157.672 174.364 157.362 173.835C157.052 173.306 156.786 172.696 156.564 172.004L157.772 171.501C157.978 171.412 158.189 171.367 158.403 171.367C158.595 171.367 158.765 171.408 158.912 171.49C159.067 171.572 159.185 171.691 159.267 171.847C159.399 172.108 159.543 172.365 159.698 172.618C159.861 172.871 160.053 173.098 160.274 173.299C160.496 173.492 160.754 173.653 161.05 173.779C161.352 173.898 161.71 173.958 162.124 173.958C162.589 173.958 162.995 173.883 163.342 173.734C163.689 173.578 163.977 173.377 164.206 173.131C164.442 172.886 164.615 172.614 164.726 172.316C164.844 172.011 164.903 171.706 164.903 171.4C164.903 171.013 164.863 170.663 164.782 170.351C164.7 170.031 164.531 169.759 164.272 169.536C164.014 169.312 163.641 169.137 163.154 169.011C162.674 168.884 162.028 168.821 161.216 168.821V166.855C161.887 166.848 162.445 166.785 162.888 166.666C163.331 166.546 163.682 166.383 163.94 166.174C164.206 165.958 164.39 165.701 164.494 165.404C164.597 165.106 164.649 164.778 164.649 164.421C164.649 163.654 164.442 163.077 164.029 162.69C163.615 162.295 163.05 162.098 162.334 162.098C161.684 162.098 161.146 162.273 160.717 162.623C160.289 162.965 159.99 163.408 159.82 163.952C159.732 164.235 159.61 164.44 159.455 164.566C159.3 164.685 159.097 164.745 158.846 164.745C158.728 164.745 158.602 164.734 158.469 164.711L157.03 164.454C157.14 163.68 157.354 163.003 157.672 162.422C157.989 161.834 158.384 161.346 158.857 160.959C159.337 160.565 159.883 160.27 160.496 160.077C161.116 159.876 161.78 159.775 162.489 159.775Z" fill="#787A80"/>
<path d="M175.337 159.775C176.075 159.775 176.74 159.883 177.33 160.099C177.928 160.308 178.438 160.602 178.859 160.981C179.279 161.354 179.601 161.793 179.822 162.299C180.051 162.805 180.165 163.353 180.165 163.941C180.165 164.454 180.106 164.909 179.988 165.303C179.877 165.69 179.711 166.029 179.49 166.319C179.276 166.61 179.01 166.855 178.693 167.056C178.382 167.257 178.028 167.425 177.629 167.559C178.589 167.864 179.305 168.329 179.778 168.955C180.25 169.58 180.487 170.366 180.487 171.311C180.487 172.115 180.339 172.826 180.044 173.444C179.748 174.062 179.35 174.583 178.848 175.007C178.346 175.424 177.762 175.741 177.098 175.957C176.441 176.173 175.743 176.281 175.005 176.281C174.2 176.281 173.499 176.188 172.901 176.001C172.303 175.815 171.782 175.54 171.339 175.175C170.896 174.81 170.52 174.364 170.21 173.835C169.9 173.306 169.634 172.696 169.412 172.004L170.619 171.501C170.826 171.412 171.037 171.367 171.251 171.367C171.443 171.367 171.612 171.408 171.76 171.49C171.915 171.572 172.033 171.691 172.114 171.847C172.247 172.108 172.391 172.365 172.546 172.618C172.709 172.871 172.901 173.098 173.122 173.299C173.344 173.492 173.602 173.653 173.897 173.779C174.2 173.898 174.558 173.958 174.972 173.958C175.437 173.958 175.843 173.883 176.19 173.734C176.537 173.578 176.825 173.377 177.054 173.131C177.29 172.886 177.463 172.614 177.574 172.316C177.692 172.011 177.751 171.706 177.751 171.4C177.751 171.013 177.711 170.663 177.629 170.351C177.548 170.031 177.378 169.759 177.12 169.536C176.862 169.312 176.489 169.137 176.002 169.011C175.522 168.884 174.876 168.821 174.064 168.821V166.855C174.735 166.848 175.293 166.785 175.736 166.666C176.179 166.546 176.529 166.383 176.788 166.174C177.054 165.958 177.238 165.701 177.341 165.404C177.445 165.106 177.497 164.778 177.497 164.421C177.497 163.654 177.29 163.077 176.876 162.69C176.463 162.295 175.898 162.098 175.182 162.098C174.532 162.098 173.993 162.273 173.565 162.623C173.137 162.965 172.838 163.408 172.668 163.952C172.58 164.235 172.458 164.44 172.303 164.566C172.148 164.685 171.945 164.745 171.694 164.745C171.575 164.745 171.45 164.734 171.317 164.711L169.877 164.454C169.988 163.68 170.202 163.003 170.52 162.422C170.837 161.834 171.232 161.346 171.705 160.959C172.185 160.565 172.731 160.27 173.344 160.077C173.964 159.876 174.628 159.775 175.337 159.775Z" fill="#787A80"/>
<path d="M189.337 163.863C189.337 164.473 189.233 165.024 189.027 165.515C188.827 166.007 188.558 166.427 188.218 166.777C187.879 167.12 187.484 167.384 187.033 167.57C186.583 167.756 186.114 167.849 185.627 167.849C185.095 167.849 184.604 167.756 184.154 167.57C183.704 167.384 183.312 167.12 182.98 166.777C182.655 166.427 182.4 166.007 182.216 165.515C182.031 165.024 181.939 164.473 181.939 163.863C181.939 163.237 182.031 162.671 182.216 162.165C182.4 161.659 182.655 161.231 182.98 160.881C183.312 160.531 183.704 160.263 184.154 160.077C184.604 159.883 185.095 159.787 185.627 159.787C186.158 159.787 186.649 159.883 187.1 160.077C187.557 160.263 187.952 160.531 188.285 160.881C188.617 161.231 188.875 161.659 189.06 162.165C189.244 162.671 189.337 163.237 189.337 163.863ZM187.221 163.863C187.221 163.431 187.181 163.07 187.1 162.779C187.018 162.489 186.904 162.255 186.756 162.076C186.616 161.897 186.446 161.771 186.247 161.696C186.055 161.614 185.848 161.573 185.627 161.573C185.405 161.573 185.199 161.614 185.007 161.696C184.815 161.771 184.649 161.897 184.508 162.076C184.368 162.255 184.257 162.489 184.176 162.779C184.102 163.07 184.065 163.431 184.065 163.863C184.065 164.28 184.102 164.629 184.176 164.912C184.257 165.188 184.368 165.411 184.508 165.582C184.649 165.754 184.815 165.876 185.007 165.951C185.199 166.025 185.405 166.063 185.627 166.063C185.848 166.063 186.055 166.025 186.247 165.951C186.446 165.876 186.616 165.754 186.756 165.582C186.904 165.411 187.018 165.188 187.1 164.912C187.181 164.629 187.221 164.28 187.221 163.863ZM194.663 160.39C194.752 160.278 194.863 160.177 194.996 160.088C195.128 159.999 195.313 159.954 195.549 159.954H197.532L185.638 175.689C185.549 175.808 185.435 175.908 185.295 175.99C185.162 176.065 184.999 176.102 184.807 176.102H182.77L194.663 160.39ZM198.373 172.305C198.373 172.916 198.27 173.466 198.063 173.958C197.864 174.449 197.594 174.87 197.255 175.22C196.915 175.562 196.52 175.83 196.07 176.024C195.619 176.21 195.151 176.303 194.663 176.303C194.132 176.303 193.641 176.21 193.19 176.024C192.74 175.83 192.349 175.562 192.017 175.22C191.692 174.87 191.437 174.449 191.252 173.958C191.068 173.466 190.976 172.916 190.976 172.305C190.976 171.68 191.068 171.114 191.252 170.608C191.437 170.101 191.692 169.673 192.017 169.323C192.349 168.973 192.74 168.705 193.19 168.519C193.641 168.326 194.132 168.229 194.663 168.229C195.195 168.229 195.686 168.326 196.136 168.519C196.594 168.705 196.989 168.973 197.321 169.323C197.653 169.673 197.912 170.101 198.096 170.608C198.281 171.114 198.373 171.68 198.373 172.305ZM196.269 172.305C196.269 171.873 196.225 171.512 196.136 171.222C196.055 170.931 195.941 170.697 195.793 170.518C195.653 170.34 195.483 170.213 195.284 170.139C195.092 170.057 194.885 170.016 194.663 170.016C194.442 170.016 194.235 170.057 194.043 170.139C193.851 170.213 193.685 170.34 193.545 170.518C193.412 170.697 193.305 170.931 193.224 171.222C193.142 171.512 193.102 171.873 193.102 172.305C193.102 172.722 193.142 173.072 193.224 173.355C193.305 173.638 193.412 173.865 193.545 174.036C193.685 174.207 193.851 174.33 194.043 174.404C194.235 174.479 194.442 174.516 194.663 174.516C194.885 174.516 195.092 174.479 195.284 174.404C195.483 174.33 195.653 174.207 195.793 174.036C195.941 173.865 196.055 173.638 196.136 173.355C196.225 173.072 196.269 172.722 196.269 172.305Z" fill="#787A80"/>
<defs>
<filter id="filter0_dddd_2198_2003" x="0.648438" y="0.93457" width="516.475" height="348.413" filterUnits="userSpaceOnUse" color-interpolation-filters="sRGB">
<feFlood flood-opacity="0" result="BackgroundImageFix"/>
<feColorMatrix in="SourceAlpha" type="matrix" values="0 0 0 0 0 0 0 0 0 0 0 0 0 0 0 0 0 0 127 0" result="hardAlpha"/>
<feOffset dy="1"/>
<feGaussianBlur stdDeviation="10"/>
<feColorMatrix type="matrix" values="0 0 0 0 0.117647 0 0 0 0 0.129412 0 0 0 0 0.172549 0 0 0 0.02 0"/>
<feBlend mode="normal" in2="BackgroundImageFix" result="effect1_dropShadow_2198_2003"/>
<feColorMatrix in="SourceAlpha" type="matrix" values="0 0 0 0 0 0 0 0 0 0 0 0 0 0 0 0 0 0 127 0" result="hardAlpha"/>
<feOffset/>
<feGaussianBlur stdDeviation="22"/>
<feColorMatrix type="matrix" values="0 0 0 0 0.117647 0 0 0 0 0.129412 0 0 0 0 0.172549 0 0 0 0.02 0"/>
<feBlend mode="normal" in2="effect1_dropShadow_2198_2003" result="effect2_dropShadow_2198_2003"/>
<feColorMatrix in="SourceAlpha" type="matrix" values="0 0 0 0 0 0 0 0 0 0 0 0 0 0 0 0 0 0 127 0" result="hardAlpha"/>
<feOffset dy="8"/>
<feGaussianBlur stdDeviation="25"/>
<feColorMatrix type="matrix" values="0 0 0 0 0.117647 0 0 0 0 0.129412 0 0 0 0 0.172549 0 0 0 0.0422367 0"/>
<feBlend mode="normal" in2="effect2_dropShadow_2198_2003" result="effect3_dropShadow_2198_2003"/>
<feColorMatrix in="SourceAlpha" type="matrix" values="0 0 0 0 0 0 0 0 0 0 0 0 0 0 0 0 0 0 127 0" result="hardAlpha"/>
<feOffset dy="6"/>
<feGaussianBlur stdDeviation="40"/>
<feColorMatrix type="matrix" values="0 0 0 0 0.117647 0 0 0 0 0.129412 0 0 0 0 0.172549 0 0 0 0.04 0"/>
<feBlend mode="normal" in2="effect3_dropShadow_2198_2003" result="effect4_dropShadow_2198_2003"/>
<feBlend mode="normal" in="SourceGraphic" in2="effect4_dropShadow_2198_2003" result="shape"/>
</filter>
</defs>
</svg>
