<svg width="61" height="16" viewBox="0 0 61 16" fill="none" xmlns="http://www.w3.org/2000/svg">
<path d="M5.55008 0.929688V14.6974H2.91974V3.06041H0.125V0.929688H5.55008Z" fill="#03CEA4"/>
<path d="M8.67482 14.3703C8.34603 14.0425 8.18164 13.7147 8.18164 13.223C8.18164 12.7313 8.34603 12.4035 8.67482 12.0757C9.00362 11.7479 9.33241 11.584 9.82559 11.584C10.3188 11.584 10.6476 11.7479 10.9764 12.0757C11.3051 12.4035 11.4695 12.7313 11.4695 13.223C11.4695 13.7147 11.3051 14.0425 10.9764 14.3703C10.6476 14.6981 10.3188 14.862 9.82559 14.862C9.4968 14.862 9.00362 14.6981 8.67482 14.3703Z" fill="#03CEA4"/>
<path d="M15.908 14.0427C15.086 13.551 14.4285 12.7315 13.9353 11.5841C13.4421 10.4368 13.1133 9.28951 13.1133 7.81439C13.1133 6.33927 13.4421 5.02805 13.9353 4.04464C14.4285 2.89733 15.086 2.24172 15.908 1.58611C16.73 0.930504 17.7164 0.766602 18.8672 0.766602C20.0179 0.766602 21.0043 1.09441 21.8263 1.58611C22.6483 2.07782 23.3059 2.89733 23.9634 4.04464C24.621 5.19196 24.7854 6.33927 24.7854 7.81439C24.7854 9.28951 24.4566 10.6007 23.9634 11.5841C23.4703 12.5676 22.8127 13.3871 21.8263 14.0427C20.8399 14.6983 20.0179 14.8622 18.8672 14.8622C17.7164 14.8622 16.73 14.6983 15.908 14.0427ZM21.1687 11.4202C21.6619 10.6007 21.9907 9.45341 21.9907 7.81439C21.9907 6.17537 21.6619 5.02806 21.1687 4.20855C20.6755 3.38904 19.8535 3.06123 18.8672 3.06123C17.8808 3.06123 17.0588 3.38904 16.5656 4.20855C16.0724 5.02806 15.7436 6.17537 15.7436 7.81439C15.7436 9.45341 16.0724 10.6007 16.5656 11.4202C17.0588 12.2397 17.8808 12.5676 18.8672 12.5676C19.8535 12.7315 20.6755 12.2397 21.1687 11.4202Z" fill="#03CEA4"/>
<path d="M36.4576 12.5667V14.6974H26.265V13.0584L31.6901 7.81357C32.3477 7.15796 32.6765 6.66625 33.0053 6.33845C33.3341 6.01064 33.3341 5.51894 33.3341 5.02724C33.3341 4.37163 33.1697 3.87992 32.6765 3.55212C32.1833 3.22431 31.5257 3.06041 30.7037 3.06041C29.2241 3.06041 28.2378 3.55212 27.4158 4.53553L25.6074 3.22431C26.1006 2.5687 26.9226 1.91309 27.7446 1.58529C28.731 1.25748 29.7173 0.929688 30.8681 0.929688C32.3477 0.929688 33.4985 1.25749 34.4848 1.9131C35.3068 2.56871 35.8 3.55211 35.8 4.86333C35.8 5.68284 35.6356 6.33845 35.3068 6.99406C34.978 7.64967 34.3204 8.46918 33.4984 9.28869L29.8817 12.7306H36.4576V12.5667Z" fill="#03CEA4"/>
<path d="M48.4589 8.79698C48.7877 9.28868 49.1165 9.9443 49.1165 10.7638C49.1165 11.5833 48.9521 12.4028 48.4589 12.8945C47.9657 13.5501 47.3081 14.0418 46.4861 14.3696C45.6641 14.6975 44.6778 14.8614 43.527 14.8614C42.3762 14.8614 41.3898 14.6975 40.5678 14.3696C39.7459 14.0418 39.0883 13.5501 38.5951 12.8945C38.1019 12.2389 37.9375 11.5833 37.9375 10.7638C37.9375 9.9443 38.1019 9.28868 38.4307 8.79698C38.7595 8.30527 39.4171 7.81357 40.0747 7.48577C39.5815 7.15796 39.0883 6.83015 38.7595 6.33845C38.4307 5.84674 38.2663 5.35503 38.2663 4.69943C38.2663 3.87992 38.4307 3.22431 38.9239 2.73261C39.4171 2.2409 39.9103 1.74919 40.7322 1.42139C41.5542 1.09358 42.3762 0.929688 43.3626 0.929688C44.349 0.929688 45.3353 1.09358 45.9929 1.42139C46.6505 1.74919 47.3081 2.2409 47.8013 2.73261C48.2945 3.22431 48.4589 4.04382 48.4589 4.69943C48.4589 5.35503 48.2945 5.84674 47.9657 6.33845C47.6369 6.83015 47.3081 7.15796 46.6505 7.48577C47.4725 7.81357 48.1301 8.30527 48.4589 8.79698ZM45.6641 12.4028C46.1573 12.075 46.4861 11.4194 46.4861 10.7638C46.4861 10.1082 46.1573 9.61649 45.6641 9.12479C45.1709 8.79698 44.349 8.46918 43.3626 8.46918C42.3762 8.46918 41.7186 8.63308 41.061 9.12479C40.5678 9.45259 40.2391 10.1082 40.2391 10.7638C40.2391 11.4194 40.5678 12.075 41.061 12.4028C41.5542 12.7306 42.3762 13.0584 43.3626 13.0584C44.349 12.8945 45.1709 12.7306 45.6641 12.4028ZM41.5542 3.22431C41.061 3.55211 40.8966 4.04382 40.8966 4.69943C40.8966 5.35503 41.061 5.68284 41.5542 6.17455C42.0474 6.50235 42.705 6.66626 43.527 6.66626C44.349 6.66626 45.0065 6.50235 45.4997 6.17455C45.9929 5.84674 46.1573 5.35503 46.1573 4.69943C46.1573 4.04382 45.9929 3.55211 45.4997 3.22431C45.0065 2.8965 44.349 2.73261 43.527 2.73261C42.5406 2.73261 42.0474 2.8965 41.5542 3.22431Z" fill="#03CEA4"/>
<path d="M59.3074 7.48806C60.2937 8.30757 60.7869 9.29098 60.7869 10.6022C60.7869 11.4217 60.6225 12.2412 60.1293 12.8968C59.8006 13.5524 59.143 14.0441 58.321 14.5359C57.499 14.8637 56.5126 15.1915 55.3619 15.1915C54.3755 15.1915 53.3891 15.0276 52.5672 14.6998C51.7452 14.372 50.9232 14.0442 50.2656 13.5524L51.4164 11.5856C51.9096 12.0773 52.5672 12.4051 53.2247 12.569C53.8823 12.7329 54.7043 12.8968 55.3619 12.8968C56.3482 12.8968 57.0058 12.7329 57.499 12.4051C57.9922 12.0773 58.321 11.5856 58.321 10.93C58.321 10.2744 57.9922 9.61879 57.499 9.29099C57.0058 8.96318 56.0195 8.79927 54.7043 8.79927H51.4164L52.074 1.25977H60.1293V3.3905H54.2111L53.8823 6.50464H55.1975C57.0058 6.34073 58.4854 6.66855 59.3074 7.48806Z" fill="#03CEA4"/>
</svg>
