<svg width="103" height="103" viewBox="0 0 103 103" fill="none" xmlns="http://www.w3.org/2000/svg">
<path d="M51.3217 102.905C23.0924 102.905 0.167969 79.9866 0.167969 51.7646C0.167969 23.5426 23.0924 0.624023 51.3217 0.624023C79.5509 0.624023 102.475 23.5426 102.475 51.7646C102.475 79.9866 79.5509 102.905 51.3217 102.905ZM51.3217 8.57922C27.5447 8.57922 8.12521 27.899 8.12521 51.7646C8.12521 75.6301 27.4499 94.9499 51.3217 94.9499C75.0987 94.9499 94.5181 75.6301 94.5181 51.7646C94.5181 27.899 75.1934 8.57922 51.3217 8.57922Z" fill="#E2EBF5"/>
<path d="M51.3209 0.623047C48.9526 0.623047 47.1528 2.61185 47.3423 4.97946C47.5317 7.06297 49.3316 8.57824 51.4156 8.57824C75.1926 8.67295 94.4226 27.9927 94.4226 51.7636C94.4226 75.5344 75.0979 94.9489 51.2262 94.9489C39.2903 94.9489 28.1122 89.9296 20.0603 81.5956C18.5446 80.0803 16.0816 79.8909 14.4712 81.3114C12.7661 82.8267 12.6714 85.4784 14.1871 87.0884C16.9342 90.0243 20.0603 92.5813 23.5652 94.7595C31.8067 100.063 41.3743 102.809 51.2262 102.809C79.4554 102.809 102.38 79.8909 102.38 51.6689C102.38 23.4469 79.5501 0.623047 51.3209 0.623047Z" fill="#5A87FC"/>
</svg>
