<svg width="578" height="336" viewBox="0 0 578 336" fill="none" xmlns="http://www.w3.org/2000/svg">
<g filter="url(#filter0_dddd_2198_2200)">
<path d="M80.1309 79.2159C80.1309 76.7818 82.1012 74.8086 84.5318 74.8086H492.717C495.148 74.8086 497.118 76.7818 497.118 79.2159V245.593C497.118 248.027 495.148 250 492.717 250H84.5318C82.1012 250 80.1309 248.027 80.1309 245.593V79.2159Z" fill="white"/>
</g>
<path fill-rule="evenodd" clip-rule="evenodd" d="M117.813 105.109C118.117 105.109 118.363 105.356 118.363 105.66L118.363 137.614C118.363 137.918 118.117 138.164 117.813 138.164C117.509 138.164 117.263 137.918 117.263 137.614L117.263 105.66C117.263 105.356 117.509 105.109 117.813 105.109Z" fill="#03CEA4"/>
<path fill-rule="evenodd" clip-rule="evenodd" d="M125.049 114.066C124.819 114.265 124.472 114.239 124.273 114.008L117.814 106.504L111.354 114.008C111.155 114.239 110.808 114.265 110.578 114.066C110.348 113.867 110.322 113.519 110.521 113.289L117.397 105.301C117.501 105.179 117.654 105.109 117.814 105.109C117.974 105.109 118.126 105.179 118.23 105.301L125.107 113.289C125.305 113.519 125.279 113.867 125.049 114.066Z" fill="#03CEA4"/>
<g opacity="0.25">
<path opacity="0.25" d="M340.666 120.624C277.864 205.134 242.393 214.712 220.877 208.233C200.234 202.036 190.639 181.19 169.124 182.035C152.551 182.88 126.965 205.698 118.242 221.473H340.666V120.624Z" fill="url(#paint0_linear_2198_2200)"/>
</g>
<path d="M118.241 222.318H117.95C117.66 222.036 117.369 221.754 117.659 221.473C126.382 205.979 151.677 182.598 169.122 181.753C181.915 181.189 190.347 187.95 199.07 194.993C205.466 200.063 212.444 205.416 221.167 207.951C251.114 216.965 290.075 188.232 340.084 120.623C340.374 120.342 340.665 120.342 340.956 120.342C341.247 120.623 341.247 120.905 341.247 121.187C290.656 189.359 251.114 218.374 220.585 209.078C211.572 206.261 204.594 200.908 198.197 195.838C189.475 189.077 181.334 182.598 169.122 183.161C152.55 184.006 127.254 207.388 118.822 222.036C118.822 222.036 118.532 222.318 118.241 222.318Z" fill="#03CEA4"/>
<path d="M344.739 120.622C344.739 122.876 342.994 124.566 340.668 124.566C338.342 124.566 336.598 122.876 336.598 120.622C336.598 118.369 338.342 116.679 340.668 116.679C342.994 116.679 344.739 118.369 344.739 120.622Z" fill="#03CEA4"/>
<path d="M342.992 120.623C342.992 121.75 342.12 122.877 340.666 122.877C339.503 122.877 338.34 122.032 338.34 120.623C338.34 119.214 339.212 118.369 340.666 118.369C341.829 118.369 342.992 119.496 342.992 120.623Z" fill="white"/>
<g opacity="0.9">
<path d="M148.301 129.846V135.74C148.301 136.328 148.125 136.802 147.772 137.162C147.428 137.514 146.951 137.691 146.342 137.691C145.675 137.691 145.154 137.492 144.78 137.096C144.406 136.699 144.219 136.144 144.219 135.432H144.989C144.989 135.902 145.095 136.28 145.308 136.567C145.521 136.846 145.854 136.985 146.309 136.985C146.742 136.985 147.05 136.868 147.233 136.633C147.424 136.39 147.519 136.093 147.519 135.74V129.846H148.301Z" fill="#787A80"/>
<path d="M152.666 131.52C153.275 131.52 153.792 131.678 154.218 131.994C154.65 132.31 154.947 132.729 155.109 133.25V131.598H155.868V137.614H155.109V135.961C154.947 136.482 154.65 136.901 154.218 137.217C153.792 137.533 153.275 137.691 152.666 137.691C152.124 137.691 151.636 137.566 151.203 137.316C150.778 137.066 150.444 136.71 150.202 136.247C149.967 135.777 149.85 135.23 149.85 134.606C149.85 133.974 149.967 133.427 150.202 132.964C150.444 132.494 150.778 132.137 151.203 131.895C151.628 131.645 152.116 131.52 152.666 131.52ZM152.864 132.204C152.19 132.204 151.647 132.42 151.236 132.854C150.833 133.28 150.631 133.864 150.631 134.606C150.631 135.347 150.833 135.935 151.236 136.368C151.647 136.794 152.19 137.008 152.864 137.008C153.29 137.008 153.671 136.908 154.009 136.71C154.353 136.512 154.621 136.233 154.812 135.873C155.01 135.505 155.109 135.083 155.109 134.606C155.109 134.128 155.01 133.709 154.812 133.349C154.621 132.982 154.353 132.699 154.009 132.501C153.671 132.303 153.29 132.204 152.864 132.204Z" fill="#787A80"/>
<path d="M160.762 131.487C161.459 131.487 162.024 131.711 162.457 132.159C162.897 132.6 163.117 133.25 163.117 134.11V137.614H162.358V134.165C162.358 133.511 162.193 133.012 161.863 132.666C161.533 132.314 161.081 132.137 160.509 132.137C159.908 132.137 159.427 132.332 159.068 132.721C158.716 133.103 158.54 133.669 158.54 134.418V137.614H157.759V131.598H158.54V133.074C158.694 132.56 158.973 132.167 159.376 131.895C159.779 131.623 160.242 131.487 160.762 131.487Z" fill="#787A80"/>
<path d="M170.145 131.598V137.614H169.375V136.126C169.221 136.648 168.942 137.044 168.538 137.316C168.135 137.588 167.673 137.724 167.152 137.724C166.448 137.724 165.876 137.503 165.436 137.063C165.003 136.615 164.787 135.961 164.787 135.101V131.598H165.557V135.035C165.557 135.696 165.722 136.203 166.052 136.556C166.382 136.901 166.833 137.074 167.405 137.074C168.007 137.074 168.483 136.883 168.835 136.501C169.195 136.111 169.375 135.542 169.375 134.793V131.598H170.145Z" fill="#787A80"/>
<path d="M174.579 131.52C175.188 131.52 175.705 131.678 176.13 131.994C176.563 132.31 176.86 132.729 177.021 133.25V131.598H177.781V137.614H177.021V135.961C176.86 136.482 176.563 136.901 176.13 137.217C175.705 137.533 175.188 137.691 174.579 137.691C174.036 137.691 173.548 137.566 173.116 137.316C172.69 137.066 172.356 136.71 172.114 136.247C171.88 135.777 171.762 135.23 171.762 134.606C171.762 133.974 171.88 133.427 172.114 132.964C172.356 132.494 172.69 132.137 173.116 131.895C173.541 131.645 174.029 131.52 174.579 131.52ZM174.777 132.204C174.102 132.204 173.559 132.42 173.149 132.854C172.745 133.28 172.544 133.864 172.544 134.606C172.544 135.347 172.745 135.935 173.149 136.368C173.559 136.794 174.102 137.008 174.777 137.008C175.202 137.008 175.584 136.908 175.921 136.71C176.266 136.512 176.534 136.233 176.724 135.873C176.922 135.505 177.021 135.083 177.021 134.606C177.021 134.128 176.922 133.709 176.724 133.349C176.534 132.982 176.266 132.699 175.921 132.501C175.584 132.303 175.202 132.204 174.777 132.204Z" fill="#787A80"/>
<path d="M180.453 132.843C180.629 132.409 180.911 132.075 181.3 131.84C181.688 131.605 182.162 131.487 182.719 131.487V132.325H182.466C181.886 132.325 181.406 132.483 181.025 132.799C180.643 133.107 180.453 133.614 180.453 134.319V137.614H179.671V131.598H180.453V132.843Z" fill="#787A80"/>
<path d="M184.129 131.598L186.219 136.611L188.144 131.598H189.003L185.471 140.456H184.591L185.801 137.547L183.27 131.598H184.129Z" fill="#787A80"/>
<path d="M192.75 135.74V135.101L196.843 129.813H197.668V135.057H198.879V135.74H197.668V137.614H196.887V135.74H192.75ZM196.942 130.771L193.576 135.057H196.942V130.771Z" fill="#787A80"/>
<path d="M202.91 136.93V137.614H202.195C201.616 137.614 201.183 137.478 200.897 137.206C200.611 136.927 200.468 136.46 200.468 135.807V132.27H199.555V131.598H200.468V130.077H201.249V131.598H202.899V132.27H201.249V135.818C201.249 136.244 201.326 136.537 201.48 136.699C201.634 136.853 201.905 136.93 202.294 136.93H202.91Z" fill="#787A80"/>
<path d="M207.402 131.487C208.099 131.487 208.664 131.711 209.097 132.159C209.537 132.6 209.757 133.25 209.757 134.11V137.614H208.998V134.165C208.998 133.511 208.833 133.012 208.502 132.666C208.172 132.314 207.721 132.137 207.149 132.137C206.548 132.137 206.067 132.332 205.708 132.721C205.356 133.103 205.18 133.669 205.18 134.418V137.614H204.399V129.46H205.18V133.074C205.334 132.56 205.613 132.167 206.016 131.895C206.419 131.623 206.881 131.487 207.402 131.487Z" fill="#787A80"/>
</g>
<g opacity="0.9">
<path d="M149.816 104.074C150.966 104.074 152.004 104.344 152.931 104.884C153.87 105.425 154.604 106.183 155.132 107.159C155.672 108.122 155.942 109.215 155.942 110.438C155.942 111.66 155.672 112.759 155.132 113.734C154.604 114.698 153.87 115.456 152.931 116.009C152.004 116.549 150.966 116.82 149.816 116.82C148.654 116.82 147.603 116.549 146.665 116.009C145.737 115.456 145.004 114.698 144.464 113.734C143.924 112.759 143.654 111.66 143.654 110.438C143.654 109.215 143.924 108.122 144.464 107.159C145.004 106.183 145.737 105.425 146.665 104.884C147.603 104.344 148.654 104.074 149.816 104.074ZM149.816 105.942C149.018 105.942 148.308 106.124 147.686 106.489C147.064 106.853 146.577 107.376 146.224 108.058C145.884 108.739 145.714 109.533 145.714 110.438C145.714 111.343 145.884 112.136 146.224 112.818C146.577 113.499 147.064 114.022 147.686 114.387C148.308 114.751 149.018 114.933 149.816 114.933C150.602 114.933 151.3 114.751 151.91 114.387C152.532 114.022 153.014 113.499 153.354 112.818C153.706 112.136 153.882 111.343 153.882 110.438C153.882 109.533 153.706 108.739 153.354 108.058C153.014 107.376 152.532 106.853 151.91 106.489C151.3 106.124 150.602 105.942 149.816 105.942Z" fill="#03CEA4"/>
<path d="M162.297 114.598L165.043 106.965H167.191L163.494 116.679H161.065L157.368 106.965H159.516L162.297 114.598Z" fill="#03CEA4"/>
<path d="M178.033 111.354C178.033 111.684 178.01 111.971 177.963 112.218H170.499C170.534 113.217 170.81 113.958 171.326 114.44C171.842 114.921 172.482 115.162 173.245 115.162C173.914 115.162 174.477 114.992 174.935 114.651C175.404 114.31 175.692 113.858 175.797 113.294H177.945C177.816 113.975 177.546 114.581 177.135 115.11C176.725 115.638 176.191 116.056 175.533 116.361C174.876 116.655 174.143 116.802 173.333 116.802C172.394 116.802 171.561 116.602 170.833 116.203C170.117 115.803 169.554 115.227 169.143 114.475C168.732 113.723 168.527 112.835 168.527 111.813C168.527 110.802 168.732 109.921 169.143 109.168C169.554 108.416 170.117 107.84 170.833 107.441C171.561 107.041 172.394 106.841 173.333 106.841C174.283 106.841 175.111 107.041 175.815 107.441C176.531 107.829 177.077 108.369 177.452 109.063C177.839 109.744 178.033 110.508 178.033 111.354ZM176.009 111.302C176.032 110.667 175.921 110.138 175.674 109.715C175.439 109.28 175.111 108.963 174.688 108.763C174.278 108.551 173.826 108.446 173.333 108.446C172.547 108.446 171.889 108.687 171.361 109.168C170.833 109.65 170.546 110.361 170.499 111.302H176.009Z" fill="#03CEA4"/>
<path d="M182.33 108.869C182.658 108.234 183.128 107.735 183.738 107.37C184.348 106.994 185.052 106.806 185.85 106.806V108.992H185.252C184.372 108.992 183.662 109.21 183.122 109.644C182.594 110.068 182.33 110.773 182.33 111.76V116.679H180.323V106.965H182.33V108.869Z" fill="#03CEA4"/>
<path d="M191.596 106.841C192.477 106.841 193.228 107.059 193.85 107.494C194.472 107.928 194.912 108.504 195.17 109.221V106.965H197.177V116.679H195.17V114.422C194.912 115.139 194.472 115.715 193.85 116.15C193.228 116.584 192.477 116.802 191.596 116.802C190.751 116.802 189.994 116.602 189.326 116.203C188.668 115.803 188.152 115.227 187.776 114.475C187.401 113.723 187.213 112.835 187.213 111.813C187.213 110.802 187.401 109.921 187.776 109.168C188.152 108.416 188.668 107.84 189.326 107.441C189.994 107.041 190.751 106.841 191.596 106.841ZM192.213 108.604C191.321 108.604 190.605 108.892 190.065 109.468C189.537 110.032 189.273 110.814 189.273 111.813C189.273 112.812 189.537 113.599 190.065 114.175C190.605 114.739 191.321 115.021 192.213 115.021C192.776 115.021 193.281 114.892 193.726 114.634C194.172 114.363 194.525 113.987 194.783 113.505C195.041 113.023 195.17 112.459 195.17 111.813C195.17 111.178 195.041 110.62 194.783 110.138C194.525 109.644 194.172 109.268 193.726 109.01C193.281 108.739 192.776 108.604 192.213 108.604Z" fill="#03CEA4"/>
<path d="M201.944 103.633V116.679H199.937V103.633H201.944Z" fill="#03CEA4"/>
<path d="M206.731 103.633V116.679H204.725V103.633H206.731Z" fill="#03CEA4"/>
<path d="M215.997 108.869C216.325 108.234 216.795 107.735 217.405 107.37C218.015 106.994 218.719 106.806 219.517 106.806V108.992H218.919C218.039 108.992 217.329 109.21 216.789 109.644C216.261 110.068 215.997 110.773 215.997 111.76V116.679H213.99V106.965H215.997V108.869Z" fill="#03CEA4"/>
<path d="M230.386 111.354C230.386 111.684 230.363 111.971 230.316 112.218H222.852C222.887 113.217 223.163 113.958 223.679 114.44C224.196 114.921 224.835 115.162 225.598 115.162C226.267 115.162 226.83 114.992 227.288 114.651C227.757 114.31 228.045 113.858 228.15 113.294H230.298C230.169 113.975 229.899 114.581 229.488 115.11C229.078 115.638 228.544 116.056 227.886 116.361C227.229 116.655 226.496 116.802 225.686 116.802C224.747 116.802 223.914 116.602 223.186 116.203C222.47 115.803 221.907 115.227 221.496 114.475C221.086 113.723 220.88 112.835 220.88 111.813C220.88 110.802 221.086 109.921 221.496 109.168C221.907 108.416 222.47 107.84 223.186 107.441C223.914 107.041 224.747 106.841 225.686 106.841C226.637 106.841 227.464 107.041 228.168 107.441C228.884 107.829 229.43 108.369 229.805 109.063C230.193 109.744 230.386 110.508 230.386 111.354ZM228.362 111.302C228.385 110.667 228.274 110.138 228.027 109.715C227.793 109.28 227.464 108.963 227.041 108.763C226.631 108.551 226.179 108.446 225.686 108.446C224.9 108.446 224.242 108.687 223.714 109.168C223.186 109.65 222.899 110.361 222.852 111.302H228.362Z" fill="#03CEA4"/>
<path d="M236.654 114.598L239.4 106.965H241.548L237.851 116.679H235.422L231.725 106.965H233.873L236.654 114.598Z" fill="#03CEA4"/>
<path d="M252.39 111.354C252.39 111.684 252.367 111.971 252.32 112.218H244.856C244.891 113.217 245.167 113.958 245.683 114.44C246.199 114.921 246.839 115.162 247.602 115.162C248.271 115.162 248.834 114.992 249.292 114.651C249.761 114.31 250.049 113.858 250.154 113.294H252.302C252.173 113.975 251.903 114.581 251.492 115.11C251.082 115.638 250.548 116.056 249.89 116.361C249.233 116.655 248.5 116.802 247.69 116.802C246.751 116.802 245.918 116.602 245.19 116.203C244.474 115.803 243.911 115.227 243.5 114.475C243.089 113.723 242.884 112.835 242.884 111.813C242.884 110.802 243.089 109.921 243.5 109.168C243.911 108.416 244.474 107.84 245.19 107.441C245.918 107.041 246.751 106.841 247.69 106.841C248.641 106.841 249.468 107.041 250.172 107.441C250.888 107.829 251.434 108.369 251.809 109.063C252.196 109.744 252.39 110.508 252.39 111.354ZM250.366 111.302C250.389 110.667 250.278 110.138 250.031 109.715C249.796 109.28 249.468 108.963 249.045 108.763C248.635 108.551 248.183 108.446 247.69 108.446C246.904 108.446 246.246 108.687 245.718 109.168C245.19 109.65 244.903 110.361 244.856 111.302H250.366Z" fill="#03CEA4"/>
<path d="M260.102 106.806C261.228 106.806 262.132 107.17 262.813 107.899C263.493 108.628 263.834 109.668 263.834 111.02V116.679H261.827V111.231C261.827 110.361 261.604 109.691 261.158 109.221C260.712 108.739 260.102 108.499 259.327 108.499C258.529 108.499 257.89 108.757 257.408 109.274C256.927 109.78 256.687 110.526 256.687 111.513V116.679H254.68V106.965H256.687V109.098C256.945 108.369 257.379 107.805 257.989 107.405C258.6 107.006 259.304 106.806 260.102 106.806Z" fill="#03CEA4"/>
<path d="M275.475 106.965V116.679H273.451V114.563C273.205 115.28 272.776 115.838 272.166 116.238C271.556 116.626 270.846 116.82 270.036 116.82C268.909 116.82 268.006 116.455 267.325 115.727C266.644 114.998 266.304 113.958 266.304 112.606V106.965H268.311V112.395C268.311 113.276 268.534 113.958 268.98 114.44C269.426 114.91 270.036 115.145 270.81 115.145C271.608 115.145 272.248 114.886 272.729 114.369C273.21 113.852 273.451 113.1 273.451 112.113V106.965H275.475Z" fill="#03CEA4"/>
<path d="M287.244 111.354C287.244 111.684 287.221 111.971 287.174 112.218H279.71C279.745 113.217 280.021 113.958 280.537 114.44C281.053 114.921 281.693 115.162 282.456 115.162C283.125 115.162 283.688 114.992 284.146 114.651C284.615 114.31 284.903 113.858 285.008 113.294H287.156C287.027 113.975 286.757 114.581 286.346 115.11C285.935 115.638 285.402 116.056 284.744 116.361C284.087 116.655 283.354 116.802 282.544 116.802C281.605 116.802 280.772 116.602 280.044 116.203C279.328 115.803 278.765 115.227 278.354 114.475C277.943 113.723 277.738 112.835 277.738 111.813C277.738 110.802 277.943 109.921 278.354 109.168C278.765 108.416 279.328 107.84 280.044 107.441C280.772 107.041 281.605 106.841 282.544 106.841C283.494 106.841 284.322 107.041 285.026 107.441C285.742 107.829 286.288 108.369 286.663 109.063C287.05 109.744 287.244 110.508 287.244 111.354ZM285.22 111.302C285.243 110.667 285.132 110.138 284.885 109.715C284.65 109.28 284.322 108.963 283.899 108.763C283.489 108.551 283.037 108.446 282.544 108.446C281.758 108.446 281.1 108.687 280.572 109.168C280.044 109.65 279.757 110.361 279.71 111.302H285.22Z" fill="#03CEA4"/>
</g>
<path d="M449.306 105.66C450.155 105.66 451.003 106.487 451.003 107.313C451.003 108.14 450.155 108.967 449.306 108.967C448.458 108.967 447.609 108.14 447.609 107.313C447.609 106.487 448.246 105.66 449.306 105.66Z" fill="#787A80"/>
<path d="M456.519 105.66C457.368 105.66 458.216 106.487 458.216 107.313C458.216 108.14 457.368 108.967 456.519 108.967C455.671 108.967 454.822 108.14 454.822 107.313C454.822 106.487 455.671 105.66 456.519 105.66Z" fill="#787A80"/>
<path d="M463.943 105.66C464.792 105.66 465.64 106.487 465.64 107.313C465.64 108.14 464.792 108.967 463.943 108.967C463.095 108.967 462.246 108.14 462.246 107.313C462.246 106.487 462.882 105.66 463.943 105.66Z" fill="#787A80"/>
<g opacity="0.9">
<path d="M378.656 214.337C379.489 214.596 380.158 214.842 380.663 215.077C381.179 215.312 381.613 215.671 381.965 216.153C382.329 216.623 382.511 217.252 382.511 218.039C382.511 218.65 382.353 219.22 382.036 219.749C381.731 220.266 381.267 220.684 380.645 221.001C380.023 221.318 379.26 221.477 378.357 221.477H378.321V222.887H377.723V221.442C376.561 221.348 375.61 220.983 374.871 220.349C374.132 219.702 373.721 218.885 373.639 217.898H375.786C375.833 218.356 376.021 218.774 376.35 219.15C376.69 219.526 377.148 219.761 377.723 219.855V215.853C376.76 215.559 376.027 215.307 375.522 215.095C375.018 214.872 374.572 214.519 374.184 214.037C373.797 213.555 373.604 212.909 373.604 212.098C373.604 211.44 373.774 210.858 374.114 210.353C374.466 209.847 374.953 209.454 375.575 209.172C376.197 208.89 376.913 208.748 377.723 208.748V207.25H378.321V208.766C379.471 208.848 380.387 209.189 381.067 209.789C381.748 210.388 382.141 211.146 382.247 212.063H380.082C380.011 211.64 379.823 211.275 379.518 210.97C379.225 210.652 378.826 210.447 378.321 210.353V214.231L378.656 214.337ZM375.751 212.028C375.751 212.545 375.921 212.956 376.262 213.262C376.602 213.555 377.089 213.814 377.723 214.037V210.3C377.113 210.312 376.631 210.47 376.279 210.776C375.927 211.07 375.751 211.487 375.751 212.028ZM378.321 219.908C378.967 219.908 379.466 219.737 379.818 219.397C380.181 219.056 380.363 218.621 380.363 218.092C380.363 217.551 380.187 217.134 379.835 216.84C379.483 216.535 378.979 216.27 378.321 216.047V219.908Z" fill="#1E212C"/>
<path d="M383.878 210.794V208.907H387.857V221.353H385.744V210.794H383.878Z" fill="#1E212C"/>
<path d="M391.847 219.978C392.058 220.519 392.163 221.077 392.163 221.653C392.163 222.311 391.993 222.846 391.653 223.257C391.313 223.681 390.796 223.892 390.104 223.892V223.081C390.397 223.081 390.614 223.005 390.755 222.852C390.896 222.699 390.966 222.441 390.966 222.076V221.918H389.945V219.978H391.847Z" fill="#1E212C"/>
<path d="M394.071 215.042C394.071 217.028 394.423 218.586 395.127 219.714C395.831 220.83 397.005 221.389 398.648 221.389C400.291 221.389 401.465 220.825 402.169 219.696C402.873 218.568 403.225 217.017 403.225 215.042C403.225 213.079 402.873 211.54 402.169 210.423C401.465 209.295 400.291 208.731 398.648 208.731C397.005 208.731 395.831 209.289 395.127 210.406C394.423 211.522 394.071 213.068 394.071 215.042ZM401.218 215.042C401.218 216.476 401.042 217.575 400.69 218.339C400.338 219.103 399.657 219.485 398.648 219.485C397.627 219.485 396.94 219.103 396.588 218.339C396.236 217.575 396.06 216.476 396.06 215.042C396.06 213.62 396.236 212.533 396.588 211.781C396.94 211.029 397.627 210.652 398.648 210.652C399.657 210.652 400.338 211.034 400.69 211.798C401.042 212.551 401.218 213.632 401.218 215.042Z" fill="#1E212C"/>
<path d="M405.708 211.798C405.708 211.187 405.872 210.629 406.201 210.124C406.529 209.618 407.016 209.213 407.662 208.907C408.319 208.602 409.105 208.449 410.021 208.449C410.936 208.449 411.717 208.602 412.362 208.907C413.019 209.213 413.512 209.618 413.841 210.124C414.181 210.629 414.351 211.187 414.351 211.798C414.351 212.48 414.169 213.068 413.806 213.561C413.453 214.055 412.925 214.413 412.221 214.637C413.008 214.884 413.612 215.283 414.034 215.835C414.457 216.376 414.668 217.04 414.668 217.828C414.668 219.038 414.24 219.984 413.383 220.666C412.526 221.336 411.406 221.671 410.021 221.671C408.636 221.671 407.515 221.336 406.658 220.666C405.813 219.984 405.391 219.038 405.391 217.828C405.391 217.04 405.602 216.376 406.025 215.835C406.447 215.283 407.052 214.884 407.838 214.637C407.134 214.413 406.6 214.055 406.236 213.561C405.884 213.068 405.708 212.48 405.708 211.798ZM407.697 212.116C407.697 212.75 407.902 213.244 408.313 213.597C408.736 213.937 409.305 214.108 410.021 214.108C410.737 214.108 411.306 213.937 411.728 213.597C412.151 213.244 412.362 212.75 412.362 212.116C412.362 211.481 412.145 210.987 411.711 210.635C411.288 210.282 410.725 210.106 410.021 210.106C409.317 210.106 408.753 210.282 408.331 210.635C407.908 210.987 407.697 211.481 407.697 212.116ZM407.345 217.722C407.345 218.439 407.586 219.003 408.067 219.414C408.548 219.814 409.199 220.014 410.021 220.014C410.842 220.014 411.494 219.814 411.975 219.414C412.456 219.003 412.697 218.439 412.697 217.722C412.697 216.993 412.444 216.447 411.94 216.082C411.447 215.706 410.807 215.518 410.021 215.518C409.246 215.518 408.607 215.706 408.102 216.082C407.597 216.458 407.345 217.005 407.345 217.722Z" fill="#1E212C"/>
<path d="M416.849 215.042C416.849 217.028 417.201 218.586 417.905 219.714C418.609 220.83 419.782 221.389 421.425 221.389C423.068 221.389 424.242 220.825 424.946 219.696C425.65 218.568 426.002 217.017 426.002 215.042C426.002 213.079 425.65 211.54 424.946 210.423C424.242 209.295 423.068 208.731 421.425 208.731C419.782 208.731 418.609 209.289 417.905 210.406C417.201 211.522 416.849 213.068 416.849 215.042ZM423.996 215.042C423.996 216.476 423.82 217.575 423.467 218.339C423.115 219.103 422.435 219.485 421.425 219.485C420.404 219.485 419.718 219.103 419.366 218.339C419.014 217.575 418.838 216.476 418.838 215.042C418.838 213.62 419.014 212.533 419.366 211.781C419.718 211.029 420.404 210.652 421.425 210.652C422.435 210.652 423.115 211.034 423.467 211.798C423.82 212.551 423.996 213.632 423.996 215.042Z" fill="#1E212C"/>
<path d="M429.7 219.978C429.911 220.519 430.017 221.077 430.017 221.653C430.017 222.311 429.847 222.846 429.506 223.257C429.166 223.681 428.65 223.892 427.957 223.892V223.081C428.251 223.081 428.468 223.005 428.609 222.852C428.749 222.699 428.82 222.441 428.82 222.076V221.918H427.799V219.978H429.7Z" fill="#1E212C"/>
<path d="M438.737 212.257C438.526 210.87 437.804 210.176 436.572 210.176C435.68 210.176 435.011 210.535 434.565 211.252C434.119 211.957 433.896 213.068 433.896 214.584L433.914 215.183C434.09 214.549 434.471 214.043 435.058 213.667C435.645 213.291 436.337 213.103 437.135 213.103C438.356 213.103 439.312 213.467 440.005 214.196C440.697 214.925 441.043 215.953 441.043 217.281C441.043 218.08 440.885 218.797 440.568 219.432C440.251 220.055 439.776 220.554 439.142 220.93C438.508 221.295 437.728 221.477 436.801 221.477C435.005 221.477 433.773 220.919 433.104 219.802C432.435 218.686 432.1 217.152 432.1 215.201C432.1 212.968 432.458 211.299 433.174 210.194C433.89 209.089 435.064 208.537 436.695 208.537C437.916 208.537 438.849 208.884 439.494 209.577C440.151 210.27 440.533 211.164 440.638 212.257H438.737ZM434.09 217.052C434.09 217.816 434.313 218.456 434.759 218.974C435.205 219.479 435.862 219.732 436.73 219.732C437.47 219.732 438.056 219.514 438.491 219.079C438.937 218.644 439.16 218.039 439.16 217.263C439.16 216.429 438.937 215.788 438.491 215.342C438.045 214.895 437.44 214.672 436.677 214.672C435.985 214.672 435.381 214.878 434.864 215.289C434.348 215.7 434.09 216.288 434.09 217.052Z" fill="#1E212C"/>
<path d="M451.853 210.494H445.709V214.196C445.991 213.832 446.39 213.544 446.906 213.332C447.422 213.109 447.992 212.997 448.614 212.997C449.482 212.997 450.204 213.185 450.779 213.561C451.354 213.926 451.776 214.413 452.046 215.025C452.328 215.636 452.469 216.311 452.469 217.052C452.469 218.356 452.105 219.414 451.377 220.225C450.65 221.024 449.593 221.424 448.209 221.424C446.906 221.424 445.856 221.077 445.058 220.384C444.26 219.69 443.825 218.768 443.755 217.616H445.727C445.832 218.251 446.09 218.75 446.501 219.115C446.924 219.479 447.458 219.661 448.103 219.661C448.901 219.661 449.5 219.42 449.899 218.938C450.298 218.456 450.497 217.816 450.497 217.017C450.497 216.264 450.292 215.677 449.881 215.254C449.47 214.819 448.883 214.601 448.121 214.601C447.581 214.601 447.105 214.719 446.695 214.954C446.296 215.189 446.002 215.501 445.815 215.888H443.861V208.713H451.853V210.494Z" fill="#1E212C"/>
<path d="M454.582 215.042C454.582 217.028 454.934 218.586 455.638 219.714C456.342 220.83 457.516 221.389 459.159 221.389C460.802 221.389 461.975 220.825 462.679 219.696C463.383 218.568 463.736 217.017 463.736 215.042C463.736 213.079 463.383 211.54 462.679 210.423C461.975 209.295 460.802 208.731 459.159 208.731C457.516 208.731 456.342 209.289 455.638 210.406C454.934 211.522 454.582 213.068 454.582 215.042ZM461.729 215.042C461.729 216.476 461.553 217.575 461.201 218.339C460.849 219.103 460.168 219.485 459.159 219.485C458.138 219.485 457.451 219.103 457.099 218.339C456.747 217.575 456.571 216.476 456.571 215.042C456.571 213.62 456.747 212.533 457.099 211.781C457.451 211.029 458.138 210.652 459.159 210.652C460.168 210.652 460.849 211.034 461.201 211.798C461.553 212.551 461.729 213.632 461.729 215.042Z" fill="#1E212C"/>
</g>
<defs>
<filter id="filter0_dddd_2198_2200" x="0.130859" y="0.808594" width="576.988" height="335.191" filterUnits="userSpaceOnUse" color-interpolation-filters="sRGB">
<feFlood flood-opacity="0" result="BackgroundImageFix"/>
<feColorMatrix in="SourceAlpha" type="matrix" values="0 0 0 0 0 0 0 0 0 0 0 0 0 0 0 0 0 0 127 0" result="hardAlpha"/>
<feOffset dy="1"/>
<feGaussianBlur stdDeviation="10"/>
<feColorMatrix type="matrix" values="0 0 0 0 0.117647 0 0 0 0 0.129412 0 0 0 0 0.172549 0 0 0 0.02 0"/>
<feBlend mode="normal" in2="BackgroundImageFix" result="effect1_dropShadow_2198_2200"/>
<feColorMatrix in="SourceAlpha" type="matrix" values="0 0 0 0 0 0 0 0 0 0 0 0 0 0 0 0 0 0 127 0" result="hardAlpha"/>
<feOffset/>
<feGaussianBlur stdDeviation="22"/>
<feColorMatrix type="matrix" values="0 0 0 0 0.117647 0 0 0 0 0.129412 0 0 0 0 0.172549 0 0 0 0.02 0"/>
<feBlend mode="normal" in2="effect1_dropShadow_2198_2200" result="effect2_dropShadow_2198_2200"/>
<feColorMatrix in="SourceAlpha" type="matrix" values="0 0 0 0 0 0 0 0 0 0 0 0 0 0 0 0 0 0 127 0" result="hardAlpha"/>
<feOffset dy="8"/>
<feGaussianBlur stdDeviation="25"/>
<feColorMatrix type="matrix" values="0 0 0 0 0.117647 0 0 0 0 0.129412 0 0 0 0 0.172549 0 0 0 0.0422367 0"/>
<feBlend mode="normal" in2="effect2_dropShadow_2198_2200" result="effect3_dropShadow_2198_2200"/>
<feColorMatrix in="SourceAlpha" type="matrix" values="0 0 0 0 0 0 0 0 0 0 0 0 0 0 0 0 0 0 127 0" result="hardAlpha"/>
<feOffset dy="6"/>
<feGaussianBlur stdDeviation="40"/>
<feColorMatrix type="matrix" values="0 0 0 0 0.117647 0 0 0 0 0.129412 0 0 0 0 0.172549 0 0 0 0.04 0"/>
<feBlend mode="normal" in2="effect3_dropShadow_2198_2200" result="effect4_dropShadow_2198_2200"/>
<feBlend mode="normal" in="SourceGraphic" in2="effect4_dropShadow_2198_2200" result="shape"/>
</filter>
<linearGradient id="paint0_linear_2198_2200" x1="229.454" y1="120.624" x2="229.454" y2="221.473" gradientUnits="userSpaceOnUse">
<stop offset="0.613314" stop-color="#45CEA7"/>
<stop offset="1" stop-color="#45CEA7" stop-opacity="0"/>
</linearGradient>
</defs>
</svg>
