<svg width="359" height="25" viewBox="0 0 359 25" fill="none" xmlns="http://www.w3.org/2000/svg">
<path d="M24.0107 18.6047C24.0107 19.1325 23.9446 19.6053 23.8122 20.0232C23.6843 20.441 23.4924 20.7951 23.2365 21.0854C22.985 21.3713 22.674 21.5912 22.3034 21.7452C21.9328 21.8991 21.5071 21.9761 21.0262 21.9761C20.5983 21.9761 20.1527 21.9145 19.6895 21.7913C19.6983 21.6638 19.7093 21.5384 19.7225 21.4153C19.7358 21.2877 19.749 21.1624 19.7622 21.0392C19.7711 20.9644 19.7975 20.905 19.8417 20.8611C19.8902 20.8127 19.9608 20.7885 20.0534 20.7885C20.1328 20.7885 20.2387 20.8083 20.3711 20.8479C20.5034 20.8875 20.6799 20.9072 20.9005 20.9072C21.1916 20.9072 21.4497 20.8633 21.6747 20.7753C21.9041 20.6873 22.096 20.551 22.2505 20.3662C22.4093 20.1815 22.5284 19.9462 22.6078 19.6603C22.6916 19.37 22.7335 19.0269 22.7335 18.631V12.416H24.0107V18.6047Z" fill="#787A80"/>
<path d="M31.0629 21.8705H30.5401C30.4254 21.8705 30.3328 21.8529 30.2622 21.8177C30.1916 21.7825 30.1453 21.7078 30.1232 21.5934L29.9909 20.9732C29.8144 21.1316 29.6423 21.2745 29.4747 21.4021C29.307 21.5252 29.1306 21.6308 28.9453 21.7188C28.76 21.8023 28.5615 21.8661 28.3497 21.9101C28.1423 21.9541 27.9107 21.9761 27.6548 21.9761C27.3946 21.9761 27.1497 21.9409 26.9203 21.8705C26.6953 21.7957 26.499 21.6858 26.3313 21.5406C26.1637 21.3955 26.0291 21.2129 25.9277 20.993C25.8306 20.7687 25.7821 20.5048 25.7821 20.2013C25.7821 19.9374 25.8549 19.6845 26.0005 19.4426C26.146 19.1962 26.3799 18.9785 26.7019 18.7894C27.0284 18.6003 27.4541 18.4463 27.9791 18.3275C28.5041 18.2044 29.146 18.134 29.9048 18.1164V17.5952C29.9048 17.0762 29.7923 16.6847 29.5673 16.4208C29.3467 16.1525 29.0181 16.0184 28.5813 16.0184C28.2945 16.0184 28.0519 16.0557 27.8534 16.1305C27.6593 16.2009 27.4894 16.2823 27.3438 16.3746C27.2026 16.4626 27.0791 16.544 26.9732 16.6187C26.8718 16.6891 26.7703 16.7243 26.6688 16.7243C26.5894 16.7243 26.5188 16.7045 26.4571 16.6649C26.3997 16.6209 26.3534 16.5682 26.3181 16.5066L26.1063 16.1305C26.4769 15.7742 26.8762 15.5081 27.3041 15.3322C27.732 15.1563 28.2063 15.0683 28.7269 15.0683C29.1019 15.0683 29.435 15.1299 29.7261 15.253C30.0173 15.3762 30.2622 15.5477 30.4607 15.7676C30.6592 15.9876 30.8092 16.2537 30.9107 16.566C31.0122 16.8783 31.0629 17.2213 31.0629 17.5952V21.8705ZM28.0056 21.1514C28.2129 21.1514 28.4026 21.1316 28.5747 21.092C28.7467 21.048 28.9078 20.9886 29.0578 20.9138C29.2122 20.8347 29.3578 20.7401 29.4945 20.6301C29.6357 20.5202 29.7725 20.3948 29.9048 20.2541V18.862C29.3622 18.8796 28.9012 18.9235 28.5217 18.9939C28.1423 19.0599 27.8335 19.1479 27.5953 19.2578C27.3571 19.3678 27.1828 19.4975 27.0725 19.6471C26.9666 19.7966 26.9137 19.9638 26.9137 20.1485C26.9137 20.3245 26.9424 20.4762 26.9997 20.6038C27.0571 20.7313 27.1343 20.8369 27.2313 20.9204C27.3284 20.9996 27.4431 21.059 27.5754 21.0986C27.7078 21.1338 27.8512 21.1514 28.0056 21.1514Z" fill="#787A80"/>
<path d="M32.8475 21.8705V15.187H33.5489C33.7166 15.187 33.8225 15.2684 33.8666 15.4312L33.9592 16.1569C34.2504 15.8358 34.5747 15.5763 34.932 15.3784C35.2938 15.1804 35.7107 15.0815 36.1827 15.0815C36.5489 15.0815 36.871 15.1431 37.1489 15.2662C37.4312 15.385 37.6651 15.5565 37.8504 15.7808C38.0401 16.0008 38.1834 16.2669 38.2805 16.5792C38.3776 16.8915 38.4261 17.2367 38.4261 17.615V21.8705H37.2482V17.615C37.2482 17.1092 37.1313 16.7177 36.8974 16.4406C36.668 16.1591 36.3151 16.0184 35.8386 16.0184C35.4901 16.0184 35.1636 16.1019 34.8592 16.2691C34.5592 16.4362 34.2813 16.6627 34.0254 16.9486V21.8705H32.8475Z" fill="#787A80"/>
<path d="M83.1988 12.4143V13.4567H78.6459V16.7622H82.537V17.8046H78.6459V21.8688H77.3555V12.4143H83.1988Z" fill="#787A80"/>
<path d="M86.855 15.0798C87.2565 15.0798 87.6271 15.1479 87.9668 15.2843C88.3065 15.4163 88.5998 15.6098 88.8469 15.8649C89.0939 16.1156 89.2859 16.4279 89.4226 16.8018C89.5638 17.1712 89.6344 17.5935 89.6344 18.0685C89.6344 18.2533 89.6145 18.3764 89.5748 18.438C89.5351 18.4996 89.4601 18.5304 89.3498 18.5304H84.8896C84.8984 18.9526 84.9558 19.3199 85.0616 19.6322C85.1675 19.9445 85.3131 20.2062 85.4984 20.4173C85.6837 20.624 85.9043 20.7802 86.1602 20.8858C86.416 20.9869 86.7028 21.0375 87.0204 21.0375C87.316 21.0375 87.5697 21.0045 87.7815 20.9385C87.9976 20.8682 88.1829 20.7934 88.3373 20.7142C88.4917 20.635 88.6197 20.5625 88.7212 20.4965C88.827 20.4261 88.9175 20.3909 88.9925 20.3909C89.0895 20.3909 89.1645 20.4283 89.2175 20.5031L89.5484 20.9319C89.4028 21.1079 89.2285 21.2618 89.0256 21.3938C88.8226 21.5213 88.6042 21.6269 88.3704 21.7105C88.141 21.794 87.9028 21.8556 87.6557 21.8952C87.4087 21.9392 87.1638 21.9612 86.9212 21.9612C86.4579 21.9612 86.03 21.8842 85.6374 21.7303C85.2491 21.5719 84.9116 21.3432 84.6249 21.0441C84.3425 20.7406 84.1219 20.3667 83.9631 19.9225C83.8043 19.4782 83.7249 18.968 83.7249 18.3918C83.7249 17.9256 83.7955 17.4901 83.9366 17.0855C84.0822 16.6808 84.2896 16.3311 84.5587 16.0364C84.8278 15.7373 85.1565 15.5042 85.5447 15.3371C85.933 15.1655 86.3697 15.0798 86.855 15.0798ZM86.8815 15.9441C86.3124 15.9441 85.8646 16.109 85.5381 16.4389C85.2116 16.7644 85.0087 17.2174 84.9293 17.798H88.5756C88.5756 17.5253 88.5381 17.2768 88.4631 17.0525C88.3881 16.8238 88.2778 16.628 88.1322 16.4653C87.9866 16.2981 87.8079 16.1706 87.5962 16.0826C87.3888 15.9903 87.1506 15.9441 86.8815 15.9441Z" fill="#787A80"/>
<path d="M91.1818 21.8688V12.1504H92.3663V16.1486C92.6442 15.8275 92.9619 15.5702 93.3192 15.3767C93.681 15.1787 94.0935 15.0798 94.5567 15.0798C94.945 15.0798 95.2957 15.1523 95.6089 15.2975C95.9221 15.4426 96.1891 15.6604 96.4096 15.9507C96.6302 16.2366 96.8001 16.5928 96.9192 17.0195C97.0383 17.4418 97.0979 17.93 97.0979 18.4842C97.0979 18.9768 97.0317 19.4365 96.8993 19.8631C96.767 20.2854 96.5751 20.6526 96.3236 20.9649C96.0766 21.2728 95.7722 21.5169 95.4104 21.6973C95.053 21.8732 94.6494 21.9612 94.1994 21.9612C93.767 21.9612 93.3986 21.8776 93.0942 21.7105C92.7942 21.5433 92.5317 21.3102 92.3067 21.0111L92.2472 21.6181C92.2119 21.7852 92.1104 21.8688 91.9428 21.8688H91.1818ZM94.1729 16.0166C93.7891 16.0166 93.4516 16.1046 93.1604 16.2806C92.8737 16.4565 92.6089 16.705 92.3663 17.0261V20.259C92.5781 20.5493 92.8119 20.7538 93.0678 20.8726C93.3281 20.9913 93.617 21.0507 93.9347 21.0507C94.5611 21.0507 95.042 20.8286 95.3773 20.3843C95.7126 19.9401 95.8802 19.3067 95.8802 18.4842C95.8802 18.0487 95.8405 17.6749 95.7611 17.3626C95.6861 17.0503 95.5758 16.7952 95.4302 16.5972C95.2847 16.3949 95.106 16.2476 94.8942 16.1552C94.6825 16.0628 94.442 16.0166 94.1729 16.0166Z" fill="#787A80"/>
<path d="M140.255 18.4529C140.317 18.5585 140.37 18.6706 140.414 18.7894C140.463 18.9037 140.509 19.0203 140.553 19.1391C140.597 19.0159 140.643 18.8993 140.692 18.7894C140.741 18.675 140.796 18.5607 140.857 18.4463L144.067 12.6337C144.124 12.5326 144.184 12.471 144.246 12.449C144.307 12.427 144.396 12.416 144.51 12.416H145.457V21.8705H144.332V14.9231C144.332 14.8308 144.334 14.7318 144.338 14.6262C144.343 14.5207 144.349 14.4129 144.358 14.303L141.109 20.2145C140.999 20.4124 140.844 20.5114 140.646 20.5114H140.46C140.262 20.5114 140.107 20.4124 139.997 20.2145L136.675 14.2832C136.688 14.3975 136.697 14.5097 136.702 14.6196C136.71 14.7296 136.715 14.8308 136.715 14.9231V21.8705H135.59V12.416H136.536C136.651 12.416 136.739 12.427 136.801 12.449C136.863 12.471 136.922 12.5326 136.98 12.6337L140.255 18.4529Z" fill="#787A80"/>
<path d="M152.503 21.8705H151.981C151.866 21.8705 151.773 21.8529 151.703 21.8177C151.632 21.7825 151.586 21.7078 151.564 21.5934L151.431 20.9732C151.255 21.1316 151.083 21.2745 150.915 21.4021C150.747 21.5252 150.571 21.6308 150.386 21.7188C150.2 21.8023 150.002 21.8661 149.79 21.9101C149.583 21.9541 149.351 21.9761 149.095 21.9761C148.835 21.9761 148.59 21.9409 148.361 21.8705C148.136 21.7957 147.939 21.6858 147.772 21.5406C147.604 21.3955 147.47 21.2129 147.368 20.993C147.271 20.7687 147.223 20.5048 147.223 20.2013C147.223 19.9374 147.295 19.6845 147.441 19.4426C147.586 19.1962 147.82 18.9785 148.142 18.7894C148.469 18.6003 148.895 18.4463 149.42 18.3275C149.945 18.2044 150.586 18.134 151.345 18.1164V17.5952C151.345 17.0762 151.233 16.6847 151.008 16.4208C150.787 16.1525 150.459 16.0184 150.022 16.0184C149.735 16.0184 149.492 16.0557 149.294 16.1305C149.1 16.2009 148.93 16.2823 148.784 16.3746C148.643 16.4626 148.52 16.544 148.414 16.6187C148.312 16.6891 148.211 16.7243 148.109 16.7243C148.03 16.7243 147.959 16.7045 147.898 16.6649C147.84 16.6209 147.794 16.5682 147.759 16.5066L147.547 16.1305C147.917 15.7742 148.317 15.5081 148.745 15.3322C149.172 15.1563 149.647 15.0683 150.167 15.0683C150.542 15.0683 150.875 15.1299 151.167 15.253C151.458 15.3762 151.703 15.5477 151.901 15.7676C152.1 15.9876 152.25 16.2537 152.351 16.566C152.453 16.8783 152.503 17.2213 152.503 17.5952V21.8705ZM149.446 21.1514C149.653 21.1514 149.843 21.1316 150.015 21.092C150.187 21.048 150.348 20.9886 150.498 20.9138C150.653 20.8347 150.798 20.7401 150.935 20.6301C151.076 20.5202 151.213 20.3948 151.345 20.2541V18.862C150.803 18.8796 150.342 18.9235 149.962 18.9939C149.583 19.0599 149.274 19.1479 149.036 19.2578C148.797 19.3678 148.623 19.4975 148.513 19.6471C148.407 19.7966 148.354 19.9638 148.354 20.1485C148.354 20.3245 148.383 20.4762 148.44 20.6038C148.497 20.7313 148.575 20.8369 148.672 20.9204C148.769 20.9996 148.884 21.059 149.016 21.0986C149.148 21.1338 149.292 21.1514 149.446 21.1514Z" fill="#787A80"/>
<path d="M154.288 21.8705V15.187H154.963C155.091 15.187 155.179 15.2112 155.228 15.2596C155.276 15.308 155.309 15.3916 155.327 15.5103L155.406 16.5528C155.636 16.0865 155.918 15.7237 156.253 15.4641C156.593 15.2002 156.99 15.0683 157.444 15.0683C157.63 15.0683 157.797 15.0903 157.947 15.1343C158.097 15.1739 158.236 15.231 158.364 15.3058L158.212 16.1833C158.181 16.2933 158.113 16.3482 158.007 16.3482C157.945 16.3482 157.85 16.3284 157.722 16.2889C157.594 16.2449 157.416 16.2229 157.186 16.2229C156.776 16.2229 156.432 16.3416 156.154 16.5792C155.881 16.8167 155.651 17.162 155.466 17.615V21.8705H154.288Z" fill="#787A80"/>
<path d="M204.272 21.8705H203.28C203.165 21.8705 203.072 21.8419 203.002 21.7847C202.931 21.7276 202.878 21.655 202.843 21.567L201.956 19.2842H197.701L196.814 21.567C196.783 21.6462 196.73 21.7166 196.655 21.7781C196.58 21.8397 196.488 21.8705 196.377 21.8705H195.385L199.177 12.416H200.48L204.272 21.8705ZM198.058 18.3605H201.599L200.11 14.5141C200.013 14.2766 199.918 13.9797 199.825 13.6234C199.777 13.8037 199.728 13.9709 199.68 14.1248C199.635 14.2744 199.591 14.4063 199.547 14.5207L198.058 18.3605Z" fill="#787A80"/>
<path d="M205.281 24.1335V15.187H205.982C206.15 15.187 206.256 15.2684 206.3 15.4312L206.399 16.2229C206.686 15.8754 207.012 15.5961 207.378 15.385C207.749 15.1739 208.175 15.0683 208.655 15.0683C209.039 15.0683 209.388 15.1431 209.701 15.2926C210.014 15.4378 210.281 15.6555 210.502 15.9458C210.722 16.2317 210.892 16.588 211.011 17.0146C211.13 17.4413 211.19 17.9317 211.19 18.4859C211.19 18.9785 211.124 19.4382 210.992 19.8648C210.859 20.2871 210.669 20.6543 210.422 20.9666C210.175 21.2745 209.871 21.5186 209.509 21.699C209.152 21.8749 208.748 21.9629 208.298 21.9629C207.883 21.9629 207.528 21.8947 207.233 21.7583C206.942 21.622 206.683 21.4285 206.458 21.1777V24.1335H205.281ZM208.265 16.0184C207.881 16.0184 207.544 16.1063 207.253 16.2823C206.966 16.4582 206.701 16.7067 206.458 17.0278V20.2607C206.675 20.551 206.911 20.7555 207.167 20.8743C207.427 20.993 207.716 21.0524 208.033 21.0524C208.655 21.0524 209.134 20.8303 209.469 20.386C209.805 19.9418 209.972 19.3084 209.972 18.4859C209.972 18.0504 209.933 17.6766 209.853 17.3643C209.778 17.052 209.668 16.7969 209.522 16.599C209.377 16.3966 209.198 16.2493 208.986 16.1569C208.775 16.0645 208.534 16.0184 208.265 16.0184Z" fill="#787A80"/>
<path d="M212.583 21.8705V15.187H213.258C213.386 15.187 213.474 15.2112 213.523 15.2596C213.571 15.308 213.604 15.3916 213.622 15.5103L213.702 16.5528C213.931 16.0865 214.213 15.7237 214.549 15.4641C214.888 15.2002 215.285 15.0683 215.74 15.0683C215.925 15.0683 216.093 15.0903 216.243 15.1343C216.393 15.1739 216.532 15.231 216.66 15.3058L216.507 16.1833C216.476 16.2933 216.408 16.3482 216.302 16.3482C216.24 16.3482 216.146 16.3284 216.018 16.2889C215.89 16.2449 215.711 16.2229 215.482 16.2229C215.071 16.2229 214.727 16.3416 214.449 16.5792C214.176 16.8167 213.946 17.162 213.761 17.615V21.8705H212.583Z" fill="#787A80"/>
<path d="M259.37 18.4529C259.432 18.5585 259.485 18.6706 259.529 18.7894C259.578 18.9037 259.624 19.0203 259.668 19.1391C259.712 19.0159 259.759 18.8993 259.807 18.7894C259.856 18.675 259.911 18.5607 259.973 18.4463L263.182 12.6337C263.24 12.5326 263.299 12.471 263.361 12.449C263.423 12.427 263.511 12.416 263.626 12.416H264.572V21.8705H263.447V14.9231C263.447 14.8308 263.449 14.7318 263.454 14.6262C263.458 14.5207 263.465 14.4129 263.473 14.303L260.224 20.2145C260.114 20.4124 259.959 20.5114 259.761 20.5114H259.576C259.377 20.5114 259.223 20.4124 259.112 20.2145L255.79 14.2832C255.804 14.3975 255.812 14.5097 255.817 14.6196C255.826 14.7296 255.83 14.8308 255.83 14.9231V21.8705H254.705V12.416H255.651C255.766 12.416 255.854 12.427 255.916 12.449C255.978 12.471 256.037 12.5326 256.095 12.6337L259.37 18.4529Z" fill="#787A80"/>
<path d="M271.619 21.8705H271.096C270.981 21.8705 270.888 21.8529 270.818 21.8177C270.747 21.7825 270.701 21.7078 270.679 21.5934L270.547 20.9732C270.37 21.1316 270.198 21.2745 270.03 21.4021C269.863 21.5252 269.686 21.6308 269.501 21.7188C269.316 21.8023 269.117 21.8661 268.905 21.9101C268.698 21.9541 268.466 21.9761 268.211 21.9761C267.95 21.9761 267.705 21.9409 267.476 21.8705C267.251 21.7957 267.055 21.6858 266.887 21.5406C266.719 21.3955 266.585 21.2129 266.483 20.993C266.386 20.7687 266.338 20.5048 266.338 20.2013C266.338 19.9374 266.411 19.6845 266.556 19.4426C266.702 19.1962 266.936 18.9785 267.258 18.7894C267.584 18.6003 268.01 18.4463 268.535 18.3275C269.06 18.2044 269.702 18.134 270.46 18.1164V17.5952C270.46 17.0762 270.348 16.6847 270.123 16.4208C269.902 16.1525 269.574 16.0184 269.137 16.0184C268.85 16.0184 268.608 16.0557 268.409 16.1305C268.215 16.2009 268.045 16.2823 267.899 16.3746C267.758 16.4626 267.635 16.544 267.529 16.6187C267.427 16.6891 267.326 16.7243 267.224 16.7243C267.145 16.7243 267.074 16.7045 267.013 16.6649C266.955 16.6209 266.909 16.5682 266.874 16.5066L266.662 16.1305C267.033 15.7742 267.432 15.5081 267.86 15.3322C268.288 15.1563 268.762 15.0683 269.283 15.0683C269.658 15.0683 269.991 15.1299 270.282 15.253C270.573 15.3762 270.818 15.5477 271.016 15.7676C271.215 15.9876 271.365 16.2537 271.466 16.566C271.568 16.8783 271.619 17.2213 271.619 17.5952V21.8705ZM268.561 21.1514C268.769 21.1514 268.958 21.1316 269.13 21.092C269.302 21.048 269.463 20.9886 269.613 20.9138C269.768 20.8347 269.913 20.7401 270.05 20.6301C270.191 20.5202 270.328 20.3948 270.46 20.2541V18.862C269.918 18.8796 269.457 18.9235 269.077 18.9939C268.698 19.0599 268.389 19.1479 268.151 19.2578C267.913 19.3678 267.738 19.4975 267.628 19.6471C267.522 19.7966 267.469 19.9638 267.469 20.1485C267.469 20.3244 267.498 20.4762 267.555 20.6037C267.613 20.7313 267.69 20.8369 267.787 20.9204C267.884 20.9996 267.999 21.059 268.131 21.0986C268.263 21.1338 268.407 21.1514 268.561 21.1514Z" fill="#787A80"/>
<path d="M275.162 23.8432C275.122 23.9312 275.071 24.0016 275.01 24.0543C274.952 24.1071 274.862 24.1335 274.738 24.1335H273.865L275.089 21.4812L272.323 15.187H273.342C273.443 15.187 273.523 15.2134 273.58 15.2662C273.637 15.3146 273.679 15.3696 273.706 15.4312L275.499 19.6405C275.539 19.7373 275.572 19.834 275.598 19.9308C275.629 20.0276 275.656 20.1265 275.678 20.2277C275.709 20.1265 275.74 20.0276 275.771 19.9308C275.801 19.834 275.837 19.7351 275.876 19.6339L277.617 15.4312C277.643 15.3608 277.687 15.3036 277.749 15.2596C277.815 15.2112 277.886 15.187 277.961 15.187H278.901L275.162 23.8432Z" fill="#787A80"/>
<path d="M320.478 18.6047C320.478 19.1325 320.411 19.6053 320.279 20.0232C320.151 20.441 319.959 20.7951 319.703 21.0854C319.452 21.3713 319.141 21.5912 318.77 21.7452C318.4 21.8991 317.974 21.9761 317.493 21.9761C317.065 21.9761 316.619 21.9145 316.156 21.7913C316.165 21.6638 316.176 21.5384 316.189 21.4153C316.203 21.2877 316.216 21.1624 316.229 21.0392C316.238 20.9644 316.264 20.905 316.308 20.8611C316.357 20.8127 316.428 20.7885 316.52 20.7885C316.6 20.7885 316.706 20.8083 316.838 20.8479C316.97 20.8875 317.147 20.9072 317.367 20.9072C317.658 20.9072 317.917 20.8633 318.142 20.7753C318.371 20.6873 318.563 20.551 318.717 20.3662C318.876 20.1815 318.995 19.9462 319.075 19.6603C319.158 19.37 319.2 19.0269 319.2 18.631V12.416H320.478V18.6047Z" fill="#787A80"/>
<path d="M323.625 15.187V19.4492C323.625 19.955 323.742 20.3464 323.976 20.6235C324.21 20.9007 324.563 21.0392 325.035 21.0392C325.379 21.0392 325.703 20.9578 326.008 20.7951C326.312 20.6323 326.592 20.4058 326.848 20.1155V15.187H328.026V21.8705H327.325C327.157 21.8705 327.051 21.7891 327.007 21.6264L326.914 20.9072C326.623 21.2283 326.297 21.4878 325.935 21.6858C325.573 21.8793 325.158 21.9761 324.691 21.9761C324.325 21.9761 324 21.9167 323.718 21.7979C323.44 21.6748 323.206 21.5032 323.016 21.2833C322.827 21.0634 322.683 20.7973 322.586 20.485C322.494 20.1727 322.447 19.8274 322.447 19.4492V15.187H323.625Z" fill="#787A80"/>
<path d="M329.96 21.8705V15.187H330.662C330.83 15.187 330.935 15.2684 330.98 15.4312L331.072 16.1569C331.363 15.8358 331.688 15.5763 332.045 15.3784C332.407 15.1804 332.824 15.0815 333.296 15.0815C333.662 15.0815 333.984 15.1431 334.262 15.2662C334.544 15.385 334.778 15.5565 334.963 15.7808C335.153 16.0008 335.296 16.2669 335.394 16.5792C335.491 16.8915 335.539 17.2367 335.539 17.615V21.8705H334.361V17.615C334.361 17.1092 334.244 16.7177 334.01 16.4406C333.781 16.1591 333.428 16.0184 332.952 16.0184C332.603 16.0184 332.277 16.1019 331.972 16.2691C331.672 16.4362 331.394 16.6627 331.138 16.9486V21.8705H329.96Z" fill="#787A80"/>
<path d="M0.896484 1.15332H358.907" stroke="#9A9CA5" stroke-width="0.3364" stroke-miterlimit="10"/>
</svg>
