<svg width="65" height="65" viewBox="0 0 65 65" fill="none" xmlns="http://www.w3.org/2000/svg">
<path d="M25.7956 37.1912V38.8302H17.9046V37.519L22.1789 33.4214C22.6721 32.9297 23.0009 32.6019 23.1653 32.2741C23.3297 31.9463 23.4941 31.6185 23.4941 31.2907C23.4941 30.799 23.3297 30.4712 23.0009 30.1434C22.6721 29.8156 22.1789 29.8156 21.5213 29.8156C20.3706 29.8156 19.5486 30.1434 19.0554 30.9629L17.7402 29.8156C18.2334 29.3239 18.7266 28.8322 19.3842 28.5044C20.0418 28.1766 20.8638 28.0127 21.6857 28.0127C22.8365 28.0127 23.8229 28.3405 24.4805 28.8322C25.138 29.3239 25.4668 30.1434 25.4668 31.1268C25.4668 31.7824 25.3024 32.2741 25.138 32.7658C24.9736 33.2575 24.4805 33.9132 23.6585 34.5688L20.8638 37.3551H25.7956V37.1912Z" fill="#03CEA4"/>
<path d="M33.6855 32.6028C34.1787 32.9306 34.6719 33.2584 35.0007 33.7501C35.3295 34.2418 35.4939 34.8974 35.4939 35.3891C35.4939 36.0447 35.3295 36.7003 35.0007 37.192C34.6719 37.6837 34.1787 38.1754 33.5211 38.3393C32.8636 38.6671 32.206 38.831 31.5484 38.831C30.0688 38.831 28.9181 38.3393 28.0961 37.5198C27.2741 36.5364 26.9453 35.2252 26.9453 33.5862C26.9453 32.4389 27.1097 31.2915 27.6029 30.472C28.0961 29.6525 28.5893 28.9969 29.4112 28.5052C30.2332 28.0135 31.0552 27.8496 32.206 27.8496C32.6992 27.8496 33.1924 27.8496 33.6855 28.0135C34.1787 28.1774 34.5075 28.3413 35.0007 28.5052L34.1787 30.1442C33.6855 29.8164 33.028 29.6525 32.206 29.6525C31.2196 29.6525 30.3976 29.9803 29.74 30.6359C29.0825 31.2915 28.9181 32.1111 28.9181 33.4223C29.2469 33.0945 29.5756 32.7667 30.0688 32.6028C30.562 32.4389 31.0552 32.275 31.7128 32.275C32.5348 32.275 33.028 32.4389 33.6855 32.6028ZM32.8636 36.8642C33.1924 36.5364 33.5211 36.0447 33.5211 35.553C33.5211 35.0613 33.3568 34.5696 32.8636 34.2418C32.5348 33.914 31.8772 33.7501 31.384 33.7501C30.7264 33.7501 30.2332 33.914 29.74 34.2418C29.4113 34.5696 29.0825 35.0613 29.0825 35.553C29.0825 36.0447 29.2469 36.5364 29.74 36.8642C30.0688 37.192 30.7264 37.3559 31.384 37.3559C32.0416 37.3559 32.5348 37.192 32.8636 36.8642Z" fill="#03CEA4"/>
<path d="M36.974 33.0937C36.4808 32.602 36.3164 31.7825 36.3164 30.9629C36.3164 30.1434 36.4808 29.3239 36.974 28.8322C37.4672 28.3405 38.1248 28.0127 38.7823 28.0127C39.4399 28.0127 40.0975 28.3405 40.5907 28.8322C41.0839 29.3239 41.2483 30.1434 41.2483 30.9629C41.2483 31.7825 41.0839 32.602 40.5907 33.0937C40.0975 33.5854 39.4399 33.9132 38.7823 33.9132C38.1248 33.9132 37.4672 33.5854 36.974 33.0937ZM39.7687 32.2742C39.9331 31.9464 40.0975 31.4546 40.0975 30.9629C40.0975 30.3073 39.9331 29.9795 39.7687 29.6517C39.6043 29.3239 39.2755 29.16 38.7823 29.16C38.4536 29.16 38.1248 29.3239 37.796 29.6517C37.6316 29.9795 37.4672 30.4712 37.4672 30.9629C37.4672 31.4546 37.6316 31.9464 37.796 32.2742C37.9604 32.602 38.2892 32.7659 38.7823 32.7659C39.2755 32.7659 39.6043 32.602 39.7687 32.2742ZM45.1938 28.1766H46.6734L39.4399 38.8303H37.9604L45.1938 28.1766ZM44.043 38.1747C43.5498 37.683 43.3854 36.8634 43.3854 36.0439C43.3854 35.2244 43.5498 34.4049 44.043 33.9132C44.5362 33.4215 45.1938 33.0937 45.8514 33.0937C46.6734 33.0937 47.1666 33.4215 47.6597 33.9132C48.1529 34.4049 48.3173 35.2244 48.3173 36.0439C48.3173 36.8634 48.1529 37.683 47.6597 38.1747C47.1666 38.6664 46.509 38.9942 45.8514 38.9942C45.0294 38.9942 44.5362 38.6664 44.043 38.1747ZM46.8378 37.3551C47.0022 37.0273 47.1666 36.5356 47.1666 36.0439C47.1666 35.3883 47.0022 35.0605 46.8378 34.7327C46.6734 34.4049 46.3446 34.241 45.8514 34.241C45.5226 34.241 45.1938 34.4049 44.865 34.7327C44.5362 35.0605 44.5362 35.5522 44.5362 36.0439C44.5362 36.6995 44.7006 37.0273 44.865 37.3551C45.0294 37.683 45.3582 37.8469 45.8514 37.8469C46.1802 37.8469 46.509 37.683 46.8378 37.3551Z" fill="#03CEA4"/>
<g opacity="0.37">
<path opacity="0.37" d="M32.3733 63.9055C14.7829 63.9055 0.480469 49.646 0.480469 32.1085C0.480469 14.571 14.7829 0.311523 32.3733 0.311523C49.9637 0.311523 64.2661 14.571 64.2661 32.1085C64.2661 49.646 49.9637 63.9055 32.3733 63.9055ZM32.3733 6.04809C17.9065 6.04809 6.23433 17.849 6.23433 32.1085C6.23433 46.5319 18.0709 58.1689 32.3733 58.1689C46.8402 58.1689 58.5123 46.368 58.5123 32.1085C58.6767 17.6851 46.8402 6.04809 32.3733 6.04809Z" fill="#787A80"/>
</g>
<path d="M32.7014 64.0701C31.3863 64.0701 29.9067 63.9062 28.5915 63.7423C19.5497 62.595 11.4943 57.8419 6.23368 50.4663C5.2473 49.1551 5.5761 47.3521 6.89126 46.3687C8.37083 45.3853 10.1792 45.7131 11.33 47.0243C16.5906 54.236 24.8104 58.3336 33.6878 58.0058C47.6615 57.5141 58.8404 45.5492 58.676 31.6176C58.3472 17.6859 46.6751 6.37671 32.7014 6.2128C31.5507 6.2128 30.5643 5.7211 30.0711 4.73769C29.5779 3.75428 29.5779 2.60696 30.0711 1.62355C30.5643 0.640142 31.5507 0.148438 32.7014 0.148438C42.5652 0.312339 51.607 4.57378 57.6896 12.1133C68.5397 25.7171 66.7314 45.7131 53.2509 56.6945C47.1683 61.4477 40.0992 64.0701 32.7014 64.0701Z" fill="#03CEA4"/>
</svg>
