<svg width="58" height="10" viewBox="0 0 58 10" fill="none" xmlns="http://www.w3.org/2000/svg">
<path d="M3.71339 4.12469C4.06033 4.12469 4.38912 4.18327 4.69975 4.30044C5.01038 4.41356 5.28269 4.58122 5.51667 4.80342C5.75066 5.02159 5.93623 5.29227 6.07339 5.61547C6.21056 5.93464 6.27914 6.30026 6.27914 6.71235C6.27914 7.11232 6.20652 7.484 6.06129 7.82741C5.91606 8.17081 5.71233 8.46978 5.45011 8.7243C5.19192 8.97882 4.87927 9.17881 4.51216 9.32425C4.14505 9.46969 3.74163 9.54241 3.3019 9.54241C2.86621 9.54241 2.47086 9.47373 2.11585 9.33637C1.76488 9.19497 1.46433 8.997 1.21421 8.74248C0.96409 8.48392 0.770449 8.17283 0.633286 7.80923C0.500158 7.44158 0.433594 7.03151 0.433594 6.57903C0.433594 6.19926 0.518312 5.79526 0.687748 5.36701C0.857184 4.93877 1.12546 4.4782 1.49257 3.98531L3.68919 1.02193C3.74566 0.949207 3.82433 0.888606 3.92519 0.840126C4.02604 0.787605 4.14102 0.761345 4.27011 0.761345H5.22621L2.21872 4.57314C2.42447 4.43174 2.6524 4.32266 2.90252 4.24589C3.15264 4.16509 3.42293 4.12469 3.71339 4.12469ZM1.47441 6.76689C1.47441 7.04566 1.51476 7.30018 1.59544 7.53046C1.67612 7.76075 1.79312 7.95871 1.94642 8.12435C2.10375 8.28999 2.29336 8.41928 2.51524 8.5122C2.74115 8.60108 2.99732 8.64552 3.28375 8.64552C3.57421 8.64552 3.83643 8.59906 4.07042 8.50614C4.3044 8.41322 4.50409 8.28393 4.66949 8.11829C4.83893 7.95265 4.96802 7.75671 5.05678 7.53046C5.14956 7.30422 5.19596 7.05778 5.19596 6.79113C5.19596 6.50833 5.15158 6.2538 5.06283 6.02756C4.97408 5.79728 4.84902 5.60335 4.68765 5.44579C4.52628 5.28419 4.33264 5.16097 4.10672 5.07613C3.88081 4.99129 3.63271 4.94886 3.36242 4.94886C3.07195 4.94886 2.80973 4.99937 2.57575 5.10037C2.34177 5.19733 2.14207 5.33065 1.97667 5.50033C1.8153 5.66598 1.69024 5.8599 1.60149 6.0821C1.51677 6.30026 1.47441 6.52853 1.47441 6.76689Z" fill="#787A80"/>
<path d="M8.53721 8.62128H10.401V2.70057C10.401 2.52281 10.4071 2.34303 10.4192 2.16123L8.87003 3.48838C8.82969 3.5207 8.78935 3.54495 8.74901 3.56111C8.70866 3.57323 8.67034 3.57929 8.63403 3.57929C8.57352 3.57929 8.51906 3.56717 8.47065 3.54292C8.42224 3.51464 8.38593 3.48232 8.36172 3.44596L8.02285 2.97934L10.6007 0.743164H11.4781V8.62128H13.1846V9.44545H8.53721V8.62128Z" fill="#787A80"/>
<path d="M57.2998 7.03125H18.0215" stroke="#8CA1B8" stroke-width="0.3364" stroke-miterlimit="10"/>
<path d="M20.2206 7.03167C20.2206 7.91314 19.4504 8.68443 18.5702 8.68443C17.6901 8.68443 16.9199 7.91314 16.9199 7.03167C16.9199 6.1502 17.6901 5.37891 18.5702 5.37891C19.5604 5.37891 20.2206 6.1502 20.2206 7.03167Z" fill="url(#paint0_linear_2198_2040)"/>
<defs>
<linearGradient id="paint0_linear_2198_2040" x1="17.0263" y1="7.02671" x2="20.2339" y2="7.02671" gradientUnits="userSpaceOnUse">
<stop offset="0.1491" stop-color="#6236DE"/>
<stop offset="1" stop-color="#562DC5"/>
</linearGradient>
</defs>
</svg>
