<svg width="24" height="8" viewBox="0 0 24 8" fill="none" xmlns="http://www.w3.org/2000/svg">
<path d="M3.11847 7.46691H2.22381V1.55399L0.429688 2.21098V1.40533L2.97898 0.451014H3.11847V7.46691Z" fill="#1E212C"/>
<path d="M10.3142 7.46691H5.72549V6.8291L8.14972 4.14359C8.50887 3.73757 8.75578 3.40827 8.89046 3.15571C9.02835 2.89994 9.09729 2.63619 9.09729 2.36444C9.09729 1.99998 8.98666 1.70106 8.7654 1.46767C8.54414 1.23429 8.24913 1.1176 7.88037 1.1176C7.43785 1.1176 7.09313 1.24388 6.84622 1.49644C6.60251 1.74581 6.48066 2.09429 6.48066 2.54188H5.59081C5.59081 1.89927 5.79764 1.37975 6.2113 0.98332C6.62816 0.586888 7.18452 0.388672 7.88037 0.388672C8.53132 0.388672 9.04599 0.559713 9.42437 0.901796C9.80276 1.24068 9.99195 1.69306 9.99195 2.25894C9.99195 2.9463 9.55264 3.76474 8.67401 4.71426L6.79812 6.74278H10.3142V7.46691Z" fill="#1E212C"/>
<path d="M11.3195 7.00174C11.3195 6.84828 11.3644 6.7204 11.4542 6.6181C11.5472 6.51579 11.6851 6.46464 11.8678 6.46464C12.0506 6.46464 12.1885 6.51579 12.2815 6.6181C12.3777 6.7204 12.4258 6.84828 12.4258 7.00174C12.4258 7.1488 12.3777 7.27189 12.2815 7.371C12.1885 7.47011 12.0506 7.51966 11.8678 7.51966C11.6851 7.51966 11.5472 7.47011 11.4542 7.371C11.3644 7.27189 11.3195 7.1488 11.3195 7.00174ZM11.3243 2.76727C11.3243 2.61381 11.3692 2.48593 11.459 2.38362C11.552 2.28132 11.6899 2.23016 11.8727 2.23016C12.0554 2.23016 12.1933 2.28132 12.2863 2.38362C12.3825 2.48593 12.4306 2.61381 12.4306 2.76727C12.4306 2.91433 12.3825 3.03742 12.2863 3.13652C12.1933 3.23563 12.0554 3.28519 11.8727 3.28519C11.6899 3.28519 11.552 3.23563 11.459 3.13652C11.3692 3.03742 11.3243 2.91433 11.3243 2.76727Z" fill="#1E212C"/>
<path d="M18.0343 4.48887C18.0343 5.52791 17.8563 6.29999 17.5004 6.80512C17.1444 7.31025 16.5881 7.56282 15.8313 7.56282C15.0841 7.56282 14.531 7.31665 14.1718 6.82431C13.8127 6.32876 13.6267 5.59025 13.6139 4.60876V3.42426C13.6139 2.39801 13.7918 1.63552 14.1478 1.13678C14.5037 0.638041 15.0617 0.388672 15.8217 0.388672C16.5752 0.388672 17.13 0.630048 17.4859 1.1128C17.8419 1.59236 18.0246 2.33407 18.0343 3.33794V4.48887ZM17.1444 3.2756C17.1444 2.52429 17.0386 1.9776 16.827 1.63552C16.6153 1.29024 16.2802 1.1176 15.8217 1.1176C15.3663 1.1176 15.0344 1.28864 14.826 1.63072C14.6176 1.9728 14.5101 2.49872 14.5037 3.20846V4.62794C14.5037 5.38244 14.6128 5.94032 14.8308 6.30159C15.0521 6.65966 15.3856 6.83869 15.8313 6.83869C16.2706 6.83869 16.5961 6.66925 16.8077 6.33036C17.0226 5.99148 17.1348 5.45757 17.1444 4.72865V3.2756Z" fill="#1E212C"/>
<path d="M23.5658 4.48887C23.5658 5.52791 23.3878 6.29999 23.0318 6.80512C22.6759 7.31025 22.1195 7.56282 21.3628 7.56282C20.6156 7.56282 20.0625 7.31665 19.7033 6.82431C19.3442 6.32876 19.1582 5.59025 19.1454 4.60876V3.42426C19.1454 2.39801 19.3233 1.63552 19.6793 1.13678C20.0352 0.638041 20.5932 0.388672 21.3532 0.388672C22.1067 0.388672 22.6615 0.630048 23.0174 1.1128C23.3734 1.59236 23.5561 2.33407 23.5658 3.33794V4.48887ZM22.6759 3.2756C22.6759 2.52429 22.5701 1.9776 22.3584 1.63552C22.1468 1.29024 21.8117 1.1176 21.3532 1.1176C20.8978 1.1176 20.5659 1.28864 20.3575 1.63072C20.1491 1.9728 20.0416 2.49872 20.0352 3.20846V4.62794C20.0352 5.38244 20.1442 5.94032 20.3623 6.30159C20.5836 6.65966 20.917 6.83869 21.3628 6.83869C21.8021 6.83869 22.1276 6.66925 22.3392 6.33036C22.554 5.99148 22.6663 5.45757 22.6759 4.72865V3.2756Z" fill="#1E212C"/>
</svg>
