<svg width="19" height="8" viewBox="0 0 19 8" fill="none" xmlns="http://www.w3.org/2000/svg">
<path d="M4.44091 2.67505C4.44091 3.02352 4.34792 3.33364 4.16193 3.60538C3.97915 3.87713 3.73064 4.08973 3.41638 4.24319C3.78194 4.39984 4.07054 4.62843 4.28218 4.92895C4.49703 5.22947 4.60445 5.56995 4.60445 5.9504C4.60445 6.55464 4.39923 7.03579 3.98877 7.39385C3.58153 7.75192 3.04441 7.93095 2.37742 7.93095C1.70402 7.93095 1.1637 7.75192 0.756451 7.39385C0.352411 7.03259 0.150391 6.55144 0.150391 5.9504C0.150391 5.57315 0.253004 5.23267 0.458231 4.92895C0.666664 4.62523 0.953661 4.39505 1.31922 4.23839C1.00817 4.08494 0.762864 3.87233 0.583291 3.60059C0.403717 3.32884 0.313931 3.02033 0.313931 2.67505C0.313931 2.0868 0.503124 1.62003 0.881511 1.27475C1.2599 0.929475 1.75854 0.756836 2.37742 0.756836C2.9931 0.756836 3.49014 0.929475 3.86852 1.27475C4.25012 1.62003 4.44091 2.0868 4.44091 2.67505ZM3.7146 5.93122C3.7146 5.54118 3.58954 5.22308 3.33942 4.9769C3.09251 4.73073 2.76864 4.60765 2.3678 4.60765C1.96697 4.60765 1.6447 4.72914 1.40099 4.97211C1.16049 5.21508 1.04024 5.53479 1.04024 5.93122C1.04024 6.32765 1.15728 6.63936 1.39137 6.86635C1.62866 7.09333 1.95735 7.20683 2.37742 7.20683C2.79429 7.20683 3.12137 7.09333 3.35866 6.86635C3.59596 6.63616 3.7146 6.32445 3.7146 5.93122ZM2.37742 1.48576C2.0279 1.48576 1.7441 1.59446 1.52605 1.81185C1.3112 2.02605 1.20378 2.31858 1.20378 2.68944C1.20378 3.04431 1.3096 3.33204 1.52124 3.55263C1.73609 3.77003 2.02148 3.87873 2.37742 3.87873C2.73336 3.87873 3.01715 3.77003 3.22879 3.55263C3.44364 3.33204 3.55106 3.04431 3.55106 2.68944C3.55106 2.33457 3.44043 2.04524 3.21917 1.82144C2.99791 1.59765 2.71733 1.48576 2.37742 1.48576Z" fill="#1E212C"/>
<path d="M5.78771 7.36988C5.78771 7.21642 5.83261 7.08854 5.92239 6.98623C6.01539 6.88393 6.15328 6.83278 6.33606 6.83278C6.51884 6.83278 6.65672 6.88393 6.74972 6.98623C6.84592 7.08854 6.89402 7.21642 6.89402 7.36988C6.89402 7.51694 6.84592 7.64002 6.74972 7.73913C6.65672 7.83824 6.51884 7.88779 6.33606 7.88779C6.15328 7.88779 6.01539 7.83824 5.92239 7.73913C5.83261 7.64002 5.78771 7.51694 5.78771 7.36988ZM5.79252 3.13542C5.79252 2.98196 5.83742 2.85408 5.9272 2.75178C6.0202 2.64947 6.15808 2.59832 6.34087 2.59832C6.52365 2.59832 6.66153 2.64947 6.75453 2.75178C6.85073 2.85408 6.89883 2.98196 6.89883 3.13542C6.89883 3.28248 6.85073 3.40557 6.75453 3.50468C6.66153 3.60378 6.52365 3.65334 6.34087 3.65334C6.15808 3.65334 6.0202 3.60378 5.9272 3.50468C5.83742 3.40557 5.79252 3.28248 5.79252 3.13542Z" fill="#1E212C"/>
<path d="M12.5025 4.85702C12.5025 5.89605 12.3245 6.66813 11.9686 7.17326C11.6126 7.67839 11.0563 7.93095 10.2995 7.93095C9.55234 7.93095 8.99919 7.68478 8.64005 7.19244C8.2809 6.6969 8.09491 5.95839 8.08209 4.9769V3.79241C8.08209 2.76616 8.26006 2.00367 8.616 1.50494C8.97194 1.0062 9.5299 0.756836 10.2899 0.756836C11.0434 0.756836 11.5982 0.998211 11.9541 1.48096C12.3101 1.96051 12.4929 2.70222 12.5025 3.70609V4.85702ZM11.6126 3.64375C11.6126 2.89245 11.5068 2.34576 11.2952 2.00367C11.0835 1.6584 10.7484 1.48576 10.2899 1.48576C9.83453 1.48576 9.50264 1.6568 9.29421 1.99888C9.08577 2.34096 8.97835 2.86687 8.97194 3.57661V4.99609C8.97194 5.75058 9.08096 6.30846 9.29902 6.66973C9.52028 7.02779 9.85377 7.20683 10.2995 7.20683C10.7388 7.20683 11.0643 7.03739 11.2759 6.6985C11.4908 6.35962 11.603 5.82571 11.6126 5.09679V3.64375Z" fill="#1E212C"/>
<path d="M18.034 4.85702C18.034 5.89605 17.856 6.66813 17.5001 7.17326C17.1441 7.67839 16.5878 7.93095 15.831 7.93095C15.0838 7.93095 14.5307 7.68478 14.1715 7.19244C13.8124 6.6969 13.6264 5.95839 13.6136 4.9769V3.79241C13.6136 2.76616 13.7916 2.00367 14.1475 1.50494C14.5034 1.0062 15.0614 0.756836 15.8214 0.756836C16.5749 0.756836 17.1297 0.998211 17.4856 1.48096C17.8416 1.96051 18.0244 2.70222 18.034 3.70609V4.85702ZM17.1441 3.64375C17.1441 2.89245 17.0383 2.34576 16.8267 2.00367C16.615 1.6584 16.2799 1.48576 15.8214 1.48576C15.366 1.48576 15.0341 1.6568 14.8257 1.99888C14.6173 2.34096 14.5099 2.86687 14.5034 3.57661V4.99609C14.5034 5.75058 14.6125 6.30846 14.8305 6.66973C15.0518 7.02779 15.3853 7.20683 15.831 7.20683C16.2703 7.20683 16.5958 7.03739 16.8074 6.6985C17.0223 6.35962 17.1345 5.82571 17.1441 5.09679V3.64375Z" fill="#1E212C"/>
</svg>
