<svg width="20" height="10" viewBox="0 0 20 10" fill="none" xmlns="http://www.w3.org/2000/svg">
<path d="M3.39617 0.820312C3.76329 0.820312 4.10619 0.874853 4.4249 0.983935C4.7436 1.09302 5.01793 1.2526 5.24788 1.46268C5.48186 1.66872 5.66542 1.92123 5.79855 2.22019C5.93167 2.51916 5.99824 2.85852 5.99824 3.23829C5.99824 3.56149 5.94983 3.86046 5.85301 4.13518C5.75619 4.4099 5.62507 4.67453 5.45967 4.92905C5.29427 5.17953 5.10264 5.42396 4.8848 5.66232C4.67098 5.89664 4.44305 6.13703 4.201 6.38347L1.91965 8.72266C2.08102 8.67822 2.24441 8.64388 2.40981 8.61964C2.57521 8.59136 2.73456 8.57722 2.88786 8.57722H5.79249C5.90949 8.57722 6.00227 8.61156 6.07085 8.68024C6.13944 8.74892 6.17373 8.83781 6.17373 8.94689V9.60138H0.388672V9.23171C0.388672 9.15495 0.402792 9.07617 0.431031 8.99537C0.463305 8.91457 0.513732 8.83983 0.582314 8.77114L3.35987 5.97744C3.58982 5.74312 3.7996 5.5189 3.9892 5.30478C4.17881 5.08661 4.34018 4.86845 4.47331 4.65029C4.61047 4.43212 4.71536 4.21194 4.78798 3.98974C4.86059 3.76349 4.8969 3.52311 4.8969 3.26859C4.8969 3.01406 4.85656 2.79186 4.77587 2.60198C4.69519 2.40805 4.58425 2.24847 4.44305 2.12323C4.30185 1.99799 4.13645 1.90507 3.94684 1.84447C3.75724 1.77983 3.55351 1.74751 3.33566 1.74751C3.11781 1.74751 2.9161 1.77983 2.73053 1.84447C2.54496 1.90911 2.37955 2.00001 2.23432 2.11717C2.09312 2.23029 1.9721 2.36563 1.87124 2.5232C1.77442 2.68076 1.70584 2.85448 1.6655 3.04436C1.63323 3.16153 1.58481 3.24637 1.52027 3.29889C1.45572 3.35141 1.371 3.37767 1.26611 3.37767C1.24594 3.37767 1.22375 3.37767 1.19955 3.37767C1.17938 3.37363 1.15517 3.36959 1.12693 3.36555L0.56416 3.26859C0.620639 2.87266 0.729562 2.5232 0.890931 2.22019C1.0523 1.91315 1.25603 1.6566 1.50211 1.45056C1.75223 1.24452 2.03665 1.08898 2.35535 0.983935C2.67809 0.874853 3.02503 0.820312 3.39617 0.820312Z" fill="#787A80"/>
<path d="M13.3394 0.917274V1.40208C13.3394 1.53944 13.3233 1.65256 13.291 1.74145C13.2628 1.83033 13.2325 1.90507 13.2002 1.96567L9.61182 9.21959C9.55937 9.32463 9.48676 9.41553 9.39397 9.49229C9.30118 9.56502 9.17612 9.60138 9.01879 9.60138H8.25027L11.8932 2.43836C11.9456 2.33735 11.9981 2.24443 12.0505 2.15959C12.107 2.07475 12.1695 1.99395 12.2381 1.91719H7.71171C7.64312 1.91719 7.58059 1.89093 7.52411 1.83841C7.47167 1.78185 7.44545 1.71923 7.44545 1.65054V0.917274H13.3394Z" fill="#787A80"/>
<path d="M19.7185 1.38996C19.7185 1.54348 19.67 1.67074 19.5732 1.77175C19.4764 1.86871 19.313 1.91719 19.0831 1.91719H16.36L15.9606 4.19578C16.4124 4.09882 16.83 4.05034 17.2132 4.05034C17.665 4.05034 18.0624 4.117 18.4053 4.25032C18.7523 4.38364 19.0427 4.56747 19.2767 4.80179C19.5107 5.03611 19.6862 5.31286 19.8032 5.63202C19.9242 5.95118 19.9847 6.29863 19.9847 6.67436C19.9847 7.13492 19.904 7.55105 19.7427 7.92273C19.5813 8.29442 19.3594 8.61358 19.077 8.88023C18.7987 9.14283 18.4699 9.34483 18.0907 9.48623C17.7114 9.62764 17.302 9.69834 16.8622 9.69834C16.6081 9.69834 16.364 9.67208 16.13 9.61956C15.896 9.57108 15.6782 9.50441 15.4765 9.41957C15.2748 9.33473 15.0872 9.23777 14.9137 9.12869C14.7402 9.01961 14.5869 8.90447 14.4538 8.78326L14.7806 8.3227C14.8532 8.21766 14.95 8.16514 15.071 8.16514C15.1477 8.16514 15.2364 8.19746 15.3373 8.2621C15.4422 8.3227 15.5673 8.39138 15.7125 8.46814C15.8577 8.5449 16.0272 8.6156 16.2208 8.68024C16.4185 8.74084 16.6525 8.77114 16.9227 8.77114C17.2253 8.77114 17.4976 8.72266 17.7397 8.6257C17.9817 8.52874 18.1875 8.39138 18.3569 8.21362C18.5304 8.03181 18.6635 7.81567 18.7563 7.56519C18.8491 7.3147 18.8955 7.03392 18.8955 6.72284C18.8955 6.45215 18.8551 6.20773 18.7744 5.98957C18.6978 5.7714 18.5788 5.58556 18.4174 5.43204C18.2601 5.27852 18.0624 5.15933 17.8244 5.07449C17.5864 4.98965 17.308 4.94723 16.9893 4.94723C16.7715 4.94723 16.5455 4.96541 16.3116 5.00177C16.0776 5.03813 15.8355 5.09671 15.5854 5.17751L14.9077 4.97753L15.6096 0.917274H19.7185V1.38996Z" fill="#787A80"/>
</svg>
