<svg width="50" height="8" viewBox="0 0 50 8" fill="none" xmlns="http://www.w3.org/2000/svg">
<path d="M3.70278 3.19945C4.00149 3.19945 4.28457 3.2498 4.55202 3.35051C4.81947 3.44774 5.05393 3.59185 5.25539 3.78283C5.45684 3.97035 5.61662 4.20301 5.73471 4.48081C5.85281 4.75513 5.91186 5.0694 5.91186 5.42359C5.91186 5.76737 5.84934 6.08684 5.7243 6.382C5.59925 6.67716 5.42385 6.93413 5.19808 7.1529C4.97578 7.37166 4.70659 7.54355 4.39051 7.66856C4.07443 7.79357 3.72709 7.85608 3.34849 7.85608C2.97336 7.85608 2.63297 7.79705 2.32731 7.67898C2.02513 7.55744 1.76636 7.38729 1.55101 7.16852C1.33566 6.94628 1.16893 6.6789 1.05084 6.36638C0.936217 6.05038 0.878906 5.69792 0.878906 5.309C0.878906 4.98258 0.951848 4.63533 1.09773 4.26725C1.24361 3.89916 1.47459 3.5033 1.79067 3.07965L3.68194 0.532572C3.73057 0.470067 3.7983 0.417979 3.88513 0.376309C3.97197 0.331167 4.07096 0.308595 4.18211 0.308595H5.0053L2.41588 3.5849C2.59303 3.46336 2.78927 3.36961 3.00463 3.30363C3.21998 3.23418 3.45269 3.19945 3.70278 3.19945ZM1.77504 5.47047C1.77504 5.71007 1.80978 5.92884 1.87924 6.12677C1.94871 6.32471 2.04944 6.49486 2.18143 6.63723C2.31689 6.7796 2.48014 6.89072 2.67118 6.97059C2.86569 7.04699 3.08625 7.08518 3.33286 7.08518C3.58295 7.08518 3.80872 7.04525 4.01017 6.96538C4.21163 6.88551 4.38356 6.77439 4.52597 6.63202C4.67186 6.48965 4.783 6.32123 4.85942 6.12677C4.93931 5.93231 4.97925 5.72049 4.97925 5.4913C4.97925 5.24823 4.94104 5.02946 4.86463 4.835C4.78821 4.63707 4.68054 4.47039 4.5416 4.33496C4.40267 4.19606 4.23594 4.09015 4.04143 4.01723C3.84692 3.94431 3.63331 3.90784 3.40059 3.90784C3.15051 3.90784 2.92474 3.95125 2.72328 4.03806C2.52182 4.1214 2.34989 4.236 2.20748 4.38184C2.06854 4.52421 1.96087 4.69089 1.88445 4.88188C1.81151 5.0694 1.77504 5.26559 1.77504 5.47047Z" fill="#787A80"/>
<path d="M7.85604 7.06435H9.46075V1.9754C9.46075 1.82261 9.46596 1.66808 9.47638 1.51182L8.14259 2.65253C8.10786 2.68031 8.07312 2.70115 8.03839 2.71504C8.00366 2.72546 7.97066 2.73067 7.9394 2.73067C7.8873 2.73067 7.84041 2.72025 7.79873 2.69941C7.75705 2.67511 7.72578 2.64733 7.70494 2.61607L7.41318 2.215L9.63268 0.292969H10.3881V7.06435H11.8574V7.77274H7.85604V7.06435Z" fill="#787A80"/>
<path d="M49.8418 5.69727H16.0234" stroke="#8CA1B8" stroke-width="0.3364" stroke-miterlimit="10"/>
<path d="M17.9161 5.69792C17.9161 6.45556 17.253 7.11849 16.4951 7.11849C15.7373 7.11849 15.0742 6.45556 15.0742 5.69792C15.0742 4.94028 15.7373 4.27734 16.4951 4.27734C17.3477 4.27734 17.9161 4.94028 17.9161 5.69792Z" fill="url(#paint0_linear_1679_1900)"/>
<defs>
<linearGradient id="paint0_linear_1679_1900" x1="15.1658" y1="5.69366" x2="17.9275" y2="5.69366" gradientUnits="userSpaceOnUse">
<stop offset="0.1491" stop-color="#6236DE"/>
<stop offset="1" stop-color="#562DC5"/>
</linearGradient>
</defs>
</svg>
