<svg width="18" height="9" viewBox="0 0 18 9" fill="none" xmlns="http://www.w3.org/2000/svg">
<path d="M3.40193 0.772461C3.71801 0.772461 4.01325 0.81934 4.28765 0.913098C4.56205 1.00686 4.79825 1.14402 4.99623 1.32459C5.19769 1.50169 5.35573 1.71872 5.47035 1.97568C5.58497 2.23265 5.64228 2.52434 5.64228 2.85076C5.64228 3.12856 5.6006 3.38552 5.51724 3.62165C5.43388 3.85778 5.32099 4.08523 5.17858 4.304C5.03617 4.51929 4.87119 4.72938 4.68362 4.93426C4.49953 5.13566 4.30328 5.34228 4.09488 5.5541L2.13066 7.56468C2.2696 7.52648 2.41027 7.49697 2.55268 7.47613C2.69509 7.45183 2.83229 7.43967 2.96428 7.43967H5.46514C5.56587 7.43967 5.64576 7.46919 5.70481 7.52822C5.76385 7.58725 5.79338 7.66365 5.79338 7.75741V8.31995H0.8125V8.00222C0.8125 7.93624 0.824657 7.86853 0.848971 7.79908C0.876758 7.72963 0.920176 7.66538 0.979224 7.60635L3.37067 5.20511C3.56866 5.00371 3.74927 4.81098 3.91252 4.62694C4.07577 4.43943 4.21471 4.25191 4.32933 4.0644C4.44743 3.87688 4.53774 3.68763 4.60026 3.49664C4.66278 3.30218 4.69404 3.09557 4.69404 2.8768C4.69404 2.65803 4.65931 2.46704 4.58984 2.30384C4.52037 2.13716 4.42485 1.99999 4.30328 1.89234C4.18171 1.7847 4.0393 1.70483 3.87605 1.65274C3.7128 1.59718 3.5374 1.5694 3.34983 1.5694C3.16227 1.5694 2.9886 1.59718 2.82882 1.65274C2.66904 1.7083 2.52663 1.78643 2.40159 1.88714C2.28002 1.98437 2.17582 2.10069 2.08898 2.23612C2.00562 2.37155 1.94657 2.52087 1.91184 2.68408C1.88405 2.78478 1.84237 2.8577 1.78679 2.90284C1.73122 2.94799 1.65828 2.97056 1.56797 2.97056C1.5506 2.97056 1.5315 2.97056 1.51066 2.97056C1.49329 2.96708 1.47245 2.96361 1.44814 2.96014L0.963594 2.8768C1.01222 2.53649 1.106 2.23612 1.24494 1.97568C1.38388 1.71177 1.55928 1.49127 1.77116 1.31417C1.98651 1.13707 2.23139 1.00338 2.50579 0.913098C2.78366 0.81934 3.08238 0.772461 3.40193 0.772461Z" fill="#787A80"/>
<path d="M11.963 0.855801V1.2725C11.963 1.39057 11.9491 1.4878 11.9213 1.56419C11.897 1.64059 11.8709 1.70483 11.8431 1.75692L8.75354 7.9918C8.70839 8.08208 8.64587 8.16022 8.56598 8.22619C8.48609 8.2887 8.37841 8.31995 8.24295 8.31995H7.58126L10.7178 2.1632C10.7629 2.07639 10.8081 1.99652 10.8532 1.9236C10.9019 1.85067 10.9557 1.78122 11.0147 1.71525H7.11756C7.05852 1.71525 7.00468 1.69268 6.95605 1.64753C6.9109 1.59892 6.88832 1.54509 6.88832 1.48606V0.855801H11.963Z" fill="#787A80"/>
<path d="M17.4553 1.26208C17.4553 1.39404 17.4136 1.50342 17.3302 1.59024C17.2469 1.67358 17.1062 1.71525 16.9082 1.71525H14.5636L14.2198 3.67374C14.6088 3.5904 14.9683 3.54873 15.2983 3.54873C15.6873 3.54873 16.0294 3.60603 16.3247 3.72062C16.6234 3.83521 16.8735 3.99321 17.0749 4.19461C17.2764 4.39602 17.4275 4.63389 17.5282 4.90822C17.6324 5.18254 17.6845 5.48118 17.6845 5.80412C17.6845 6.19999 17.615 6.55765 17.4761 6.87713C17.3372 7.1966 17.1461 7.47092 16.903 7.70011C16.6633 7.92582 16.3802 8.09945 16.0537 8.22099C15.7272 8.34252 15.3747 8.40329 14.9961 8.40329C14.7773 8.40329 14.5671 8.38072 14.3657 8.33558C14.1642 8.29391 13.9766 8.23661 13.803 8.16369C13.6293 8.09077 13.4678 8.00743 13.3184 7.91367C13.1691 7.81991 13.0371 7.72094 12.9225 7.61677L13.2038 7.2209C13.2663 7.13062 13.3497 7.08548 13.4539 7.08548C13.5199 7.08548 13.5963 7.11326 13.6831 7.16882C13.7734 7.2209 13.8811 7.27994 14.0062 7.34591C14.1312 7.41189 14.2771 7.47266 14.4438 7.52822C14.614 7.58031 14.8155 7.60635 15.0482 7.60635C15.3087 7.60635 15.5431 7.56468 15.7516 7.48134C15.96 7.398 16.1371 7.27994 16.283 7.12715C16.4323 6.97088 16.547 6.7851 16.6269 6.56981C16.7067 6.35451 16.7467 6.11317 16.7467 5.84579C16.7467 5.61313 16.712 5.40305 16.6425 5.21553C16.5765 5.02802 16.474 4.86828 16.3351 4.73633C16.1996 4.60437 16.0294 4.50193 15.8245 4.42901C15.6196 4.35609 15.3799 4.31963 15.1055 4.31963C14.9179 4.31963 14.7234 4.33525 14.522 4.3665C14.3205 4.39776 14.1121 4.44811 13.8968 4.51756L13.3132 4.34567L13.9176 0.855801H17.4553V1.26208Z" fill="#787A80"/>
</svg>
