<svg width="71" height="71" viewBox="0 0 71 71" fill="none" xmlns="http://www.w3.org/2000/svg">
<path d="M35.3212 70.6148C16.0912 70.6148 0.460938 54.9885 0.460938 35.7634C0.460938 16.5384 16.0912 0.912109 35.3212 0.912109C54.5512 0.912109 70.1815 16.5384 70.1815 35.7634C70.2763 54.9885 54.646 70.6148 35.3212 70.6148ZM35.3212 8.8673C20.4488 8.8673 8.41817 20.8948 8.41817 35.7634C8.41817 50.6321 20.4488 62.6596 35.3212 62.6596C50.1937 62.6596 62.2243 50.6321 62.2243 35.7634C62.319 20.8948 50.1937 8.8673 35.3212 8.8673Z" fill="#E2EBF5"/>
<path d="M35.3219 70.6157C26.0385 70.6157 17.2287 67.0169 10.5977 60.3876C9.08202 58.8723 9.08202 56.3153 10.5977 54.7053C12.1134 53.19 14.671 53.19 16.2814 54.7053C21.3968 59.8194 28.1225 62.5658 35.3219 62.5658C50.1944 62.5658 62.225 50.5383 62.225 35.6697C62.225 20.801 50.1944 8.77355 35.3219 8.77355C33.1432 8.77355 31.3433 6.97416 31.3433 4.79596C31.3433 2.61775 33.1432 0.818359 35.3219 0.818359C54.5519 0.818359 70.1822 16.4446 70.1822 35.6697C70.277 54.9894 54.6467 70.6157 35.3219 70.6157Z" fill="#5A87FC"/>
</svg>
