<svg width="45" height="44" viewBox="0 0 45 44" fill="none" xmlns="http://www.w3.org/2000/svg">
<path d="M22.444 43.8536C10.4515 43.8536 0.769531 34.1575 0.769531 22.1475C0.769531 10.1375 10.4515 0.441406 22.444 0.441406C34.4365 0.441406 44.1186 10.1375 44.1186 22.1475C44.1186 34.1575 34.4365 43.8536 22.444 43.8536ZM22.444 9.6968C15.6226 9.6968 10.0115 15.206 10.0115 22.1475C10.0115 28.9789 15.5126 34.5982 22.444 34.5982C29.2655 34.5982 34.8766 29.0891 34.8766 22.1475C34.8766 15.3161 29.2655 9.6968 22.444 9.6968Z" fill="#E2EBF5"/>
<path d="M22.4438 0.442383C19.8032 0.442383 17.6028 2.75623 17.8228 5.40063C18.0429 7.82466 20.1333 9.69778 22.5538 9.69778C29.3753 9.80796 34.9865 15.5375 34.7664 22.479C34.5464 28.7595 29.5953 34.0483 23.324 34.489C19.9133 34.7094 16.7226 33.6075 14.4121 31.5141C12.6517 29.9715 10.0112 29.9715 8.3608 31.5141C6.27036 33.3872 6.27036 36.6927 8.3608 38.5658C12.3216 41.9815 17.3827 43.9648 22.9939 43.7444C34.5464 43.4139 43.8984 33.9381 44.1184 22.3689C44.3385 10.3589 34.5464 0.442383 22.4438 0.442383Z" fill="#5A87FC"/>
</svg>
