<svg width="38" height="38" viewBox="0 0 38 38" fill="none" xmlns="http://www.w3.org/2000/svg">
<path d="M19.3218 37.4211C8.9963 37.4211 0.660156 29.0871 0.660156 18.7642C0.660156 8.44143 8.9963 0.107422 19.3218 0.107422C29.6473 0.107422 37.9834 8.44143 37.9834 18.7642C37.9834 29.0871 29.6473 37.4211 19.3218 37.4211ZM19.3218 8.06262C13.4486 8.06262 8.6174 12.7978 8.6174 18.7642C8.6174 24.6359 13.3538 29.4659 19.3218 29.4659C25.195 29.4659 30.0262 24.7306 30.0262 18.7642C30.0262 12.8926 25.195 8.06262 19.3218 8.06262Z" fill="#E2EBF5"/>
<path d="M19.3229 0.108398C17.0494 0.108398 15.1548 2.0972 15.3443 4.37011C15.5337 6.45361 17.3336 8.06359 19.4176 8.06359C25.2908 8.1583 30.122 13.0829 29.9325 19.0493C29.7431 24.4475 25.4803 28.9933 20.0807 29.3721C17.1441 29.5616 14.397 28.6145 12.4076 26.8151C10.892 25.4892 8.61848 25.4892 7.19755 26.8151C5.39769 28.4251 5.39769 31.2662 7.19755 32.8762C10.6078 35.8121 14.9653 37.5167 19.7965 37.3273C29.7431 37.0432 37.795 28.8986 37.9845 18.9546C38.174 8.63182 29.7431 0.108398 19.3229 0.108398Z" fill="#5A87FC"/>
</svg>
