<svg width="48" height="48" viewBox="0 0 48 48" fill="none" xmlns="http://www.w3.org/2000/svg">
<g clip-path="url(#clip0_2196_16760)">
<path d="M33.3569 37.7747C33.1825 37.6003 32.9407 37.5 32.6932 37.5C32.4466 37.5 32.2047 37.6002 32.0313 37.7747C31.856 37.9491 31.7566 38.19 31.7566 38.4375C31.7566 38.6841 31.856 38.9259 32.0313 39.1002C32.2057 39.2746 32.4466 39.375 32.6932 39.375C32.9407 39.375 33.1816 39.2747 33.3569 39.1002C33.5313 38.9259 33.6316 38.6841 33.6316 38.4375C33.6316 38.1909 33.5313 37.9491 33.3569 37.7747Z" fill="#7772F1"/>
<path d="M47.8133 19.1261C47.6363 18.8894 47.3581 18.75 47.0625 18.75H43.2389V0.9375C43.2389 0.419813 42.8192 0 42.3014 0H25.0514C24.5336 0 24.1139 0.419813 24.1139 0.9375V8.15625H14.4457C13.928 8.15625 13.5082 8.57606 13.5082 9.09375V18.75H10.0312C9.73564 18.75 9.45739 18.8894 9.28039 19.1261C9.10339 19.3628 9.04836 19.6692 9.13198 19.9527L14.662 38.7027C14.7796 39.1013 15.1456 39.375 15.5612 39.375H28.5469C29.0646 39.375 29.4844 38.9552 29.4844 38.4375C29.4844 37.9198 29.0646 37.5 28.5469 37.5H16.2622L11.2852 20.625H14.4458H31.32H42.3015H45.8086L40.8316 37.5H37.4062C36.8884 37.5 36.4687 37.9198 36.4687 38.4375C36.4687 38.9552 36.8884 39.375 37.4062 39.375H41.5324C41.948 39.375 42.314 39.1013 42.4316 38.7027L47.9616 19.9527C48.0453 19.6692 47.9903 19.3628 47.8133 19.1261ZM30.3824 18.75H15.3832V10.0312H25.0514H30.3824V18.75V18.75ZM41.364 18.75H32.2575V9.09375C32.2575 8.57606 31.8378 8.15625 31.32 8.15625H25.989V1.875H41.364V18.75Z" fill="#7772F1"/>
<path d="M42.572 41.0633H13.6455L5.87625 14.7211C5.75869 14.3225 5.39269 14.0488 4.97709 14.0488H0.9375C0.419719 14.0488 0 14.4686 0 14.9863C0 15.504 0.419719 15.9238 0.9375 15.9238H4.27613L12.0455 42.266C12.163 42.6646 12.529 42.9383 12.9446 42.9383H17.5961C17.348 43.4158 17.2068 43.9576 17.2068 44.532C17.2068 46.4447 18.7628 48.0008 20.6755 48.0008C22.5882 48.0008 24.1443 46.4447 24.1443 44.532C24.1443 43.9576 24.0031 43.4158 23.7549 42.9383H31.4289C31.1808 43.4158 31.0396 43.9576 31.0396 44.532C31.0396 46.4447 32.5957 48.0008 34.5083 48.0008C36.421 48.0008 37.9771 46.4447 37.9771 44.532C37.9771 43.9576 37.8359 43.4158 37.5878 42.9383H42.5721C43.0898 42.9383 43.5096 42.5185 43.5096 42.0008C43.5096 41.4831 43.0898 41.0633 42.572 41.0633ZM20.6755 46.1258C19.7967 46.1258 19.0818 45.4108 19.0818 44.532C19.0818 43.6532 19.7967 42.9383 20.6755 42.9383C21.5543 42.9383 22.2693 43.6532 22.2693 44.532C22.2693 45.4108 21.5543 46.1258 20.6755 46.1258ZM34.5083 46.1258C33.6294 46.1258 32.9145 45.4108 32.9145 44.532C32.9145 43.6532 33.6294 42.9383 34.5083 42.9383C35.3871 42.9383 36.102 43.6532 36.102 44.532C36.102 45.4108 35.3871 46.1258 34.5083 46.1258Z" fill="#7772F1"/>
<path d="M23.5464 23.6184C23.372 23.444 23.1302 23.3438 22.8827 23.3438C22.6361 23.3438 22.3942 23.4441 22.2199 23.6184C22.0455 23.7928 21.9461 24.0347 21.9461 24.2812C21.9461 24.5278 22.0455 24.7697 22.2199 24.944C22.3952 25.1184 22.6361 25.2188 22.8827 25.2188C23.1302 25.2188 23.3711 25.1184 23.5464 24.944C23.7208 24.7697 23.8202 24.5278 23.8202 24.2812C23.8202 24.0347 23.7208 23.7928 23.5464 23.6184Z" fill="#7772F1"/>
<path d="M18.9394 23.3438H12.1326C11.6148 23.3438 11.1951 23.7636 11.1951 24.2812C11.1951 24.7989 11.6148 25.2188 12.1326 25.2188H18.9394C19.4572 25.2188 19.8769 24.7989 19.8769 24.2812C19.8769 23.7636 19.4572 23.3438 18.9394 23.3438Z" fill="#7772F1"/>
</g>
<defs>
<clipPath id="clip0_2196_16760">
<rect width="48" height="48" fill="white"/>
</clipPath>
</defs>
</svg>
