<svg width="48" height="48" viewBox="0 0 48 48" fill="none" xmlns="http://www.w3.org/2000/svg">
<g clip-path="url(#clip0_2198_129)">
<path d="M29.2825 34.1271C29.242 33.4564 28.9479 32.8151 28.4544 32.3217L24.8935 28.7601C25.4687 28.5781 25.9878 28.2649 26.4106 27.8421L26.5012 27.7515C28.0705 26.1822 27.9446 23.5031 26.2206 21.7791C25.4003 20.9588 24.3392 20.4704 23.2328 20.4036C22.083 20.3341 21.0237 20.7231 20.2483 21.4986L20.1577 21.5891C19.7347 22.012 19.4214 22.5313 19.2394 23.1067L15.678 19.5453C14.6286 18.4959 12.9844 18.4325 12.0126 19.404L8.78491 22.6318C8.38994 23.0268 8.22569 23.6009 8.3455 24.1674C8.47581 24.7835 8.90547 25.2872 9.49488 25.5149C9.86697 25.6587 10.2044 25.8802 10.4975 26.1734L10.5998 26.2757C11.0957 26.7716 11.3905 27.402 11.4296 28.0507C11.4662 28.6567 11.2712 29.2057 10.8804 29.5965C10.4897 29.9872 9.94047 30.1828 9.33466 30.1456C8.68591 30.1065 8.05544 29.8117 7.5596 29.3158L7.45732 29.2135C7.16416 28.9204 6.94263 28.583 6.79882 28.211C6.5711 27.6215 6.06738 27.1918 5.45126 27.0615C4.88473 26.9417 4.3106 27.1059 3.91554 27.5009L0.691486 30.7251C-0.280044 31.6968 -0.216763 33.3409 0.832767 34.3905L4.39413 37.9519C3.8187 38.134 3.29942 38.4473 2.87651 38.8701L2.78586 38.9608C1.21667 40.5301 1.34258 43.2091 3.06654 44.9332C3.98182 45.8484 5.16588 46.3133 6.31047 46.3131C7.32204 46.3131 8.30275 45.9499 9.03888 45.2137L9.12953 45.1231C9.55244 44.7002 9.86566 44.1811 10.0477 43.6054L13.6091 47.1669C14.1026 47.6604 14.7438 47.9544 15.4146 47.995C15.466 47.9981 15.5173 47.9997 15.5684 47.9997C16.2158 47.9997 16.8307 47.7521 17.2746 47.3082L20.3446 44.2381C20.5831 44.8181 20.9341 45.342 21.3887 45.7967L21.491 45.899C23.215 47.6229 25.8942 47.7488 27.4634 46.1796C29.0327 44.6103 28.9068 41.9312 27.1828 40.2072L27.0806 40.1049C26.6259 39.6502 26.102 39.2993 25.522 39.0608L28.5956 35.9871C29.0746 35.5081 29.3249 34.8303 29.2825 34.1271ZM27.2699 34.6613L24.0422 37.889C23.6473 38.284 23.483 38.858 23.6028 39.4246C23.733 40.0407 24.1627 40.5444 24.7522 40.7722C25.1243 40.916 25.4617 41.1376 25.7548 41.4308L25.8571 41.5331C26.85 42.526 26.9759 44.0156 26.1377 44.8538C25.2996 45.692 23.8097 45.5661 22.817 44.5732L22.7147 44.4709C22.4216 44.1778 22.1999 43.8404 22.0561 43.4684C21.8284 42.8789 21.3246 42.4492 20.7085 42.319C20.1419 42.1992 19.5678 42.3635 19.1729 42.7584L15.9489 45.9825C15.8191 46.1123 15.6483 46.1312 15.5278 46.1235C15.3179 46.1109 15.1019 46.008 14.9351 45.8413L13.5064 44.4126L16.6176 41.3014C16.9837 40.9353 16.9837 40.3417 16.6176 39.9755C16.2515 39.6093 15.6579 39.6094 15.2917 39.9755L12.1805 43.0867L11.2097 42.1159C10.8547 41.7609 10.3871 41.5688 9.91581 41.5688C9.75287 41.5688 9.58937 41.5919 9.43 41.639C8.85363 41.8097 8.43466 42.2634 8.30932 42.8526C8.23057 43.2226 8.06041 43.5405 7.80353 43.7973L7.71288 43.8879C6.87475 44.7261 5.38488 44.6002 4.39217 43.6073C3.39926 42.6144 3.27336 41.1248 4.11148 40.2866L4.20214 40.1959C4.45901 39.9391 4.77682 39.7689 5.14685 39.6902C5.73616 39.5648 6.18982 39.1457 6.36054 38.5693C6.5441 37.9493 6.36129 37.2675 5.88363 36.7898L2.15858 33.0645C1.9918 32.8978 1.88895 32.6817 1.8762 32.4718C1.86889 32.3513 1.88755 32.1805 2.0172 32.0507L5.08723 28.9806C5.32573 29.5606 5.67673 30.0845 6.13132 30.5392L6.2336 30.6415C7.95766 32.3655 10.6367 32.4913 12.2061 30.9221C13.7753 29.3528 13.6495 26.6737 11.9254 24.9497L11.8232 24.8474C11.3685 24.3927 10.8446 24.0418 10.2646 23.8033L13.3382 20.7296C13.5749 20.4932 14.0391 20.5579 14.3521 20.8709L18.0773 24.5961C18.555 25.0738 19.2368 25.2565 19.8569 25.073C20.4332 24.9023 20.8522 24.4486 20.9776 23.8593C21.0563 23.4893 21.2264 23.1715 21.4834 22.9147L21.5741 22.824C21.9648 22.4333 22.5136 22.2383 23.1198 22.2749C23.7686 22.314 24.399 22.6088 24.8949 23.1047C25.8878 24.0977 26.0137 25.5874 25.1755 26.4254L25.0849 26.5161C24.828 26.7729 24.5102 26.9431 24.1403 27.0218C23.551 27.1472 23.0972 27.5661 22.9265 28.1426C22.7429 28.7626 22.9257 29.4445 23.4034 29.9223L27.1287 33.6475C27.2953 33.8142 27.3983 34.0302 27.4109 34.2401C27.4182 34.3607 27.3997 34.5315 27.2699 34.6613Z" fill="#7772F1"/>
<path d="M19.0234 37.5716C18.8491 37.3972 18.6072 37.2969 18.3606 37.2969C18.1141 37.2969 17.8722 37.3972 17.6978 37.5716C17.5234 37.7459 17.4231 37.9878 17.4231 38.2344C17.4231 38.4809 17.5234 38.7228 17.6978 38.8972C17.8722 39.0716 18.1131 39.1719 18.3606 39.1719C18.6072 39.1719 18.8491 39.0716 19.0234 38.8972C19.1978 38.7228 19.2981 38.4809 19.2981 38.2344C19.2981 37.9878 19.1978 37.7459 19.0234 37.5716Z" fill="#7772F1"/>
<path d="M38.9322 11.9055C38.7579 11.7312 38.516 11.6309 38.2694 11.6309C38.0229 11.6309 37.781 11.7312 37.6066 11.9055C37.4323 12.0799 37.3319 12.3218 37.3319 12.5684C37.3319 12.8149 37.4323 13.0568 37.6066 13.2312C37.781 13.4055 38.0229 13.5059 38.2694 13.5059C38.516 13.5059 38.7579 13.4055 38.9322 13.2312C39.1066 13.0568 39.2069 12.8149 39.2069 12.5684C39.2069 12.3218 39.1066 12.0799 38.9322 11.9055Z" fill="#7772F1"/>
<path d="M45.9515 21.5466C45.4422 21.0373 44.8259 20.6476 44.1635 20.4151L47.3064 17.2723C47.7853 16.7934 48.0357 16.1154 47.9932 15.4123C47.9527 14.7415 47.6586 14.1002 47.1651 13.6067L43.674 10.1151C44.1662 9.92715 44.6138 9.63878 44.983 9.2695L45.0736 9.17884C46.6428 7.60956 46.517 4.93047 44.7929 3.20642C43.0691 1.48254 40.3899 1.35664 38.8205 2.92582L38.7299 3.01648C38.3606 3.38585 38.0721 3.83351 37.8841 4.32588L34.3887 0.830514C33.3392 -0.219015 31.695 -0.282389 30.7233 0.689234L27.5804 3.8321C27.3479 3.16967 26.9583 2.55345 26.4489 2.04411L26.3466 1.94182C24.6227 0.217859 21.9435 0.0920471 20.3742 1.66123C18.805 3.23051 18.9308 5.90969 20.6547 7.63347L20.7572 7.73594C21.2664 8.24519 21.8826 8.63481 22.5452 8.8674L19.4022 12.0103C18.4306 12.9819 18.494 14.6261 19.5438 15.6759L23.2723 19.4016C23.7501 19.8793 24.4323 20.062 25.052 19.8785C25.6283 19.7078 26.0473 19.254 26.1727 18.6648C26.2514 18.2949 26.4215 17.9771 26.6785 17.7202L26.7692 17.6295C27.1599 17.2388 27.7099 17.0435 28.3149 17.0804C28.9637 17.1195 29.594 17.4143 30.09 17.9102C30.5859 18.4062 30.8806 19.0365 30.9198 19.6853C30.9564 20.2914 30.7613 20.8404 30.3706 21.2311L30.28 21.3217C30.0231 21.5786 29.7053 21.7487 29.3354 21.8275C28.7461 21.9528 28.2924 22.3718 28.1217 22.9482C27.9381 23.568 28.1208 24.2498 28.5983 24.7275L32.3201 28.4522C32.8714 29.0036 33.5868 29.2827 34.2827 29.2827C34.9115 29.2827 35.5244 29.0547 35.9856 28.5935L39.1285 25.4506C39.361 26.113 39.7506 26.7293 40.2599 27.2385L40.3622 27.3409C42.0863 29.0649 44.7654 29.1907 46.3347 27.6215C47.9038 26.0522 47.778 23.373 46.0541 21.6491L45.9515 21.5466ZM45.0085 26.2954C44.1704 27.1336 42.6806 27.0077 41.6878 26.0148L41.5855 25.9125C41.2589 25.586 41.0141 25.1912 40.8777 24.7709C40.6794 24.1604 40.1683 23.688 39.5437 23.538C38.9607 23.3981 38.3687 23.5582 37.9604 23.9666L34.6595 27.2674C34.5297 27.3971 34.3587 27.4159 34.2384 27.4084C34.0285 27.3957 33.8125 27.2928 33.646 27.1263L30.0878 23.5654C30.6634 23.3833 31.1826 23.07 31.6055 22.6472L31.6961 22.5566C32.4716 21.7811 32.8605 20.721 32.7911 19.572C32.7243 18.4655 32.2358 17.4044 31.4156 16.5842C30.5954 15.7641 29.5343 15.2755 28.4278 15.2086C27.2782 15.1396 26.2187 15.5281 25.4433 16.3035L25.3526 16.3942C24.9297 16.8172 24.6164 17.3365 24.4344 17.9119L20.8695 14.3497C20.7027 14.183 20.5999 13.9669 20.5871 13.757C20.5798 13.6366 20.5985 13.4656 20.7281 13.3359L24.0291 10.0351C24.4374 9.62668 24.5976 9.03475 24.4576 8.45162C24.3075 7.82706 23.8351 7.31594 23.2247 7.11775C22.8045 6.98125 22.4097 6.73647 22.0833 6.41003L21.9808 6.30757C20.9879 5.31466 20.862 3.82507 21.7002 2.98685C22.5382 2.14864 24.0281 2.27445 25.0209 3.26745L25.1232 3.36973C25.4498 3.69626 25.6946 4.09104 25.8311 4.51132C26.0294 5.12182 26.5405 5.59422 27.1651 5.74413C27.7481 5.8841 28.34 5.72388 28.7484 5.3156L32.0492 2.01476C32.2858 1.77842 32.7499 1.84301 33.063 2.15604L36.7055 5.79869C37.1672 6.26041 37.8301 6.44875 38.435 6.28975C38.9965 6.14238 39.4247 5.72116 39.5804 5.16307C39.6691 4.84507 39.8291 4.56888 40.0558 4.34219L40.1464 4.25154C40.9845 3.41332 42.4743 3.53913 43.4671 4.53213C44.46 5.52504 44.5859 7.01463 43.7477 7.85284L43.6571 7.9435C43.4304 8.17028 43.1542 8.33022 42.8363 8.41891C42.2782 8.57462 41.857 9.00278 41.7096 9.56425C41.5508 10.1693 41.739 10.832 42.2007 11.2938L45.8392 14.9324C46.006 15.099 46.1088 15.3151 46.1216 15.525C46.1289 15.6455 46.1102 15.8164 45.9805 15.9462L44.476 17.4507L41.3691 14.3437C41.0029 13.9776 40.4094 13.9776 40.0433 14.3437C39.6772 14.7098 39.6771 15.3034 40.0433 15.6695L43.1502 18.7765L42.6795 19.2471C42.2713 19.6555 42.111 20.2474 42.251 20.8304C42.401 21.455 42.8734 21.9661 43.4838 22.1644C43.9041 22.3009 44.2988 22.5457 44.6254 22.8723L44.7277 22.9746C45.7209 23.9676 45.8467 25.4574 45.0085 26.2954Z" fill="#7772F1"/>
</g>
<defs>
<clipPath id="clip0_2198_129">
<rect width="48" height="48" fill="white"/>
</clipPath>
</defs>
</svg>
