<svg width="40" height="40" viewBox="0 0 40 40" fill="none" xmlns="http://www.w3.org/2000/svg">
<path fill-rule="evenodd" clip-rule="evenodd" d="M14.1654 4.86947C12.7847 4.86947 11.6654 5.98875 11.6654 7.36947V32.6299C11.6654 34.0106 12.7847 35.1299 14.1654 35.1299H25.832C27.2127 35.1299 28.332 34.0106 28.332 32.6299V7.36947C28.332 5.98875 27.2127 4.86947 25.832 4.86947H25.6931L25.2871 5.84355C25.0283 6.46458 24.4215 6.86909 23.7487 6.86909H16.2487C15.5759 6.86909 14.9691 6.46458 14.7103 5.84355L14.3043 4.86947H14.1654ZM8.33203 7.36947C8.33203 4.1478 10.9437 1.53613 14.1654 1.53613H25.832C29.0537 1.53613 31.6654 4.1478 31.6654 7.36947V32.6299C31.6654 35.8515 29.0537 38.4632 25.832 38.4632H14.1654C10.9437 38.4632 8.33203 35.8515 8.33203 32.6299V7.36947Z" fill="#7772F1"/>
</svg>
