<svg width="20" height="20" viewBox="0 0 20 20" fill="none" xmlns="http://www.w3.org/2000/svg">
<path d="M18.3305 18.3327L18.3346 18.332V12.2195C18.3346 9.22921 17.6909 6.92574 14.1951 6.92574C12.5145 6.92574 11.3867 7.84796 10.9263 8.72227H10.8777V7.2049H7.5631V18.332H11.0145V12.8223C11.0145 11.3716 11.2895 9.9688 13.086 9.9688C14.8562 9.9688 14.8826 11.6244 14.8826 12.9153V18.3327H18.3305Z" fill="#787A80"/>
<path d="M1.94296 7.2056H5.39852V18.3327H1.94296V7.2056Z" fill="#787A80"/>
<path d="M3.66936 1.66602C2.5645 1.66602 1.66797 2.56254 1.66797 3.6674C1.66797 4.77227 2.5645 5.68754 3.66936 5.68754C4.77422 5.68754 5.67075 4.77227 5.67075 3.6674C5.67005 2.56254 4.77352 1.66602 3.66936 1.66602Z" fill="#787A80"/>
</svg>
