<svg width="24" height="24" viewBox="0 0 24 24" fill="none" xmlns="http://www.w3.org/2000/svg">
<path fill-rule="evenodd" clip-rule="evenodd" d="M12.0039 1.00195C12.5562 1.00195 13.0039 1.44967 13.0039 2.00195V11.002H22.0039C22.5562 11.002 23.0039 11.4497 23.0039 12.002C23.0039 12.5542 22.5562 13.002 22.0039 13.002H13.0039V22.002C13.0039 22.5542 12.5562 23.002 12.0039 23.002C11.4516 23.002 11.0039 22.5542 11.0039 22.002V13.002H2.00391C1.45162 13.002 1.00391 12.5542 1.00391 12.002C1.00391 11.4497 1.45162 11.002 2.00391 11.002H11.0039V2.00195C11.0039 1.44967 11.4516 1.00195 12.0039 1.00195Z" fill="#7772F1"/>
</svg>
