<svg width="133" height="102" viewBox="0 0 133 102" fill="none" xmlns="http://www.w3.org/2000/svg">
<rect x="110.363" y="83.2559" width="21.925" height="17.8979" fill="white"/>
<rect x="110.363" y="0.925781" width="21.925" height="100.228" fill="white"/>
<rect x="113.943" y="8.08594" width="14.7658" height="68.0121" rx="2" fill="#FC5A5A"/>
<rect x="110.363" y="83.2559" width="21.925" height="0.447448" fill="#7772F1"/>
<path d="M118.432 98.4701C118.385 98.4701 118.344 98.4557 118.311 98.4271C118.282 98.3937 118.268 98.3531 118.268 98.3054V98.0763C118.268 97.9665 118.327 97.8615 118.447 97.7613L119.964 96.2436C120.332 95.9381 120.585 95.6899 120.723 95.499C120.862 95.3033 120.931 95.0981 120.931 94.8833C120.931 94.6065 120.852 94.3893 120.695 94.2318C120.542 94.0743 120.317 93.9956 120.022 93.9956C119.745 93.9956 119.523 94.0791 119.356 94.2461C119.189 94.4084 119.086 94.6256 119.048 94.8976C119.038 94.9549 119.015 94.9979 118.976 95.0265C118.943 95.0504 118.905 95.0623 118.862 95.0623H118.49C118.447 95.0623 118.411 95.0504 118.382 95.0265C118.353 94.9979 118.339 94.9644 118.339 94.9263C118.349 94.6685 118.418 94.4227 118.547 94.1889C118.676 93.9502 118.864 93.7569 119.112 93.609C119.365 93.4562 119.668 93.3799 120.022 93.3799C120.561 93.3799 120.967 93.5207 121.239 93.8023C121.515 94.0791 121.654 94.4323 121.654 94.8618C121.654 95.1625 121.578 95.4346 121.425 95.678C121.277 95.9166 121.045 96.1743 120.73 96.4512L119.356 97.8472H121.589C121.642 97.8472 121.683 97.8639 121.711 97.8973C121.745 97.926 121.761 97.9641 121.761 98.0119V98.3054C121.761 98.3531 121.745 98.3937 121.711 98.4271C121.678 98.4557 121.637 98.4701 121.589 98.4701H118.432Z" fill="#FC5A5A"/>
<path d="M124.095 98.4701C124.047 98.4701 124.006 98.4557 123.973 98.4271C123.944 98.3937 123.93 98.3531 123.93 98.3054V94.2963L122.741 95.2126C122.708 95.2413 122.672 95.2556 122.634 95.2556C122.591 95.2556 122.551 95.2317 122.512 95.184L122.326 94.9477C122.302 94.9143 122.29 94.8809 122.29 94.8475C122.29 94.7902 122.314 94.7449 122.362 94.7115L123.923 93.5087C123.975 93.4753 124.037 93.4586 124.109 93.4586H124.474C124.522 93.4586 124.56 93.4753 124.589 93.5087C124.622 93.5374 124.639 93.5756 124.639 93.6233V98.3054C124.639 98.3531 124.622 98.3937 124.589 98.4271C124.56 98.4557 124.522 98.4701 124.474 98.4701H124.095Z" fill="#FC5A5A"/>
<rect x="88.4395" y="83.2559" width="21.925" height="17.8979" fill="white"/>
<rect x="88.4395" y="0.925781" width="21.925" height="100.228" fill="white"/>
<rect x="92.0195" y="34.9326" width="14.7658" height="41.1652" rx="2" fill="#E1EAF5"/>
<rect x="88.4395" y="83.2559" width="21.925" height="0.447448" fill="#E1EAF5"/>
<path d="M95.7682 98.4701C95.7204 98.4701 95.6799 98.4557 95.6465 98.4271C95.6178 98.3937 95.6035 98.3531 95.6035 98.3054V98.0763C95.6035 97.9665 95.6632 97.8615 95.7825 97.7613L97.3002 96.2436C97.6677 95.9381 97.9207 95.6899 98.0591 95.499C98.1975 95.3033 98.2667 95.0981 98.2667 94.8833C98.2667 94.6065 98.188 94.3893 98.0305 94.2318C97.8777 94.0743 97.6534 93.9956 97.3575 93.9956C97.0807 93.9956 96.8588 94.0791 96.6917 94.2461C96.5247 94.4084 96.422 94.6256 96.3839 94.8976C96.3743 94.9549 96.3505 94.9979 96.3123 95.0265C96.2789 95.0504 96.2407 95.0623 96.1977 95.0623H95.8254C95.7825 95.0623 95.7467 95.0504 95.7181 95.0265C95.6894 94.9979 95.6751 94.9644 95.6751 94.9263C95.6847 94.6685 95.7539 94.4227 95.8827 94.1889C96.0116 93.9502 96.2001 93.7569 96.4483 93.609C96.7013 93.4562 97.0043 93.3799 97.3575 93.3799C97.8968 93.3799 98.3025 93.5207 98.5746 93.8023C98.8514 94.0791 98.9898 94.4323 98.9898 94.8618C98.9898 95.1625 98.9134 95.4346 98.7607 95.678C98.6128 95.9166 98.3813 96.1743 98.0663 96.4512L96.6917 97.8472H98.9254C98.9779 97.8472 99.0184 97.8639 99.0471 97.8973C99.0805 97.926 99.0972 97.9641 99.0972 98.0119V98.3054C99.0972 98.3531 99.0805 98.3937 99.0471 98.4271C99.0137 98.4557 98.9731 98.4701 98.9254 98.4701H95.7682Z" fill="#595F66"/>
<path d="M101.724 98.5416C101.108 98.5416 100.657 98.3627 100.371 98.0047C100.085 97.6467 99.9318 97.1766 99.9127 96.5944C99.9079 96.4655 99.9056 96.2579 99.9056 95.9715C99.9056 95.6756 99.9079 95.4608 99.9127 95.3272C99.927 94.7544 100.08 94.2891 100.371 93.9311C100.662 93.5684 101.113 93.387 101.724 93.387C102.34 93.387 102.793 93.5684 103.084 93.9311C103.375 94.2891 103.528 94.7544 103.542 95.3272C103.552 95.5945 103.557 95.8092 103.557 95.9715C103.557 96.129 103.552 96.3366 103.542 96.5944C103.523 97.1766 103.371 97.6467 103.084 98.0047C102.798 98.3627 102.344 98.5416 101.724 98.5416ZM101.724 97.926C102.082 97.926 102.352 97.8066 102.533 97.568C102.719 97.3294 102.817 96.9929 102.827 96.5586C102.836 96.2817 102.841 96.0813 102.841 95.9572C102.841 95.8235 102.836 95.6279 102.827 95.3701C102.817 94.9406 102.722 94.6041 102.54 94.3607C102.359 94.1173 102.087 93.9956 101.724 93.9956C101.366 93.9956 101.094 94.1173 100.908 94.3607C100.726 94.6041 100.631 94.9406 100.621 95.3701L100.614 95.9572L100.621 96.5586C100.631 96.9929 100.726 97.3294 100.908 97.568C101.094 97.8066 101.366 97.926 101.724 97.926Z" fill="#595F66"/>
<rect x="66.5137" y="83.2559" width="21.925" height="17.8979" fill="white"/>
<rect x="66.5137" y="0.925781" width="21.925" height="100.228" fill="white"/>
<rect x="70.0938" y="40.3018" width="14.7658" height="35.7958" rx="2" fill="#E1EAF5"/>
<rect x="66.5137" y="83.2559" width="21.925" height="0.447448" fill="#E1EAF5"/>
<path d="M76.2475 98.4697C76.1997 98.4697 76.1592 98.4554 76.1258 98.4268C76.0971 98.3934 76.0828 98.3528 76.0828 98.3051V94.2959L74.8944 95.2123C74.861 95.2409 74.8252 95.2553 74.787 95.2553C74.744 95.2553 74.7035 95.2314 74.6653 95.1837L74.4792 94.9474C74.4553 94.914 74.4434 94.8806 74.4434 94.8472C74.4434 94.7899 74.4672 94.7446 74.515 94.7112L76.0756 93.5084C76.1282 93.475 76.1902 93.4583 76.2618 93.4583H76.6269C76.6746 93.4583 76.7128 93.475 76.7415 93.5084C76.7749 93.5371 76.7916 93.5752 76.7916 93.623V98.3051C76.7916 98.3528 76.7749 98.3934 76.7415 98.4268C76.7128 98.4554 76.6746 98.4697 76.6269 98.4697H76.2475Z" fill="#595F66"/>
<path d="M78.7155 98.4697C78.6725 98.4697 78.6367 98.4554 78.6081 98.4268C78.5842 98.3934 78.5723 98.3552 78.5723 98.3122C78.5723 98.2788 78.5818 98.2478 78.6009 98.2192L79.6963 96.6943C79.5817 96.7229 79.4529 96.7372 79.3097 96.7372C78.9708 96.7324 78.6701 96.6537 78.4076 96.501C78.1499 96.3482 77.9518 96.1454 77.8134 95.8924C77.675 95.6395 77.6058 95.3698 77.6058 95.0834C77.6058 94.7971 77.6726 94.525 77.8063 94.2673C77.9447 94.0048 78.1499 93.7924 78.422 93.6301C78.694 93.4679 79.0233 93.3867 79.4099 93.3867C79.7965 93.3867 80.1258 93.4655 80.3979 93.623C80.6747 93.7805 80.8823 93.9881 81.0207 94.2458C81.1591 94.5035 81.2284 94.778 81.2284 95.0691C81.2284 95.3269 81.183 95.5559 81.0923 95.7564C81.0016 95.9521 80.8752 96.1669 80.7129 96.4007L79.3312 98.3265C79.2978 98.3695 79.2644 98.4053 79.2309 98.4339C79.2023 98.4578 79.1593 98.4697 79.1021 98.4697H78.7155ZM79.4099 96.1573C79.6104 96.1573 79.7941 96.1144 79.9612 96.0285C80.133 95.9378 80.269 95.8113 80.3692 95.649C80.4695 95.482 80.5196 95.2911 80.5196 95.0763C80.5196 94.8615 80.4695 94.673 80.3692 94.5107C80.269 94.3437 80.133 94.2172 79.9612 94.1313C79.7941 94.0406 79.6104 93.9952 79.4099 93.9952C79.2095 93.9952 79.0257 94.0406 78.8587 94.1313C78.6916 94.2172 78.558 94.3437 78.4578 94.5107C78.3623 94.673 78.3146 94.8615 78.3146 95.0763C78.3146 95.2911 78.3623 95.482 78.4578 95.649C78.558 95.8113 78.6916 95.9378 78.8587 96.0285C79.0257 96.1144 79.2095 96.1573 79.4099 96.1573Z" fill="#595F66"/>
<rect x="44.5879" y="83.2559" width="21.925" height="17.8979" fill="white"/>
<rect x="44.5879" y="0.925781" width="21.925" height="100.228" fill="white"/>
<rect x="48.168" y="47.9082" width="14.7658" height="28.1892" rx="2" fill="#E1EAF5"/>
<rect x="44.5879" y="83.2559" width="21.925" height="0.447448" fill="#E1EAF5"/>
<path d="M53.4955 98.4697C53.4478 98.4697 53.4072 98.4554 53.3738 98.4268C53.3452 98.3934 53.3309 98.3528 53.3309 98.3051V94.2959L52.1424 95.2123C52.109 95.2409 52.0732 95.2553 52.035 95.2553C51.9921 95.2553 51.9515 95.2314 51.9133 95.1837L51.7272 94.9474C51.7033 94.914 51.6914 94.8806 51.6914 94.8472C51.6914 94.7899 51.7153 94.7446 51.763 94.7112L53.3237 93.5084C53.3762 93.475 53.4382 93.4583 53.5098 93.4583H53.875C53.9227 93.4583 53.9609 93.475 53.9895 93.5084C54.0229 93.5371 54.0396 93.5752 54.0396 93.623V98.3051C54.0396 98.3528 54.0229 98.3934 53.9895 98.4268C53.9609 98.4554 53.9227 98.4697 53.875 98.4697H53.4955Z" fill="#595F66"/>
<path d="M56.8584 98.5413C56.4861 98.5413 56.1592 98.4817 55.8776 98.3623C55.596 98.2382 55.3765 98.0617 55.219 97.8326C55.0615 97.6035 54.9827 97.3362 54.9827 97.0307C54.9827 96.7491 55.0519 96.5033 55.1903 96.2933C55.3287 96.0786 55.5173 95.9139 55.7559 95.7994C55.565 95.6896 55.417 95.5464 55.312 95.3698C55.2118 95.1884 55.1617 94.9784 55.1617 94.7398C55.1617 94.3198 55.3144 93.9905 55.6199 93.7518C55.9301 93.5084 56.343 93.3867 56.8584 93.3867C57.3691 93.3867 57.7772 93.5084 58.0826 93.7518C58.3929 93.9905 58.548 94.3174 58.548 94.7326C58.548 94.9713 58.4955 95.1813 58.3905 95.3626C58.2903 95.5392 58.1471 95.6848 57.9609 95.7994C58.1996 95.9139 58.3881 96.0786 58.5265 96.2933C58.6649 96.5033 58.7341 96.7491 58.7341 97.0307C58.7341 97.3362 58.6554 97.6035 58.4979 97.8326C58.3404 98.0617 58.1184 98.2382 57.8321 98.3623C57.5505 98.4817 57.2259 98.5413 56.8584 98.5413ZM56.8584 95.5416C57.1448 95.5369 57.3858 95.4629 57.5815 95.3197C57.7772 95.1765 57.875 94.988 57.875 94.7541C57.875 94.5155 57.7772 94.3246 57.5815 94.1814C57.3906 94.0334 57.1496 93.9595 56.8584 93.9595C56.5625 93.9595 56.3167 94.031 56.121 94.1742C55.9301 94.3174 55.8347 94.5107 55.8347 94.7541C55.8347 94.9928 55.9301 95.1837 56.121 95.3269C56.3167 95.47 56.5625 95.5416 56.8584 95.5416ZM56.8584 97.9686C57.1925 97.9686 57.4717 97.8827 57.696 97.7109C57.9204 97.539 58.0325 97.3123 58.0325 97.0307C58.0325 96.7491 57.9204 96.5248 57.696 96.3578C57.4717 96.1907 57.1925 96.1072 56.8584 96.1072C56.5196 96.1072 56.238 96.1907 56.0136 96.3578C55.7893 96.5248 55.6772 96.7491 55.6772 97.0307C55.6772 97.3123 55.7893 97.539 56.0136 97.7109C56.238 97.8827 56.5196 97.9686 56.8584 97.9686Z" fill="#595F66"/>
<rect x="22.6621" y="83.2559" width="21.925" height="17.8979" fill="white"/>
<rect x="22.6621" y="0.925781" width="21.925" height="100.228" fill="white"/>
<rect x="26.2441" y="34.9326" width="14.7658" height="41.1652" rx="2" fill="#E1EAF5"/>
<rect x="22.6621" y="83.2559" width="21.925" height="0.447448" fill="#E1EAF5"/>
<path d="M32.2358 98.4704C32.188 98.4704 32.1475 98.4561 32.114 98.4274C32.0854 98.394 32.0711 98.3535 32.0711 98.3057V94.2966L30.8827 95.213C30.8493 95.2416 30.8135 95.2559 30.7753 95.2559C30.7323 95.2559 30.6918 95.2321 30.6536 95.1843L30.4674 94.9481C30.4436 94.9147 30.4316 94.8813 30.4316 94.8479C30.4316 94.7906 30.4555 94.7452 30.5032 94.7118L32.0639 93.5091C32.1164 93.4757 32.1785 93.459 32.2501 93.459H32.6152C32.6629 93.459 32.7011 93.4757 32.7297 93.5091C32.7631 93.5377 32.7798 93.5759 32.7798 93.6236V98.3057C32.7798 98.3535 32.7631 98.394 32.7297 98.4274C32.7011 98.4561 32.6629 98.4704 32.6152 98.4704H32.2358Z" fill="#595F66"/>
<path d="M34.3888 98.4704C34.3458 98.4704 34.31 98.4561 34.2814 98.4274C34.2575 98.394 34.2456 98.3559 34.2456 98.3129L34.2599 98.2485L36.0425 94.0818H33.6943C33.6466 94.0818 33.606 94.0675 33.5726 94.0389C33.544 94.0055 33.5297 93.9649 33.5297 93.9172V93.6308C33.5297 93.5783 33.544 93.5377 33.5726 93.5091C33.606 93.4757 33.6466 93.459 33.6943 93.459H36.6296C36.6821 93.459 36.7226 93.4757 36.7513 93.5091C36.7847 93.5377 36.8014 93.5783 36.8014 93.6308V93.8957C36.8014 93.9816 36.7823 94.0747 36.7441 94.1749L34.983 98.2914C34.9591 98.3439 34.9305 98.3869 34.8971 98.4203C34.8684 98.4537 34.8279 98.4704 34.7754 98.4704H34.3888Z" fill="#595F66"/>
<rect x="0.740234" y="83.2559" width="21.925" height="17.8979" fill="white"/>
<rect x="4.32031" y="58.1982" width="14.7658" height="17.8979" rx="2" fill="#E1EAF5"/>
<rect x="0.740234" y="83.2559" width="21.925" height="0.447448" fill="#E1EAF5"/>
<path d="M10.2143 98.4684C10.1665 98.4684 10.126 98.4541 10.0926 98.4255C10.0639 98.3921 10.0496 98.3515 10.0496 98.3038V94.2947L8.86118 95.211C8.82777 95.2397 8.79198 95.254 8.7538 95.254C8.71084 95.254 8.67027 95.2301 8.63209 95.1824L8.44595 94.9461C8.42209 94.9127 8.41016 94.8793 8.41016 94.8459C8.41016 94.7886 8.43402 94.7433 8.48175 94.7099L10.0424 93.5071C10.0949 93.4737 10.157 93.457 10.2286 93.457H10.5937C10.6414 93.457 10.6796 93.4737 10.7082 93.5071C10.7417 93.5358 10.7584 93.574 10.7584 93.6217V98.3038C10.7584 98.3515 10.7417 98.3921 10.7082 98.4255C10.6796 98.4541 10.6414 98.4684 10.5937 98.4684H10.2143Z" fill="#595F66"/>
<path d="M13.5056 98.54C13.1238 98.54 12.7921 98.4637 12.5105 98.3109C12.2289 98.1534 12.0141 97.9434 11.8661 97.6809C11.7182 97.4184 11.6442 97.1321 11.6442 96.8218C11.6442 96.5689 11.6943 96.3302 11.7945 96.1059C11.8995 95.8768 12.0165 95.674 12.1453 95.4974L13.5056 93.6002C13.5104 93.5954 13.5247 93.5787 13.5485 93.5501C13.5676 93.5215 13.5939 93.5 13.6273 93.4857C13.6607 93.4666 13.6989 93.457 13.7418 93.457H14.1213C14.1642 93.457 14.1976 93.4737 14.2215 93.5071C14.2501 93.5358 14.2645 93.5716 14.2645 93.6145C14.2645 93.6479 14.2549 93.679 14.2358 93.7076L13.1906 95.1681C13.2956 95.1347 13.4316 95.118 13.5987 95.118C13.9423 95.1227 14.2454 95.2015 14.5079 95.3542C14.7751 95.5069 14.9804 95.7122 15.1236 95.9699C15.2715 96.2276 15.3455 96.5092 15.3455 96.8147C15.3455 97.1201 15.2715 97.4065 15.1236 97.6738C14.9804 97.9363 14.768 98.1463 14.4864 98.3038C14.2096 98.4613 13.8826 98.54 13.5056 98.54ZM13.4984 97.9315C13.7037 97.9315 13.8922 97.8886 14.064 97.8026C14.2406 97.7167 14.379 97.5903 14.4792 97.4232C14.5842 97.2514 14.6367 97.0485 14.6367 96.8147C14.6367 96.5856 14.5842 96.3875 14.4792 96.2205C14.379 96.0534 14.2406 95.9269 14.064 95.841C13.8922 95.7551 13.7037 95.7122 13.4984 95.7122C13.298 95.7122 13.1094 95.7551 12.9328 95.841C12.761 95.9269 12.6226 96.0534 12.5176 96.2205C12.4126 96.3875 12.3601 96.5856 12.3601 96.8147C12.3601 97.0485 12.4126 97.2514 12.5176 97.4232C12.6226 97.5903 12.761 97.7167 12.9328 97.8026C13.1047 97.8886 13.2932 97.9315 13.4984 97.9315Z" fill="#595F66"/>
</svg>
