<svg width="510" height="377" viewBox="0 0 510 377" fill="none" xmlns="http://www.w3.org/2000/svg">
<g filter="url(#filter0_dddd_2196_3374)">
<rect x="60" width="390" height="237" rx="4" fill="white"/>
<rect x="60.5" y="0.5" width="389" height="236" rx="3.5" stroke="#E5E8ED"/>
<g clip-path="url(#clip0_2196_3374)">
<g clip-path="url(#clip1_2196_3374)">
<path d="M262.749 70.8326C262.483 70.557 261.993 70.4779 261.633 70.8224C261.631 70.8248 261.628 70.8273 261.625 70.8298C261.27 71.1793 261.334 71.6713 261.602 71.9451C261.744 72.0905 261.949 72.1801 262.163 72.1801C262.353 72.1801 262.55 72.1104 262.717 71.9476C263.075 71.6007 263.014 71.1081 262.749 70.8326Z" fill="#7772F1"/>
<path d="M269.824 55.7932C269.674 55.3886 269.225 55.1823 268.82 55.332C268.415 55.4818 268.209 55.9312 268.359 56.3358C269.033 58.1564 269.375 60.0733 269.375 62.0332C269.375 71.0784 262.016 78.4371 252.971 78.4371C249.615 78.4371 246.388 77.4307 243.64 75.5266C243.286 75.2809 242.799 75.3692 242.553 75.7238C242.307 76.0784 242.396 76.5651 242.75 76.8108C245.761 78.8968 249.295 79.9994 252.971 79.9994C257.77 79.9994 262.282 78.1306 265.675 74.7371C269.069 71.3438 270.937 66.8321 270.937 62.0331C270.937 59.8875 270.563 57.7881 269.824 55.7932Z" fill="#7772F1"/>
<path d="M259.02 45.1107C257.082 44.4177 255.047 44.0664 252.97 44.0664C248.171 44.0664 243.66 45.9352 240.266 49.3285C236.873 52.722 235.004 57.2337 235.004 62.0326C235.004 65.7541 236.132 69.3246 238.266 72.358C238.418 72.5742 238.659 72.6898 238.905 72.6898C239.06 72.6898 239.217 72.6436 239.354 72.5474C239.707 72.2992 239.792 71.8119 239.543 71.4591C237.596 68.6902 236.566 65.4306 236.566 62.0325C236.566 52.9874 243.925 45.6287 252.97 45.6287C254.867 45.6287 256.725 45.9493 258.494 46.5817C258.9 46.727 259.347 46.5155 259.492 46.1092C259.638 45.703 259.426 45.256 259.02 45.1107Z" fill="#7772F1"/>
<path d="M274.936 46.4782C274.815 46.1862 274.53 45.996 274.214 45.996H270.109L270.551 45.5546C270.856 45.2496 270.856 44.7549 270.551 44.4498C270.246 44.1448 269.751 44.1448 269.446 44.4498L268.999 44.8968V40.7812C268.999 40.4654 268.809 40.1804 268.517 40.0595C268.225 39.9386 267.889 40.0054 267.666 40.2288L260.779 47.115C260.633 47.2615 260.551 47.4602 260.551 47.6674V50.3771C258.297 48.9032 255.7 48.1295 252.967 48.1295C245.3 48.1295 239.062 54.367 239.062 62.0338C239.062 69.7005 245.3 75.938 252.967 75.938C255.511 75.938 258.001 75.244 260.166 73.9312C260.535 73.7076 260.653 73.2272 260.429 72.8583C260.206 72.4894 259.725 72.3715 259.356 72.5953C257.435 73.7601 255.226 74.3757 252.967 74.3757C246.161 74.3757 240.625 68.8391 240.625 62.0337C240.625 55.2282 246.161 49.6917 252.967 49.6917C255.746 49.6917 258.367 50.5924 260.551 52.2963V53.3452L259.127 54.7687C257.465 53.3569 255.314 52.5037 252.967 52.5037C247.712 52.5037 243.437 56.7788 243.437 62.0336C243.437 67.2884 247.712 71.5635 252.967 71.5635C258.222 71.5635 262.497 67.2884 262.497 62.0336C262.497 59.6868 261.644 57.5359 260.232 55.8734L261.661 54.4442H262.7C264.384 56.6024 265.309 59.2872 265.309 62.0336C265.309 64.3365 264.67 66.5827 263.463 68.5291C263.236 68.8957 263.349 69.3773 263.715 69.6047C263.844 69.6842 263.986 69.7221 264.126 69.7221C264.388 69.7221 264.643 69.5909 264.791 69.3526C266.152 67.1587 266.871 64.6278 266.871 62.0336C266.871 59.3354 266.078 56.6899 264.617 54.4442H267.327C267.535 54.4442 267.733 54.3619 267.88 54.2154L274.766 47.3292C274.99 47.106 275.056 46.77 274.936 46.4782ZM260.935 62.0338C260.935 66.4271 257.36 70.0014 252.967 70.0014C248.574 70.0014 244.999 66.4271 244.999 62.0338C244.999 57.6404 248.574 54.0661 252.967 54.0661C254.883 54.0661 256.643 54.746 258.019 55.8771L256.24 57.6562C255.327 56.9717 254.193 56.5658 252.967 56.5658C249.952 56.5658 247.499 59.0188 247.499 62.0338C247.499 65.0488 249.952 67.5017 252.967 67.5017C255.982 67.5017 258.435 65.0487 258.435 62.0338C258.435 60.8074 258.029 59.674 257.345 58.7609L259.124 56.9818C260.255 58.3577 260.935 60.1177 260.935 62.0338ZM252.415 62.5862C252.567 62.7388 252.767 62.815 252.967 62.815C253.167 62.815 253.367 62.7388 253.519 62.5862L256.224 59.8816C256.633 60.4991 256.873 61.2389 256.873 62.0338C256.873 64.1873 255.121 65.9394 252.967 65.9394C250.813 65.9394 249.061 64.1873 249.061 62.0338C249.061 59.8802 250.813 58.1281 252.967 58.1281C253.762 58.1281 254.502 58.3674 255.119 58.7768L252.415 61.4814C252.11 61.7864 252.11 62.281 252.415 62.5862ZM262.113 51.783V47.991L267.437 42.6671V46.4591L262.113 51.783ZM267.004 52.8821H263.223L268.547 47.5582H272.328L267.004 52.8821Z" fill="#7772F1"/>
<path d="M241.353 73.6156C241.208 73.4704 241.006 73.3867 240.801 73.3867C240.594 73.3867 240.393 73.4703 240.248 73.6156C240.102 73.7609 240.02 73.9624 240.02 74.1679C240.02 74.3734 240.102 74.5748 240.248 74.7202C240.394 74.8655 240.594 74.9491 240.801 74.9491C241.006 74.9491 241.208 74.8655 241.353 74.7202C241.498 74.5748 241.582 74.3734 241.582 74.1679C241.582 73.9624 241.498 73.7617 241.353 73.6156Z" fill="#7772F1"/>
</g>
</g>
</g>
<defs>
<filter id="filter0_dddd_2196_3374" x="0" y="0" width="510" height="377" filterUnits="userSpaceOnUse" color-interpolation-filters="sRGB">
<feFlood flood-opacity="0" result="BackgroundImageFix"/>
<feColorMatrix in="SourceAlpha" type="matrix" values="0 0 0 0 0 0 0 0 0 0 0 0 0 0 0 0 0 0 127 0" result="hardAlpha"/>
<feMorphology radius="4" operator="erode" in="SourceAlpha" result="effect1_dropShadow_2196_3374"/>
<feOffset dy="4"/>
<feGaussianBlur stdDeviation="2"/>
<feColorMatrix type="matrix" values="0 0 0 0 0.117647 0 0 0 0 0.129412 0 0 0 0 0.172549 0 0 0 0.03 0"/>
<feBlend mode="normal" in2="BackgroundImageFix" result="effect1_dropShadow_2196_3374"/>
<feColorMatrix in="SourceAlpha" type="matrix" values="0 0 0 0 0 0 0 0 0 0 0 0 0 0 0 0 0 0 127 0" result="hardAlpha"/>
<feMorphology radius="6" operator="erode" in="SourceAlpha" result="effect2_dropShadow_2196_3374"/>
<feOffset dy="12"/>
<feGaussianBlur stdDeviation="5"/>
<feColorMatrix type="matrix" values="0 0 0 0 0.603922 0 0 0 0 0.611765 0 0 0 0 0.647059 0 0 0 0.04 0"/>
<feBlend mode="normal" in2="effect1_dropShadow_2196_3374" result="effect2_dropShadow_2196_3374"/>
<feColorMatrix in="SourceAlpha" type="matrix" values="0 0 0 0 0 0 0 0 0 0 0 0 0 0 0 0 0 0 127 0" result="hardAlpha"/>
<feMorphology radius="10" operator="erode" in="SourceAlpha" result="effect3_dropShadow_2196_3374"/>
<feOffset dy="30"/>
<feGaussianBlur stdDeviation="12"/>
<feColorMatrix type="matrix" values="0 0 0 0 0.603922 0 0 0 0 0.611765 0 0 0 0 0.647059 0 0 0 0.05 0"/>
<feBlend mode="normal" in2="effect2_dropShadow_2196_3374" result="effect3_dropShadow_2196_3374"/>
<feColorMatrix in="SourceAlpha" type="matrix" values="0 0 0 0 0 0 0 0 0 0 0 0 0 0 0 0 0 0 127 0" result="hardAlpha"/>
<feMorphology radius="20" operator="erode" in="SourceAlpha" result="effect4_dropShadow_2196_3374"/>
<feOffset dy="80"/>
<feGaussianBlur stdDeviation="40"/>
<feColorMatrix type="matrix" values="0 0 0 0 0.603922 0 0 0 0 0.611765 0 0 0 0 0.647059 0 0 0 0.08 0"/>
<feBlend mode="normal" in2="effect3_dropShadow_2196_3374" result="effect4_dropShadow_2196_3374"/>
<feBlend mode="normal" in="SourceGraphic" in2="effect4_dropShadow_2196_3374" result="shape"/>
</filter>
<clipPath id="clip0_2196_3374">
<rect width="294" height="157" fill="white" transform="translate(108 40)"/>
</clipPath>
<clipPath id="clip1_2196_3374">
<rect width="40" height="40" fill="white" transform="translate(235 40)"/>
</clipPath>
</defs>
</svg>
