<svg width="136" height="60" viewBox="0 0 136 60" fill="none" xmlns="http://www.w3.org/2000/svg">
<g clip-path="url(#clip0_11806_1378)">
<path d="M10.3646 48.115C8.60128 47.8237 6.91461 47.3177 5.30461 46.597C3.70994 45.861 2.36061 44.9793 1.25661 43.952L3.46461 40.755C3.64861 40.4943 3.89394 40.2797 4.20061 40.111C4.52261 39.927 4.85994 39.835 5.21261 39.835C5.58061 39.835 5.95628 39.9347 6.33961 40.134C6.72294 40.318 7.13694 40.548 7.58161 40.824C8.04161 41.1 8.53994 41.3837 9.07661 41.675C9.61328 41.951 10.2266 42.181 10.9166 42.365L11.7676 33.671C10.6636 33.3643 9.56728 33.004 8.47861 32.59C7.38994 32.176 6.40861 31.6163 5.53461 30.911C4.66061 30.2057 3.94761 29.3087 3.39561 28.22C2.85894 27.1313 2.59061 25.7667 2.59061 24.126C2.59061 22.9147 2.83594 21.734 3.32661 20.584C3.81728 19.434 4.53028 18.399 5.46561 17.479C6.41628 16.559 7.58161 15.8077 8.96161 15.225C10.3416 14.627 11.9209 14.282 13.6996 14.19L13.9526 11.637C13.9986 11.2077 14.1903 10.8243 14.5276 10.487C14.8649 10.1343 15.3019 9.958 15.8386 9.958H18.4606L18.0006 14.489C19.6566 14.7957 21.0826 15.294 22.2786 15.984C23.4746 16.6587 24.4866 17.387 25.3146 18.169L23.5666 20.722C23.3059 21.1053 23.0376 21.389 22.7616 21.573C22.5009 21.7417 22.1866 21.826 21.8186 21.826C21.5733 21.826 21.2973 21.7723 20.9906 21.665C20.6839 21.5577 20.3466 21.4273 19.9786 21.274C19.6106 21.1053 19.2119 20.929 18.7826 20.745C18.3686 20.561 17.9239 20.4 17.4486 20.262L16.6436 28.427C17.3796 28.6417 18.1156 28.8793 18.8516 29.14C19.5876 29.3853 20.2929 29.6767 20.9676 30.014C21.6576 30.336 22.2939 30.7117 22.8766 31.141C23.4746 31.5703 23.9883 32.0763 24.4176 32.659C24.8623 33.2417 25.2073 33.9163 25.4526 34.683C25.6979 35.4343 25.8206 36.293 25.8206 37.259C25.8206 38.7157 25.5753 40.088 25.0846 41.376C24.5939 42.6487 23.8733 43.7757 22.9226 44.757C21.9719 45.7383 20.8066 46.5433 19.4266 47.172C18.0466 47.7853 16.4673 48.161 14.6886 48.299L14.4126 51.174C14.3666 51.6033 14.1749 51.9867 13.8376 52.324C13.5003 52.6767 13.0633 52.853 12.5266 52.853H9.90461L10.3646 48.115ZM19.0586 38.317C19.0586 37.443 18.7749 36.7453 18.2076 36.224C17.6556 35.7027 16.9196 35.2657 15.9996 34.913L15.2636 42.503C17.7936 42.0583 19.0586 40.663 19.0586 38.317ZM9.30661 23.436C9.30661 24.3407 9.59028 25.0767 10.1576 25.644C10.7403 26.196 11.4993 26.6637 12.4346 27.047L13.1246 20.101C12.4193 20.2083 11.8213 20.3693 11.3306 20.584C10.8553 20.7833 10.4643 21.0287 10.1576 21.32C9.86628 21.6113 9.65161 21.941 9.51361 22.309C9.37561 22.6617 9.30661 23.0373 9.30661 23.436ZM41.0042 14.121C42.6602 14.121 44.1475 14.3663 45.4662 14.857C46.8002 15.3323 47.9349 15.9993 48.8702 16.858C49.8055 17.7167 50.5185 18.744 51.0092 19.94C51.5152 21.1207 51.7682 22.424 51.7682 23.85C51.7682 25.0767 51.5919 26.2113 51.2392 27.254C50.9019 28.2967 50.4342 29.2933 49.8362 30.244C49.2382 31.1793 48.5405 32.0917 47.7432 32.981C46.9612 33.855 46.1255 34.7443 45.2362 35.649L38.6812 42.365C39.5245 42.1197 40.3525 41.928 41.1652 41.79C41.9932 41.6367 42.7675 41.56 43.4882 41.56H49.7442C50.5109 41.56 51.1165 41.7747 51.5612 42.204C52.0059 42.618 52.2282 43.17 52.2282 43.86V48H28.6762V45.7C28.6762 45.2553 28.7682 44.78 28.9522 44.274C29.1362 43.768 29.4582 43.308 29.9182 42.894L39.5782 33.165C40.4062 32.337 41.1269 31.5473 41.7402 30.796C42.3535 30.0447 42.8595 29.3087 43.2582 28.588C43.6569 27.852 43.9559 27.1237 44.1552 26.403C44.3545 25.667 44.4542 24.8927 44.4542 24.08C44.4542 22.746 44.1322 21.7263 43.4882 21.021C42.8595 20.3003 41.8935 19.94 40.5902 19.94C40.0535 19.94 39.5629 20.0167 39.1182 20.17C38.6735 20.3233 38.2749 20.5303 37.9222 20.791C37.5695 21.0517 37.2629 21.3583 37.0022 21.711C36.7569 22.0637 36.5575 22.447 36.4042 22.861C36.1589 23.551 35.8445 24.0493 35.4612 24.356C35.0932 24.6627 34.5872 24.816 33.9432 24.816C33.7899 24.816 33.6212 24.8083 33.4372 24.793C33.2685 24.7777 33.0922 24.7547 32.9082 24.724L29.1362 24.057C29.3815 22.3857 29.8492 20.929 30.5392 19.687C31.2445 18.445 32.1109 17.41 33.1382 16.582C34.1809 15.754 35.3692 15.1407 36.7032 14.742C38.0372 14.328 39.4709 14.121 41.0042 14.121ZM76.2898 34.982H79.7398V38.984C79.7398 39.3367 79.6171 39.6433 79.3718 39.904C79.1418 40.1647 78.8045 40.295 78.3598 40.295H76.2898V48H70.0798V40.295H56.6018C56.1571 40.295 55.7508 40.157 55.3828 39.881C55.0301 39.605 54.8078 39.26 54.7158 38.846L53.9798 35.327L69.4818 14.489H76.2898V34.982ZM70.0798 26.242C70.0798 25.7053 70.0951 25.1303 70.1258 24.517C70.1718 23.8883 70.2331 23.2443 70.3098 22.585L61.4548 34.982H70.0798V26.242Z" fill="#7772F1"/>
<path d="M91.18 23.03C91.12 23.1833 91.0433 23.3167 90.95 23.43C90.8567 23.5433 90.75 23.6367 90.63 23.71C90.51 23.79 90.3833 23.85 90.25 23.89C90.1167 23.93 89.9867 23.95 89.86 23.95H88.82L94.66 9.01C94.7733 8.73 94.9367 8.51667 95.15 8.37C95.3633 8.21667 95.62 8.14 95.92 8.14H96.97L91.18 23.03ZM97.0583 23V12.74H98.5683C98.8883 12.74 99.0983 12.89 99.1983 13.19L99.3583 13.95C99.5383 13.75 99.7249 13.5667 99.9183 13.4C100.118 13.2333 100.328 13.09 100.548 12.97C100.775 12.85 101.015 12.7567 101.268 12.69C101.528 12.6167 101.812 12.58 102.118 12.58C102.765 12.58 103.295 12.7567 103.708 13.11C104.128 13.4567 104.442 13.92 104.648 14.5C104.808 14.16 105.008 13.87 105.248 13.63C105.488 13.3833 105.752 13.1833 106.038 13.03C106.325 12.8767 106.628 12.7633 106.948 12.69C107.275 12.6167 107.602 12.58 107.928 12.58C108.495 12.58 108.998 12.6667 109.438 12.84C109.878 13.0133 110.248 13.2667 110.548 13.6C110.848 13.9333 111.075 14.34 111.228 14.82C111.388 15.3 111.468 15.85 111.468 16.47V23H108.998V16.47C108.998 15.8167 108.855 15.3267 108.568 15C108.282 14.6667 107.862 14.5 107.308 14.5C107.055 14.5 106.818 14.5433 106.598 14.63C106.385 14.7167 106.195 14.8433 106.028 15.01C105.868 15.17 105.742 15.3733 105.648 15.62C105.555 15.8667 105.508 16.15 105.508 16.47V23H103.028V16.47C103.028 15.7833 102.888 15.2833 102.608 14.97C102.335 14.6567 101.928 14.5 101.388 14.5C101.035 14.5 100.702 14.59 100.388 14.77C100.082 14.9433 99.7949 15.1833 99.5283 15.49V23H97.0583ZM118.274 12.58C119.041 12.58 119.734 12.7033 120.354 12.95C120.981 13.1967 121.514 13.5467 121.954 14C122.394 14.4533 122.734 15.0067 122.974 15.66C123.214 16.3133 123.334 17.0433 123.334 17.85C123.334 18.6633 123.214 19.3967 122.974 20.05C122.734 20.7033 122.394 21.26 121.954 21.72C121.514 22.18 120.981 22.5333 120.354 22.78C119.734 23.0267 119.041 23.15 118.274 23.15C117.508 23.15 116.811 23.0267 116.184 22.78C115.558 22.5333 115.021 22.18 114.574 21.72C114.134 21.26 113.791 20.7033 113.544 20.05C113.304 19.3967 113.184 18.6633 113.184 17.85C113.184 17.0433 113.304 16.3133 113.544 15.66C113.791 15.0067 114.134 14.4533 114.574 14C115.021 13.5467 115.558 13.1967 116.184 12.95C116.811 12.7033 117.508 12.58 118.274 12.58ZM118.274 21.25C119.128 21.25 119.758 20.9633 120.164 20.39C120.578 19.8167 120.784 18.9767 120.784 17.87C120.784 16.7633 120.578 15.92 120.164 15.34C119.758 14.76 119.128 14.47 118.274 14.47C117.408 14.47 116.768 14.7633 116.354 15.35C115.941 15.93 115.734 16.77 115.734 17.87C115.734 18.97 115.941 19.81 116.354 20.39C116.768 20.9633 117.408 21.25 118.274 21.25ZM125.261 23V12.74H126.771C127.091 12.74 127.301 12.89 127.401 13.19L127.571 14C127.778 13.7867 127.995 13.5933 128.221 13.42C128.455 13.2467 128.698 13.0967 128.951 12.97C129.211 12.8433 129.488 12.7467 129.781 12.68C130.075 12.6133 130.395 12.58 130.741 12.58C131.301 12.58 131.798 12.6767 132.231 12.87C132.665 13.0567 133.025 13.3233 133.311 13.67C133.605 14.01 133.825 14.42 133.971 14.9C134.125 15.3733 134.201 15.8967 134.201 16.47V23H131.731V16.47C131.731 15.8433 131.585 15.36 131.291 15.02C131.005 14.6733 130.571 14.5 129.991 14.5C129.565 14.5 129.165 14.5967 128.791 14.79C128.418 14.9833 128.065 15.2467 127.731 15.58V23H125.261Z" fill="#7772F1"/>
</g>
<defs>
<clipPath id="clip0_11806_1378">
<rect width="136" height="60" fill="white"/>
</clipPath>
</defs>
</svg>
